<svg aria-hidden="true" style="position: absolute; width: 0; height: 0; overflow: hidden;" version="1.1" xmlns="http://www.w3.org/2000/svg" xmlns:xlink="http://www.w3.org/1999/xlink">
<defs>
<symbol id="icon-star" viewBox="0 0 32 32">
<path fill="none" stroke="#9040f6" style="stroke: var(--color1, #9040f6)" stroke-linejoin="miter" stroke-linecap="butt" stroke-miterlimit="4" stroke-width="3" d="M6.399 26.842l0-0.002 1.142-6.579c0-0 0-0.001 0-0.001s0-0 0-0c0.13-0.75-0.131-1.494-0.659-2.003l-4.854-4.664c-0.479-0.459-0.646-1.124-0.445-1.749l0-0.001c0.204-0.636 0.737-1.089 1.414-1.185l0.002-0 6.706-0.966c0.731-0.103 1.387-0.555 1.726-1.239l2.997-5.99c0-0 0-0 0-0.001 0.297-0.592 0.89-0.962 1.571-0.962s1.275 0.37 1.572 0.962l2.998 5.987c0 0.001 0.001 0.002 0.001 0.003 0.337 0.676 0.985 1.134 1.723 1.239 0.001 0 0.002 0 0.003 0l6.705 0.966c0.678 0.097 1.21 0.55 1.414 1.185l0 0.001c0.201 0.624 0.034 1.29-0.447 1.749l-0.002 0.002-4.853 4.662c-0.532 0.513-0.787 1.259-0.657 2.004 0 0 0 0 0 0.001l1.143 6.579c0.112 0.649-0.144 1.284-0.68 1.675l-0.003 0.002c-0.547 0.401-1.249 0.456-1.857 0.139l-0.003-0.002-5.995-3.107c-0.667-0.345-1.462-0.345-2.129 0l-0.001 0.001-5.997 3.109c-0.265 0.138-0.544 0.203-0.819 0.203-0.36 0-0.723-0.112-1.041-0.344-0.536-0.394-0.791-1.029-0.678-1.673z"></path>
</symbol>
<symbol id="icon-category" viewBox="0 0 32 32">
<path fill="#61646b" style="fill: var(--color2, #61646b)" d="M8.333 4.667c-3.667 0-3.667 0.277-3.667 3.667v0.033c0 1.476 0 2.543 0.361 2.993 0.353 0.437 1.403 0.64 3.305 0.64s2.952-0.204 3.305-0.641c0.361-0.449 0.361-1.516 0.361-2.993 0-3.421 0-3.699-3.667-3.699zM8.333 14c-2.248 0-3.935-0.236-4.861-1.387-0.805-0.999-0.805-2.361-0.805-4.247l1-0.033h-1c0-3.827 0.241-5.667 5.667-5.667s5.667 1.84 5.667 5.667c0 1.917 0 3.281-0.805 4.28-0.927 1.151-2.613 1.387-4.861 1.387z"></path>
<path fill="#61646b" style="fill: var(--color2, #61646b)" d="M23 4.667c-3.667 0-3.667 0.277-3.667 3.667v0.033c0 1.476 0 2.543 0.361 2.993 0.353 0.437 1.403 0.64 3.305 0.64s2.952-0.204 3.305-0.641c0.361-0.449 0.361-1.516 0.361-2.993 0-3.421 0-3.699-3.667-3.699zM23 14c-2.248 0-3.935-0.236-4.861-1.387-0.805-0.999-0.805-2.361-0.805-4.247l1-0.033h-1c0-3.827 0.241-5.667 5.667-5.667s5.667 1.84 5.667 5.667c0 1.917 0 3.281-0.805 4.28-0.927 1.151-2.613 1.387-4.861 1.387z"></path>
<path fill="#61646b" style="fill: var(--color2, #61646b)" d="M8.333 19.333c-3.667 0-3.667 0.277-3.667 3.667v0.033c0 1.476 0 2.543 0.361 2.993 0.353 0.437 1.403 0.64 3.305 0.64s2.952-0.204 3.305-0.641c0.361-0.449 0.361-1.516 0.361-2.993 0-3.421 0-3.699-3.667-3.699zM8.333 28.667c-2.248 0-3.935-0.236-4.861-1.387-0.805-0.999-0.805-2.361-0.805-4.247l1-0.033h-1c0-3.827 0.241-5.667 5.667-5.667s5.667 1.84 5.667 5.667c0 1.917 0 3.281-0.805 4.28-0.927 1.151-2.613 1.387-4.861 1.387z"></path>
<path fill="#61646b" style="fill: var(--color2, #61646b)" d="M23 19.333c-3.667 0-3.667 0.277-3.667 3.667v0.033c0 1.476 0 2.543 0.361 2.993 0.353 0.437 1.403 0.64 3.305 0.64s2.952-0.204 3.305-0.641c0.361-0.449 0.361-1.516 0.361-2.993 0-3.421 0-3.699-3.667-3.699zM23 28.667c-2.248 0-3.935-0.236-4.861-1.387-0.805-0.999-0.805-2.361-0.805-4.247l1-0.033h-1c0-3.827 0.241-5.667 5.667-5.667s5.667 1.84 5.667 5.667c0 1.917 0 3.281-0.805 4.28-0.927 1.151-2.613 1.387-4.861 1.387z"></path>
</symbol>
<symbol id="icon-back-arrow" viewBox="0 0 32 32">
<path fill="#9040f6" style="fill: var(--color1, #9040f6)" d="M22.934 29.601c0.458-0.458 0.5-1.175 0.125-1.68l-0.125-0.145-11.13-11.131 11.13-11.131c0.458-0.458 0.5-1.175 0.125-1.68l-0.125-0.145c-0.458-0.458-1.175-0.5-1.68-0.125l-0.145 0.125-12.043 12.043c-0.458 0.458-0.5 1.175-0.125 1.68l0.125 0.145 12.043 12.043c0.504 0.504 1.321 0.504 1.825 0z"></path>
</symbol>
<symbol id="icon-setting" viewBox="0 0 32 32">
<path fill="#61646b" style="fill: var(--color2, #61646b)" d="M9.603 23.254c0.305 0 0.611 0.039 0.909 0.119 0.901 0.243 1.684 0.845 2.148 1.655 0.301 0.508 0.468 1.101 0.473 1.707 0 0.867 0.696 1.561 1.552 1.561h1.671c0.852 0 1.548-0.691 1.552-1.543-0.005-0.941 0.363-1.836 1.036-2.509 0.664-0.664 1.592-1.063 2.52-1.036 0.608 0.015 1.193 0.179 1.709 0.472 0.743 0.425 1.691 0.172 2.12-0.561l0.885-1.476c0.197-0.34 0.255-0.767 0.149-1.16-0.104-0.393-0.365-0.735-0.717-0.936-0.824-0.475-1.412-1.24-1.656-2.157-0.241-0.9-0.109-1.883 0.361-2.692 0.307-0.533 0.756-0.983 1.295-1.292 0.723-0.423 0.976-1.368 0.556-2.104-0.017-0.029-0.033-0.060-0.047-0.092l-0.781-1.355c-0.425-0.74-1.372-0.995-2.115-0.572-0.803 0.475-1.757 0.611-2.675 0.369-0.916-0.237-1.684-0.817-2.163-1.636-0.307-0.512-0.473-1.108-0.479-1.715 0.012-0.456-0.148-0.865-0.439-1.165-0.289-0.299-0.696-0.468-1.113-0.468h-1.671c-0.413 0-0.8 0.161-1.092 0.452-0.291 0.292-0.449 0.68-0.447 1.093-0.028 1.949-1.621 3.519-3.551 3.519-0.619-0.007-1.215-0.173-1.732-0.483-0.727-0.413-1.676-0.159-2.101 0.581l-0.903 1.484c-0.413 0.717-0.16 1.665 0.576 2.093 1.092 0.632 1.773 1.811 1.773 3.075s-0.681 2.441-1.776 3.075c-0.732 0.424-0.985 1.367-0.561 2.1l0.841 1.451c0.208 0.375 0.548 0.645 0.941 0.756 0.392 0.109 0.824 0.063 1.184-0.137 0.529-0.311 1.145-0.472 1.764-0.472zM16.356 30.295h-1.671c-1.959 0-3.552-1.592-3.552-3.551-0.003-0.241-0.072-0.492-0.201-0.709-0.209-0.365-0.548-0.627-0.939-0.731-0.388-0.104-0.813-0.047-1.163 0.156-0.837 0.467-1.823 0.58-2.724 0.327-0.9-0.255-1.677-0.873-2.133-1.693l-0.833-1.436c-0.975-1.691-0.395-3.857 1.293-4.833 0.479-0.276 0.776-0.791 0.776-1.343s-0.297-1.068-0.776-1.344c-1.689-0.981-2.268-3.153-1.295-4.844l0.904-1.484c0.961-1.672 3.135-2.261 4.829-1.288 0.231 0.137 0.481 0.207 0.736 0.209 0.831 0 1.525-0.685 1.539-1.528-0.005-0.929 0.361-1.821 1.029-2.495 0.671-0.672 1.561-1.041 2.509-1.041h1.671c0.955 0 1.883 0.392 2.548 1.073 0.664 0.685 1.031 1.625 1.003 2.579 0.003 0.215 0.073 0.463 0.201 0.68 0.212 0.36 0.547 0.613 0.944 0.717 0.397 0.099 0.813 0.045 1.167-0.164 1.707-0.975 3.879-0.391 4.853 1.303l0.831 1.439c0.021 0.039 0.040 0.076 0.056 0.115 0.883 1.668 0.293 3.768-1.347 4.727-0.239 0.137-0.432 0.329-0.565 0.561-0.207 0.359-0.264 0.785-0.16 1.177 0.107 0.4 0.361 0.732 0.72 0.937 0.809 0.465 1.413 1.249 1.655 2.155 0.241 0.904 0.109 1.885-0.361 2.695l-0.885 1.475c-0.975 1.675-3.147 2.255-4.836 1.279-0.225-0.129-0.485-0.2-0.744-0.207h-0.008c-0.385 0-0.781 0.164-1.069 0.451-0.292 0.292-0.452 0.681-0.449 1.095-0.009 1.959-1.603 3.543-3.552 3.543z"></path>
<path fill="#61646b" style="fill: var(--color2, #61646b)" d="M15.527 13.966c-1.387 0-2.515 1.129-2.515 2.516s1.128 2.513 2.515 2.513c1.387 0 2.515-1.127 2.515-2.513s-1.128-2.516-2.515-2.516zM15.527 20.995c-2.489 0-4.515-2.024-4.515-4.513s2.025-4.516 4.515-4.516c2.489 0 4.515 2.027 4.515 4.516s-2.025 4.513-4.515 4.513z"></path>
</symbol>
<symbol id="icon-trashcan" viewBox="0 0 32 32">
<path fill="#61646b" style="fill: var(--color2, #61646b)" d="M16.329 29.333c-1.807 0-3.568-0.020-5.311-0.056-2.229-0.044-3.772-1.489-4.024-3.772-0.42-3.787-1.139-12.712-1.145-12.801-0.045-0.551 0.365-1.033 0.916-1.077 0.543-0.015 1.033 0.367 1.077 0.916 0.007 0.091 0.724 8.985 1.14 12.743 0.143 1.297 0.843 1.967 2.077 1.992 3.333 0.071 6.735 0.075 10.401 0.008 1.312-0.025 2.021-0.681 2.168-2.009 0.413-3.725 1.133-12.643 1.141-12.733 0.044-0.549 0.531-0.933 1.076-0.916 0.551 0.045 0.961 0.527 0.917 1.077-0.008 0.091-0.731 9.039-1.147 12.792-0.259 2.329-1.797 3.747-4.12 3.789-1.777 0.031-3.492 0.048-5.168 0.048z"></path>
<path fill="#61646b" style="fill: var(--color2, #61646b)" d="M27.611 9.319h-22.611c-0.552 0-1-0.448-1-1s0.448-1 1-1h22.611c0.552 0 1 0.448 1 1s-0.448 1-1 1z"></path>
<path fill="#61646b" style="fill: var(--color2, #61646b)" d="M23.254 9.319c-1.517 0-2.835-1.081-3.133-2.569l-0.324-1.621c-0.068-0.247-0.349-0.461-0.669-0.461h-5.644c-0.32 0-0.601 0.215-0.683 0.523l-0.311 1.56c-0.297 1.488-1.616 2.569-3.133 2.569-0.552 0-1-0.448-1-1s0.448-1 1-1c0.568 0 1.061-0.405 1.173-0.963l0.324-1.621c0.329-1.243 1.405-2.068 2.629-2.068h5.644c1.224 0 2.3 0.825 2.616 2.008l0.339 1.681c0.111 0.557 0.604 0.963 1.172 0.963 0.552 0 1 0.448 1 1s-0.448 1-1 1z"></path>
</symbol>
<symbol id="icon-sun" viewBox="0 0 32 32">
<path fill="none" stroke="#9040f6" style="stroke: var(--color1, #9040f6)" stroke-linejoin="round" stroke-linecap="round" stroke-miterlimit="4" stroke-width="1.8462" d="M16 1.231v4.308M23.385 8.615l3.077-3.077M26.462 16h4.308M26.462 26.462l-3.077-3.077M16 26.462v4.308M8.615 23.385l-3.077 3.077M5.538 16h-4.308M8.615 8.615l-3.077-3.077M23.385 16c-0.163 4.075-3.306 7.385-7.385 7.385s-7.222-3.309-7.385-7.385c-0.17-4.248 3.133-8 7.385-8s7.555 3.752 7.385 8z"></path>
</symbol>
<symbol id="icon-moon" viewBox="0 0 32 32">
<path fill="none" stroke="#9040f6" style="stroke: var(--color1, #9040f6)" stroke-linejoin="round" stroke-linecap="butt" stroke-miterlimit="4" stroke-width="2" d="M14 2.667c-2.667 11.333 4.667 18 15.333 15.333-12 22.667-37.333-4.667-15.333-15.333z"></path>
</symbol>
<symbol id="icon-heart" viewBox="0 0 32 32">
<path fill="#9040f6" style="fill: var(--color1, #9040f6)" d="M5.098 16.164c1.869 5.816 9.255 10.519 11.217 11.683 1.969-1.176 9.408-5.931 11.217-11.677 1.188-3.715 0.085-8.42-4.296-9.832-2.123-0.681-4.599-0.267-6.308 1.056-0.357 0.275-0.853 0.28-1.213 0.008-1.811-1.361-4.176-1.76-6.332-1.064-4.375 1.411-5.473 6.116-4.285 9.827zM16.317 30.001c-0.165 0-0.329-0.040-0.479-0.121-0.417-0.228-10.248-5.647-12.644-13.105-0.001 0-0.001-0.001-0.001-0.001-1.504-4.696 0.171-10.597 5.577-12.34 2.539-0.821 5.305-0.46 7.543 0.952 2.168-1.371 5.048-1.749 7.536-0.952 5.412 1.745 7.092 7.645 5.589 12.34-2.319 7.373-12.221 12.873-12.641 13.104-0.149 0.083-0.315 0.124-0.48 0.124z"></path>
<path fill="#9040f6" style="fill: var(--color1, #9040f6)" d="M24.205 14.167c-0.516 0-0.953-0.396-0.996-0.919-0.088-1.096-0.821-2.021-1.865-2.359-0.527-0.171-0.815-0.735-0.645-1.259 0.172-0.525 0.731-0.811 1.259-0.645 1.817 0.588 3.091 2.197 3.247 4.1 0.044 0.551-0.365 1.033-0.916 1.077-0.028 0.003-0.055 0.004-0.083 0.004z"></path>
</symbol>
<symbol id="icon-cross-eye" viewBox="0 0 32 32">
<path fill="#9040f6" style="fill: var(--color1, #9040f6)" d="M13.015 20.823c-0.256 0-0.512-0.097-0.707-0.293-0.984-0.983-1.527-2.289-1.527-3.679 0-2.88 2.341-5.223 5.219-5.223 1.384 0 2.728 0.559 3.687 1.533 0.387 0.395 0.383 1.027-0.012 1.413-0.393 0.389-1.025 0.383-1.413-0.009-0.585-0.596-1.409-0.937-2.261-0.937-1.775 0-3.219 1.445-3.219 3.223 0 0.855 0.335 1.66 0.94 2.265 0.391 0.391 0.391 1.023 0.001 1.413-0.196 0.196-0.452 0.293-0.708 0.293z"></path>
<path fill="#9040f6" style="fill: var(--color1, #9040f6)" d="M16.757 21.988c-0.473 0-0.895-0.339-0.983-0.821-0.099-0.543 0.261-1.064 0.805-1.163 1.307-0.237 2.341-1.275 2.576-2.583 0.099-0.543 0.619-0.9 1.161-0.807 0.544 0.097 0.905 0.617 0.808 1.161-0.383 2.124-2.065 3.809-4.188 4.196-0.060 0.011-0.121 0.016-0.18 0.016z"></path>
<path fill="#9040f6" style="fill: var(--color1, #9040f6)" d="M8.873 24.963c-0.216 0-0.433-0.071-0.617-0.213-2.255-1.771-4.16-4.367-5.507-7.505-0.109-0.253-0.109-0.539 0-0.791 1.361-3.152 3.279-5.761 5.545-7.544 4.621-3.657 10.773-3.669 15.441 0.027 0.433 0.343 0.507 0.972 0.164 1.405-0.344 0.431-0.971 0.507-1.405 0.163-3.955-3.131-9.049-3.12-12.961-0.024-1.915 1.507-3.559 3.701-4.772 6.371 1.201 2.653 2.831 4.835 4.731 6.325 0.435 0.341 0.509 0.971 0.168 1.404-0.197 0.251-0.491 0.383-0.787 0.383z"></path>
<path fill="#9040f6" style="fill: var(--color1, #9040f6)" d="M16 27.586c-1.249 0-2.492-0.203-3.692-0.601-0.524-0.175-0.808-0.741-0.633-1.265 0.175-0.525 0.739-0.804 1.265-0.633 0.996 0.332 2.025 0.5 3.060 0.5 4.571 0 8.748-3.256 11.24-8.737-0.608-1.332-1.316-2.539-2.108-3.592-0.332-0.441-0.244-1.069 0.197-1.401 0.44-0.332 1.068-0.241 1.4 0.199 0.965 1.281 1.813 2.763 2.521 4.397 0.111 0.253 0.111 0.541 0 0.793-2.795 6.476-7.748 10.341-13.251 10.341z"></path>
<path fill="#9040f6" style="fill: var(--color1, #9040f6)" d="M5.485 28.365c-0.256 0-0.512-0.097-0.707-0.293-0.391-0.391-0.391-1.023 0-1.413l21.032-21.032c0.391-0.391 1.023-0.391 1.413 0s0.391 1.024 0 1.415l-21.032 21.031c-0.195 0.196-0.451 0.293-0.707 0.293z"></path>
</symbol>
<symbol id="icon-eye" viewBox="0 0 32 32">
<path fill="#9040f6" style="fill: var(--color1, #9040f6)" d="M15.999 12.855c-1.773 0-3.215 1.443-3.215 3.216 0 1.772 1.441 3.213 3.215 3.213s3.216-1.441 3.216-3.213c0-1.773-1.443-3.216-3.216-3.216zM15.999 21.285c-2.876 0-5.215-2.339-5.215-5.213 0-2.876 2.339-5.216 5.215-5.216s5.216 2.34 5.216 5.216c0 2.875-2.34 5.213-5.216 5.213z"></path>
<path fill="#9040f6" style="fill: var(--color1, #9040f6)" d="M4.76 16.070c2.48 5.479 6.657 8.736 11.24 8.737 4.583-0.001 8.76-3.259 11.24-8.737-2.48-5.477-6.657-8.735-11.24-8.736-4.581 0.001-8.76 3.259-11.24 8.736zM16.002 26.807h-0.007c-5.515-0.004-10.467-3.869-13.248-10.343-0.108-0.252-0.108-0.537 0-0.789 2.781-6.472 7.735-10.337 13.248-10.341 0.003-0.001 0.003-0.001 0.004 0 0.003-0.001 0.003-0.001 0.004 0 5.515 0.004 10.467 3.869 13.248 10.341 0.109 0.252 0.109 0.537 0 0.789-2.78 6.473-7.733 10.339-13.248 10.343h-0.001z"></path>
</symbol>
<symbol id="icon-down-arrow" viewBox="0 0 32 32">
<path fill="#9040f6" style="fill: var(--color1, #9040f6)" d="M3.045 9.711c0.458-0.458 1.175-0.5 1.68-0.125l0.145 0.125 11.131 11.13 11.131-11.13c0.458-0.458 1.175-0.5 1.68-0.125l0.145 0.125c0.458 0.458 0.5 1.175 0.125 1.68l-0.125 0.145-12.043 12.043c-0.458 0.458-1.175 0.5-1.68 0.125l-0.145-0.125-12.043-12.043c-0.504-0.504-0.504-1.321 0-1.825z"></path>
</symbol>
<symbol id="icon-image" viewBox="0 0 32 32">
<path fill="#9040f6" style="fill: var(--color1, #9040f6)" d="M10.215 4.67c-3.368 0-5.545 2.307-5.545 5.877v10.891c0 3.571 2.176 5.877 5.545 5.877h11.557c3.376 0 5.558-2.306 5.558-5.877v-10.891c0-3.57-2.182-5.877-5.558-5.877h-11.557zM21.772 29.32h-11.557c-4.516 0-7.549-3.168-7.549-7.881v-10.891c0-4.714 3.033-7.881 7.549-7.881h11.557c4.523 0 7.562 3.168 7.562 7.881v10.891c0 4.714-3.039 7.881-7.562 7.881z"></path>
<path fill="#9040f6" style="fill: var(--color1, #9040f6)" d="M7.050 22.948c-0.248 0-0.496-0.091-0.689-0.275-0.402-0.379-0.418-1.015-0.037-1.415l2.041-2.155c1.081-1.148 2.905-1.204 4.058-0.122l1.28 1.299c0.357 0.361 0.937 0.367 1.295 0.015 0.135-0.159 3.045-3.693 3.045-3.693 0.553-0.671 1.333-1.085 2.2-1.17 0.869-0.076 1.711 0.176 2.384 0.728 0.057 0.047 0.109 0.092 3.043 3.105 0.386 0.395 0.379 1.030-0.017 1.416-0.395 0.389-1.031 0.377-1.417-0.019 0 0-2.738-2.81-2.933-2.999-0.207-0.17-0.54-0.269-0.867-0.236-0.333 0.033-0.632 0.192-0.844 0.45-3.105 3.766-3.142 3.802-3.193 3.852-1.146 1.125-2.997 1.106-4.123-0.043 0 0-1.242-1.261-1.264-1.287-0.309-0.286-0.859-0.267-1.189 0.081l-2.044 2.155c-0.198 0.208-0.462 0.313-0.727 0.313z"></path>
<path fill="#9040f6" style="fill: var(--color1, #9040f6)" d="M11.428 10.855c-0.739 0-1.34 0.601-1.34 1.341s0.601 1.343 1.341 1.343c0.74 0 1.343-0.603 1.343-1.343 0-0.739-0.603-1.34-1.344-1.341zM11.429 15.543c-1.845 0-3.345-1.502-3.345-3.347s1.5-3.345 3.345-3.345c1.846 0.001 3.347 1.503 3.347 3.345 0 1.845-1.502 3.347-3.347 3.347z"></path>
</symbol>
<symbol id="icon-edit" viewBox="0 0 32 32">
<path   d="M32 16c0 8.837-7.163 16-16 16s-16-7.163-16-16c0-8.837 7.163-16 16-16s16 7.163 16 16z"></path>
<path fill="#2f2e30" style="fill: var(--color3, #2f2e30)" d="M5.333 22.472v3.602c0 0.332 0.261 0.593 0.593 0.593h3.602c0.154 0 0.308-0.059 0.415-0.178l12.941-12.929-4.444-4.444-12.929 12.929c-0.119 0.119-0.178 0.261-0.178 0.427zM26.32 8.453l-2.773-2.773c-0.11-0.11-0.24-0.197-0.383-0.256s-0.297-0.090-0.452-0.090-0.309 0.031-0.452 0.090c-0.143 0.059-0.274 0.147-0.383 0.256l-2.169 2.169 4.444 4.444 2.169-2.169c0.11-0.11 0.197-0.24 0.256-0.383s0.090-0.297 0.090-0.452c0-0.155-0.031-0.309-0.090-0.452s-0.147-0.274-0.256-0.383z"></path>
</symbol>
<symbol id="icon-profile" viewBox="0 0 32 32">
<path fill="#61646b" style="fill: var(--color2, #61646b)" d="M15.895 21.328c-5.681 0-8.561 0.976-8.561 2.903 0 1.944 2.88 2.929 8.561 2.929 5.68 0 8.559-0.976 8.559-2.903 0-1.944-2.879-2.929-8.559-2.929zM15.895 29.16c-2.612 0-10.561 0-10.561-4.929 0-4.395 6.028-4.903 10.561-4.903 2.612 0 10.559 0 10.559 4.929 0 4.395-6.027 4.903-10.559 4.903z"></path>
<path fill="#61646b" style="fill: var(--color2, #61646b)" d="M15.895 4.57c-2.855 0-5.177 2.321-5.177 5.176-0.009 2.845 2.296 5.165 5.139 5.176l0.039 0.952v-0.952c2.853 0 5.175-2.323 5.175-5.176 0-2.855-2.321-5.176-5.175-5.176zM15.895 16.825h-0.043c-3.896-0.012-7.052-3.189-7.039-7.083 0-3.9 3.176-7.076 7.081-7.076 3.904 0 7.079 3.176 7.079 7.080s-3.175 7.079-7.079 7.079z"></path>
</symbol>
<symbol id="icon-close-btn" viewBox="0 0 32 32">
<path fill="#9040f6" style="fill: var(--color1, #9040f6)" d="M13.267 20.656c-0.256 0-0.512-0.097-0.707-0.293-0.391-0.391-0.391-1.023 0-1.413l6.389-6.389c0.391-0.391 1.023-0.391 1.413 0s0.391 1.023 0 1.413l-6.389 6.389c-0.195 0.196-0.451 0.293-0.707 0.293z"></path>
<path fill="#9040f6" style="fill: var(--color1, #9040f6)" d="M19.661 20.662c-0.256 0-0.512-0.097-0.707-0.293l-6.395-6.396c-0.391-0.391-0.391-1.023 0-1.413 0.392-0.391 1.024-0.391 1.413 0l6.395 6.396c0.391 0.391 0.391 1.023 0 1.413-0.195 0.196-0.452 0.293-0.707 0.293z"></path>
<path fill="#9040f6" style="fill: var(--color1, #9040f6)" d="M10.22 4.667c-3.373 0-5.553 2.311-5.553 5.888v10.891c0 3.577 2.18 5.888 5.553 5.888h11.557c3.375 0 5.556-2.311 5.556-5.888v-10.891c0-3.577-2.181-5.888-5.555-5.888h-11.559zM21.777 29.333h-11.557c-4.519 0-7.553-3.171-7.553-7.888v-10.891c0-4.717 3.035-7.888 7.553-7.888h11.559c4.519 0 7.555 3.171 7.555 7.888v10.891c0 4.717-3.036 7.888-7.556 7.888z"></path>
</symbol>
<symbol id="icon-search" viewBox="0 0 32 32">
<path fill="#61646b" style="fill: var(--color2, #61646b)" d="M15.652 4.667c-6.057 0-10.985 4.927-10.985 10.984s4.928 10.985 10.985 10.985c6.056 0 10.984-4.928 10.984-10.985s-4.928-10.984-10.984-10.984zM15.652 28.636c-7.16 0-12.985-5.825-12.985-12.985s5.825-12.984 12.985-12.984c7.16 0 12.984 5.824 12.984 12.984s-5.824 12.985-12.984 12.985z"></path>
<path fill="#61646b" style="fill: var(--color2, #61646b)" d="M28.685 30.296c-0.255 0-0.511-0.097-0.707-0.292l-4.699-4.685c-0.391-0.391-0.392-1.024-0.001-1.415 0.389-0.393 1.023-0.391 1.415-0.003l4.699 4.687c0.391 0.391 0.392 1.023 0.001 1.413-0.195 0.197-0.452 0.295-0.708 0.295z"></path>
</symbol>
<symbol id="icon-github" viewBox="0 0 32 32">
<path stroke-linejoin="round" stroke-linecap="butt" stroke-miterlimit="4" stroke-width="1.3333" d="M20.239 24.127c0.566-0.115 1.101-0.271 1.651-0.507 0.916-0.393 1.836-0.993 3-1.937 0.036-0.029 0.068-0.061 0.097-0.097 0.621-0.764 1.040-1.419 1.331-2.134 0.289-0.712 0.438-1.448 0.56-2.346 0.004-0.030 0.006-0.060 0.006-0.090v-2.767c0-0.054-0.007-0.107-0.019-0.16-0.212-0.859-0.432-1.484-0.716-2.038-0.239-0.467-0.515-0.866-0.837-1.293 0.117-0.661 0.206-1.261 0.19-1.895-0.019-0.74-0.179-1.494-0.543-2.458-0.1-0.264-0.355-0.437-0.637-0.431-0.645 0.013-1.151 0.068-1.629 0.197s-0.895 0.323-1.363 0.574c-0.009 0.005-0.019 0.010-0.028 0.016l-1.385 0.832c-1.462-0.319-2.664-0.487-3.888-0.488-1.222-0.001-2.439 0.164-3.933 0.485l-1.245-0.815c-0.036-0.024-0.074-0.044-0.114-0.060-1.039-0.422-1.685-0.593-3.002-0.737-0.283-0.031-0.555 0.122-0.676 0.38-0.388 0.828-0.584 1.524-0.614 2.248-0.025 0.611 0.070 1.209 0.223 1.873-0.426 0.517-0.75 1-0.993 1.54-0.284 0.63-0.441 1.301-0.555 2.141-0.004 0.030-0.006 0.059-0.006 0.089v2.767c0 0.043 0.004 0.086 0.013 0.129 0.168 0.853 0.359 1.548 0.671 2.244 0.311 0.693 0.731 1.361 1.329 2.173 0.027 0.036 0.057 0.069 0.090 0.099 0.926 0.838 1.731 1.415 2.637 1.827 0.655 0.298 1.342 0.5 2.136 0.66-0.214 0.423-0.361 0.826-0.468 1.33-0.47 0.124-0.805 0.182-1.080 0.194-0.288 0.013-0.532-0.024-0.824-0.115-0.716-0.631-1.268-1.145-1.74-1.585-0.131-0.122-0.255-0.238-0.375-0.349-0.571-0.529-1.053-0.957-1.607-1.343-0.032-0.022-0.066-0.042-0.101-0.058-0.208-0.096-0.404-0.183-0.579-0.248-0.166-0.062-0.362-0.123-0.558-0.136-0.206-0.014-0.506 0.022-0.744 0.267-0.215 0.221-0.263 0.498-0.274 0.679-0.001 0.013-0.001 0.027-0.001 0.040-0.001 0.275 0.091 0.521 0.202 0.725s0.261 0.405 0.426 0.599c0.287 0.339 0.683 0.733 1.133 1.181 0.033 0.033 0.066 0.065 0.099 0.099 0.353 0.756 0.699 1.369 1.168 1.89 0.499 0.554 1.103 0.966 1.918 1.364 0.091 0.045 0.191 0.068 0.292 0.068h2.426v2.313c-0.026 0.133-0.045 0.213-0.065 0.27-0.016 0.001-0.037 0.002-0.063 0.002-0.124-0.001-0.318-0.027-0.616-0.101-5.773-2.259-9.889-8.014-9.889-14.771 0-8.742 6.883-15.795 15.333-15.795s15.333 7.054 15.333 15.795c0 6.608-3.937 12.259-9.512 14.617-0.341 0.105-0.595 0.166-0.783 0.192-0.156 0.022-0.238 0.015-0.273 0.009-0.015-0.031-0.040-0.095-0.064-0.217v-4.775c0.008-0.655-0.042-1.218-0.252-1.74-0.059-0.148-0.129-0.287-0.21-0.42z"></path>
</symbol>
<symbol id="icon-circles" viewBox="0 0 32 32">
<path stroke-linejoin="miter" stroke-linecap="butt" stroke-miterlimit="4" stroke-width="1.5238" d="M31.238 3.048c0 1.262-1.023 2.286-2.286 2.286s-2.286-1.023-2.286-2.286c0-1.262 1.023-2.286 2.286-2.286s2.286 1.023 2.286 2.286z"></path>
<path stroke-linejoin="round" stroke-linecap="round" stroke-miterlimit="4" stroke-width="1.5238" d="M13.714 30.476c3.233 0 6.334-1.284 8.62-3.57s3.57-5.387 3.57-8.62c0-3.233-1.284-6.334-3.57-8.62s-5.387-3.571-8.62-3.571c-3.233 0-6.334 1.284-8.62 3.571s-3.571 5.387-3.571 8.62c0 3.233 1.284 6.334 3.571 8.62s5.387 3.57 8.62 3.57z"></path>
</symbol>
<symbol id="icon-telegram" viewBox="0 0 40 32">
<path stroke-linejoin="round" stroke-linecap="round" stroke-miterlimit="4" stroke-width="2" d="M38.5 1l-36 14.25 13.263 1.9M38.5 1l-4.737 28.5-18-12.35M38.5 1l-22.737 16.15M15.763 17.15v10.45l6.156-6.226"></path>
</symbol>
<symbol id="icon-cross" viewBox="0 0 32 32">
<path d="M26.297 0.224l2.92-0.224-11.131 13.916 13.913 18.084h-7.499l-9.892-12.225-10.218 12.225h-3.731l11.965-14.399-12.625-17.376 8.348-0.001 8.348 11.495 9.601-11.495zM24.501 28.775h2.837l-20.381-25.845h-2.783l20.327 25.845z"></path>
</symbol>
<symbol id="icon-facebook" viewBox="0 0 20 32">
<path stroke-linejoin="round" stroke-linecap="round" stroke-miterlimit="4" stroke-width="1.3333" d="M18.667 1.333h-4.727c-2.090 0-4.094 0.773-5.571 2.148s-2.308 3.241-2.308 5.185v4.4h-4.727v5.867h4.727v11.733h6.303v-11.733h4.727l1.576-5.867h-6.303v-4.4c0-0.389 0.166-0.762 0.462-1.037s0.696-0.43 1.114-0.43h4.727v-5.867z"></path>
</symbol>
<symbol id="icon-instagram" viewBox="0 0 32 32">
<path d="M16 2.881c4.275 0 4.781 0.019 6.462 0.094 1.563 0.069 2.406 0.331 2.969 0.55 0.744 0.288 1.281 0.638 1.837 1.194 0.563 0.563 0.906 1.094 1.2 1.838 0.219 0.563 0.481 1.412 0.55 2.969 0.075 1.688 0.094 2.194 0.094 6.463s-0.019 4.781-0.094 6.463c-0.069 1.563-0.331 2.406-0.55 2.969-0.288 0.744-0.637 1.281-1.194 1.837-0.563 0.563-1.094 0.906-1.837 1.2-0.563 0.219-1.413 0.481-2.969 0.55-1.688 0.075-2.194 0.094-6.463 0.094s-4.781-0.019-6.463-0.094c-1.563-0.069-2.406-0.331-2.969-0.55-0.744-0.288-1.281-0.637-1.838-1.194-0.563-0.563-0.906-1.094-1.2-1.837-0.219-0.563-0.481-1.413-0.55-2.969-0.075-1.688-0.094-2.194-0.094-6.463s0.019-4.781 0.094-6.463c0.069-1.563 0.331-2.406 0.55-2.969 0.288-0.744 0.638-1.281 1.194-1.838 0.563-0.563 1.094-0.906 1.838-1.2 0.563-0.219 1.412-0.481 2.969-0.55 1.681-0.075 2.188-0.094 6.463-0.094zM16 0c-4.344 0-4.887 0.019-6.594 0.094-1.7 0.075-2.869 0.35-3.881 0.744-1.056 0.412-1.95 0.956-2.837 1.85-0.894 0.888-1.438 1.781-1.85 2.831-0.394 1.019-0.669 2.181-0.744 3.881-0.075 1.713-0.094 2.256-0.094 6.6s0.019 4.887 0.094 6.594c0.075 1.7 0.35 2.869 0.744 3.881 0.413 1.056 0.956 1.95 1.85 2.837 0.887 0.887 1.781 1.438 2.831 1.844 1.019 0.394 2.181 0.669 3.881 0.744 1.706 0.075 2.25 0.094 6.594 0.094s4.888-0.019 6.594-0.094c1.7-0.075 2.869-0.35 3.881-0.744 1.050-0.406 1.944-0.956 2.831-1.844s1.438-1.781 1.844-2.831c0.394-1.019 0.669-2.181 0.744-3.881 0.075-1.706 0.094-2.25 0.094-6.594s-0.019-4.887-0.094-6.594c-0.075-1.7-0.35-2.869-0.744-3.881-0.394-1.063-0.938-1.956-1.831-2.844-0.887-0.887-1.781-1.438-2.831-1.844-1.019-0.394-2.181-0.669-3.881-0.744-1.712-0.081-2.256-0.1-6.6-0.1v0z"></path>
<path d="M16 7.781c-4.537 0-8.219 3.681-8.219 8.219s3.681 8.219 8.219 8.219 8.219-3.681 8.219-8.219c0-4.537-3.681-8.219-8.219-8.219zM16 21.331c-2.944 0-5.331-2.387-5.331-5.331s2.387-5.331 5.331-5.331c2.944 0 5.331 2.387 5.331 5.331s-2.387 5.331-5.331 5.331z"></path>
<path d="M26.462 7.456c0 1.060-0.859 1.919-1.919 1.919s-1.919-0.859-1.919-1.919c0-1.060 0.859-1.919 1.919-1.919s1.919 0.859 1.919 1.919z"></path>
</symbol>
<symbol id="icon-youtube" viewBox="0 0 32 32">
<path d="M31.681 9.6c0 0-0.313-2.206-1.275-3.175-1.219-1.275-2.581-1.281-3.206-1.356-4.475-0.325-11.194-0.325-11.194-0.325h-0.012c0 0-6.719 0-11.194 0.325-0.625 0.075-1.987 0.081-3.206 1.356-0.963 0.969-1.269 3.175-1.269 3.175s-0.319 2.588-0.319 5.181v2.425c0 2.587 0.319 5.181 0.319 5.181s0.313 2.206 1.269 3.175c1.219 1.275 2.819 1.231 3.531 1.369 2.563 0.244 10.881 0.319 10.881 0.319s6.725-0.012 11.2-0.331c0.625-0.075 1.988-0.081 3.206-1.356 0.962-0.969 1.275-3.175 1.275-3.175s0.319-2.587 0.319-5.181v-2.425c-0.006-2.588-0.325-5.181-0.325-5.181zM12.694 20.15v-8.994l8.644 4.513-8.644 4.481z"></path>
</symbol>
<symbol id="icon-settings-mob-modal" viewBox="0 0 32 32">
<path fill="none" stroke="#61646b" style="stroke: var(--color1, #61646b)" stroke-linejoin="miter" stroke-linecap="butt" stroke-miterlimit="4" stroke-width="0.7273" d="M8.727 0.364h14.545c4.619 0 8.364 3.745 8.364 8.364v14.545c0 4.619-3.745 8.364-8.364 8.364h-14.545c-4.619 0-8.364-3.745-8.364-8.364v-14.545c0-4.619 3.745-8.364 8.364-8.364z"></path>
<path fill="#61646b" style="fill: var(--color1, #61646b)" d="M11.818 9.818c-2 0-2 0.151-2 2v0.018c0 0.805 0 1.387 0.197 1.633 0.193 0.239 0.765 0.349 1.803 0.349s1.61-0.111 1.803-0.35c0.197-0.245 0.197-0.827 0.197-1.633 0-1.866 0-2.017-2-2.017zM11.818 14.909c-1.226 0-2.146-0.129-2.652-0.756-0.439-0.545-0.439-1.288-0.439-2.316l0.545-0.018h-0.545c0-2.087 0.132-3.091 3.091-3.091s3.091 1.004 3.091 3.091c0 1.046 0 1.79-0.439 2.335-0.505 0.628-1.425 0.756-2.652 0.756z"></path>
<path fill="#61646b" style="fill: var(--color1, #61646b)" d="M19.818 9.818c-2 0-2 0.151-2 2v0.018c0 0.805 0 1.387 0.197 1.633 0.193 0.239 0.765 0.349 1.803 0.349s1.61-0.111 1.803-0.35c0.197-0.245 0.197-0.827 0.197-1.633 0-1.866 0-2.017-2-2.017zM19.818 14.909c-1.226 0-2.146-0.129-2.652-0.756-0.439-0.545-0.439-1.288-0.439-2.316l0.545-0.018h-0.545c0-2.087 0.132-3.091 3.091-3.091s3.091 1.004 3.091 3.091c0 1.046 0 1.79-0.439 2.335-0.505 0.628-1.425 0.756-2.652 0.756z"></path>
<path fill="#61646b" style="fill: var(--color1, #61646b)" d="M11.818 17.818c-2 0-2 0.151-2 2v0.018c0 0.805 0 1.387 0.197 1.633 0.193 0.239 0.765 0.349 1.803 0.349s1.61-0.111 1.803-0.35c0.197-0.245 0.197-0.827 0.197-1.633 0-1.866 0-2.017-2-2.017zM11.818 22.909c-1.226 0-2.146-0.129-2.652-0.756-0.439-0.545-0.439-1.288-0.439-2.316l0.545-0.018h-0.545c0-2.087 0.132-3.091 3.091-3.091s3.091 1.004 3.091 3.091c0 1.046 0 1.79-0.439 2.335-0.505 0.628-1.425 0.756-2.652 0.756z"></path>
<path fill="#61646b" style="fill: var(--color1, #61646b)" d="M19.818 17.818c-2 0-2 0.151-2 2v0.018c0 0.805 0 1.387 0.197 1.633 0.193 0.239 0.765 0.349 1.803 0.349s1.61-0.111 1.803-0.35c0.197-0.245 0.197-0.827 0.197-1.633 0-1.866 0-2.017-2-2.017zM19.818 22.909c-1.226 0-2.146-0.129-2.652-0.756-0.439-0.545-0.439-1.288-0.439-2.316l0.545-0.018h-0.545c0-2.087 0.132-3.091 3.091-3.091s3.091 1.004 3.091 3.091c0 1.046 0 1.79-0.439 2.335-0.505 0.628-1.425 0.756-2.652 0.756z"></path>
</symbol>
<symbol id="icon-google" viewBox="0 0 32 32">
<path fill="#e33629" style="fill: var(--color1, #e33629)" d="M11.148 1.053c3.457-1.187 7.216-1.154 10.652 0.092 1.887 0.706 3.616 1.779 5.087 3.155-0.5 0.535-1.027 1.035-1.537 1.555-0.97 0.969-1.939 1.934-2.908 2.895-0.966-0.923-2.133-1.608-3.41-2-1.634-0.494-3.372-0.527-5.024-0.098s-3.154 1.306-4.341 2.533c-1.036 1.054-1.82 2.328-2.295 3.728l-5.182-4.013c1.855-3.678 5.067-6.492 8.958-7.847z"></path>
<path fill="#f8bd00" style="fill: var(--color2, #f8bd00)" d="M0.815 12.875c0.279-1.381 0.741-2.718 1.375-3.975l5.182 4.023c-0.678 1.996-0.678 4.161 0 6.157-1.727 1.333-3.454 2.674-5.182 4.020-1.587-3.159-2.071-6.758-1.375-10.225z"></path>
<path fill="#587dbd" style="fill: var(--color3, #587dbd)" d="M16.318 13.038h14.88c0.509 2.792 0.371 5.664-0.402 8.395-0.712 2.511-2.094 4.781-4 6.565-1.673-1.305-3.352-2.6-5.025-3.906 0.829-0.559 1.536-1.28 2.081-2.119s0.913-1.78 1.084-2.766h-8.617c-0.003-2.055 0-4.113 0-6.17z"></path>
<path fill="#319f43" style="fill: var(--color4, #319f43)" d="M2.188 23.1c1.728-1.333 3.456-2.674 5.182-4.020 0.668 1.96 1.939 3.66 3.63 4.855 1.055 0.746 2.254 1.264 3.52 1.52 1.247 0.232 2.527 0.232 3.775 0 1.244-0.21 2.43-0.678 3.482-1.375 1.673 1.305 3.353 2.6 5.025 3.905-1.831 1.664-4.062 2.825-6.475 3.368-2.664 0.626-5.44 0.596-8.090-0.088-2.096-0.559-4.053-1.546-5.75-2.897-1.796-1.426-3.262-3.223-4.3-5.268z"></path>
</symbol>
<symbol id="icon-auth-github" viewBox="0 0 32 32">
<path fill="#fbf8ff" style="fill: var(--color5, #fbf8ff)" d="M32 16c0 8.837-7.163 16-16 16s-16-7.163-16-16c0-8.837 7.163-16 16-16s16 7.163 16 16z"></path>
<path fill="#2f2e30" style="fill: var(--color6, #2f2e30)" d="M0 16c0-8.837 7.163-16 16-16s16 7.163 16 16c0 6.695-4.113 12.43-9.95 14.816-1.487 0.451-1.865 0.266-2.016-0.564v-4.706c0.016-1.217-0.2-1.787-1.076-2.555 2.049-0.25 3.232-0.621 5.513-2.42 1.19-1.423 1.508-2.326 1.748-4.034v-2.689c-0.408-1.609-0.82-2.223-1.614-3.227 0.286-1.529 0.421-2.392-0.269-4.168-1.227 0.023-1.792 0.204-2.689 0.673l-1.613 0.941c-3.113-0.683-4.874-0.689-8.068 0l-1.479-0.941c-0.979-0.387-1.566-0.539-2.824-0.673-0.725 1.505-0.658 2.362-0.269 3.899-1.031 1.158-1.396 1.929-1.614 3.496v2.689c0.325 1.604 0.715 2.492 1.883 4.034 1.792 1.576 2.99 2.062 5.378 2.42-0.555 0.861-0.79 1.357-0.941 2.286-1.402 0.399-2.007 0.411-2.824 0.134-1.952-1.665-2.738-2.531-3.765-3.227-0.82-0.368-1.179-0.469-1.21 0-0.002 0.484 0.671 1.106 1.747 2.151 0.725 1.532 1.291 2.231 2.824 2.958h3.092v2.958c-0.137 0.695-0.243 1.060-1.613 0.723-6.050-2.283-10.353-8.126-10.353-14.975z"></path>
</symbol>
<symbol id="icon-auth-facebook" viewBox="0 0 32 32">
<path fill="#1877f2" style="fill: var(--color7, #1877f2)" d="M32 16c0-8.837-7.163-16-16-16s-16 7.163-16 16c0 7.986 5.851 14.605 13.5 15.805v-11.18h-4.063v-4.625h4.063v-3.525c0-4.010 2.389-6.225 6.044-6.225 1.751 0 3.581 0.313 3.581 0.313v3.938h-2.018c-1.988 0-2.607 1.233-2.607 2.499v3.001h4.437l-0.71 4.625h-3.728v11.18c7.649-1.2 13.5-7.819 13.5-15.805z"></path>
</symbol>

<symbol id="icon-Logo" viewBox="0 0 58 32">
<path fill="#2f2e30" style="fill: var(--color1, #2f2e30)" d="M1.424 17.125c-0.949 0-1.424-0.472-1.424-1.417v-13.979c0-0.945 0.491-1.417 1.474-1.417h8.918c0.999 0 1.499 0.432 1.499 1.297 0 0.849-0.5 1.273-1.499 1.273h-7.519v4.371h6.77c0.466 0 0.824 0.112 1.074 0.336 0.266 0.224 0.4 0.544 0.4 0.961 0 0.865-0.491 1.297-1.474 1.297h-6.77v5.86c0 0.945-0.483 1.417-1.449 1.417z"></path>
<path fill="#2f2e30" style="fill: var(--color1, #2f2e30)" d="M14.449 17.125c-0.933 0-1.399-0.472-1.399-1.417v-8.719c0-0.945 0.466-1.417 1.399-1.417s1.399 0.472 1.399 1.417v8.719c0 0.945-0.466 1.417-1.399 1.417z"></path>
<path fill="#2f2e30" style="fill: var(--color1, #2f2e30)" d="M20.662 17.125c-0.949 0-1.424-0.472-1.424-1.417v-14.291c0-0.945 0.475-1.417 1.424-1.417 0.933 0 1.399 0.472 1.399 1.417v14.291c0 0.945-0.466 1.417-1.399 1.417z"></path>
<path fill="#2f2e30" style="fill: var(--color1, #2f2e30)" d="M26.468 17.125c-0.949 0-1.424-0.472-1.424-1.417v-8.719c0-0.945 0.425-1.417 1.274-1.417 0.833 0 1.274 0.208 1.324 0.624l0.1 0.769c0.233-0.48 0.625-0.881 1.174-1.201s1.182-0.48 1.899-0.48c0.783 0 1.466 0.176 2.048 0.528s1.033 0.857 1.349 1.513c0.316-0.592 0.774-1.081 1.374-1.465 0.616-0.384 1.316-0.576 2.098-0.576 1.182 0 2.132 0.4 2.848 1.201 0.733 0.785 1.099 1.897 1.099 3.339v5.884c0 0.945-0.466 1.417-1.399 1.417-0.966 0-1.449-0.472-1.449-1.417v-5.26c0-0.849-0.158-1.513-0.475-1.993s-0.758-0.721-1.324-0.721c-0.716 0-1.274 0.248-1.674 0.745-0.383 0.496-0.575 1.201-0.575 2.114v5.116c0 0.945-0.466 1.417-1.399 1.417-0.949 0-1.424-0.472-1.424-1.417v-5.26c0-0.849-0.167-1.513-0.5-1.993s-0.783-0.721-1.349-0.721c-0.7 0-1.241 0.256-1.624 0.769-0.383 0.496-0.575 1.193-0.575 2.090v5.116c0 0.945-0.466 1.417-1.399 1.417z"></path>
<path fill="#2f2e30" style="fill: var(--color1, #2f2e30)" d="M16.667 32c-1.182 0-2.090-0.208-2.723-0.625-0.616-0.416-0.924-1.249-0.924-2.498v-6.365l-11.434 0.144c-0.983 0-1.474-0.392-1.474-1.177 0-0.368 0.1-0.648 0.3-0.841 0.217-0.208 0.6-0.312 1.149-0.312l11.459-0.144v-11.849c0-0.945 0.475-1.417 1.424-1.417 0.916 0 1.374 0.472 1.374 1.417v11.849h1.849c0.983 0 1.474 0.384 1.474 1.153 0 0.785-0.483 1.177-1.449 1.177h-1.874v5.668c0 0.544 0.133 0.913 0.4 1.105 0.283 0.192 0.683 0.288 1.199 0.288 0.533 0 0.949 0.064 1.249 0.192 0.316 0.112 0.475 0.416 0.475 0.913 0 0.4-0.125 0.697-0.375 0.889-0.233 0.176-0.541 0.288-0.924 0.336-0.366 0.064-0.758 0.096-1.174 0.096z"></path>
<path fill="#2f2e30" style="fill: var(--color1, #2f2e30)" d="M25.355 32c-1.749 0-3.164-0.504-4.247-1.513-1.083-1.025-1.624-2.538-1.624-4.539 0-1.249 0.241-2.322 0.724-3.218 0.483-0.913 1.157-1.609 2.023-2.090 0.866-0.496 1.857-0.745 2.973-0.745s2.065 0.248 2.848 0.745c0.783 0.496 1.382 1.137 1.799 1.921s0.625 1.601 0.625 2.45c0 0.592-0.125 0.985-0.375 1.177-0.25 0.176-0.616 0.264-1.099 0.264h-6.745c0.067 1.153 0.383 1.978 0.949 2.474 0.566 0.48 1.299 0.721 2.198 0.721 1.016 0 1.807-0.336 2.373-1.009 0.333-0.336 0.641-0.552 0.924-0.648 0.3-0.112 0.616-0.056 0.949 0.168s0.525 0.512 0.575 0.865c0.050 0.352-0.1 0.721-0.45 1.105-0.566 0.657-1.216 1.137-1.948 1.441-0.733 0.288-1.557 0.432-2.473 0.432zM22.382 24.362h5.321c-0.133-0.753-0.425-1.329-0.874-1.729-0.433-0.416-0.991-0.625-1.674-0.625-0.733 0-1.341 0.192-1.824 0.576-0.466 0.384-0.783 0.977-0.949 1.777z"></path>
<path fill="#2f2e30" style="fill: var(--color1, #2f2e30)" d="M33.286 31.736c-0.933 0-1.399-0.44-1.399-1.321v-14.483c0-0.881 0.466-1.321 1.399-1.321h0.050c0.916 0 1.374 0.44 1.374 1.321v9.031l3.497-4.011c0.266-0.32 0.55-0.552 0.849-0.697 0.316-0.144 0.608-0.216 0.874-0.216 0.333 0 0.608 0.096 0.824 0.288 0.233 0.176 0.35 0.416 0.35 0.721 0.017 0.304-0.133 0.648-0.45 1.033l-3.098 3.314 3.772 4.732c0.333 0.448 0.383 0.849 0.15 1.201-0.217 0.352-0.566 0.528-1.049 0.528-0.45 0-0.791-0.056-1.024-0.168s-0.441-0.28-0.624-0.504l-4.072-5.308v4.539c0 0.881-0.458 1.321-1.374 1.321h-0.050z"></path>
<path fill="#2f2e30" style="fill: var(--color1, #2f2e30)" d="M46.759 31.904c-1.299 0.048-2.373-0.224-3.223-0.817-0.833-0.592-1.249-1.449-1.249-2.57 0-0.817 0.258-1.513 0.774-2.090s1.182-1.025 1.999-1.345c0.816-0.336 1.657-0.512 2.523-0.528 0.433-0.032 0.841 0 1.224 0.096s0.724 0.232 1.024 0.408v-1.009c0-0.753-0.167-1.241-0.5-1.465s-0.824-0.336-1.474-0.336c-0.466 0-0.958 0.056-1.474 0.168-0.5 0.112-0.991 0.264-1.474 0.456-0.433 0.176-0.808 0.24-1.124 0.192-0.3-0.048-0.55-0.24-0.749-0.576s-0.25-0.657-0.15-0.961c0.117-0.32 0.4-0.568 0.849-0.744 0.6-0.272 1.249-0.488 1.949-0.648 0.716-0.16 1.441-0.24 2.173-0.24 1.549 0 2.715 0.304 3.497 0.913 0.783 0.592 1.174 1.673 1.174 3.242v5.308c0 0.16 0.017 0.288 0.050 0.384 0.050 0.096 0.092 0.168 0.125 0.216 0.15 0.208 0.308 0.328 0.475 0.36 0.183 0.032 0.341 0.056 0.475 0.072 0.133 0 0.2 0.072 0.2 0.216 0 0.288-0.083 0.536-0.25 0.745-0.15 0.208-0.408 0.352-0.774 0.432-0.383 0.080-0.758 0.12-1.124 0.12-0.516 0-0.916-0.080-1.199-0.24-0.266-0.176-0.458-0.464-0.575-0.865-0.416 0.336-0.899 0.6-1.449 0.793-0.55 0.176-1.124 0.28-1.724 0.312zM46.709 29.55c0.933-0.032 1.699-0.208 2.298-0.528 0.616-0.32 0.908-0.777 0.874-1.369-0.017-0.384-0.225-0.648-0.624-0.793-0.383-0.144-0.866-0.2-1.449-0.168-0.816 0.016-1.491 0.216-2.023 0.6-0.533 0.368-0.791 0.785-0.774 1.249 0.033 0.721 0.6 1.057 1.699 1.009z"></path>
<path fill="none" stroke="#2f2e30" style="stroke: var(--color1, #2f2e30)" stroke-linejoin="miter" stroke-linecap="butt" stroke-miterlimit="4" stroke-width="2.9091" d="M56.727 9.619c0 3.289-2.79 6.051-6.352 6.051s-6.352-2.763-6.352-6.051c0-3.289 2.79-6.051 6.352-6.051s6.352 2.763 6.352 6.051z"></path>
<path fill="#9040f6" style="fill: var(--color2, #9040f6); stroke: var(--color2, #9040f6)" stroke="#9040f6" stroke-linejoin="miter" stroke-linecap="butt" stroke-miterlimit="4" stroke-width="1.4545" d="M48.814 6.917l4.372 2.702-4.372 2.702v-5.404z"></path>
<path fill="#9040f6" style="fill: var(--color2, #9040f6)" d="M16.338 2.113c0 0.995-0.839 1.801-1.874 1.801s-1.874-0.806-1.874-1.801c0-0.995 0.839-1.801 1.874-1.801s1.874 0.806 1.874 1.801z"></path>
</symbol>

<symbol id="icon-login" viewBox="0 0 32 32">
<path fill="none" stroke="#61646b" style="stroke: var(--color1, #61646b)" stroke-linejoin="miter" stroke-linecap="butt" stroke-miterlimit="4" stroke-width="0.7273" d="M5.818 0.364h20.364c3.012 0 5.455 2.442 5.455 5.455v20.364c0 3.012-2.442 5.455-5.455 5.455h-20.364c-3.012 0-5.455-2.442-5.455-5.455v-20.364c0-3.012 2.442-5.455 5.455-5.455z"></path>
<path fill="#61646b" style="fill: var(--color1, #61646b)" d="M19.355 16.7h-11.374c-0.391 0-0.708-0.317-0.708-0.708s0.317-0.709 0.708-0.709h11.374c0.391 0 0.708 0.317 0.708 0.709s-0.317 0.708-0.708 0.708z"></path>
<path fill="#61646b" style="fill: var(--color1, #61646b)" d="M16.59 19.454c-0.181 0-0.364-0.069-0.502-0.209-0.277-0.278-0.275-0.725 0.002-1.001l2.261-2.252-2.261-2.253c-0.277-0.276-0.279-0.724-0.002-1.001s0.725-0.278 1.001-0.002l2.767 2.754c0.134 0.132 0.209 0.314 0.209 0.502s-0.075 0.369-0.209 0.502l-2.767 2.754c-0.138 0.138-0.319 0.207-0.5 0.207z"></path>
<path fill="#61646b" style="fill: var(--color1, #61646b)" d="M20.537 25.438h-4.614c-2.304 0-4.179-1.875-4.179-4.18v-0.89c0-0.391 0.317-0.709 0.708-0.709s0.708 0.317 0.708 0.709v0.89c0 1.523 1.239 2.763 2.762 2.763h4.614c1.529 0 2.773-1.243 2.773-2.773v-10.522c0-1.523-1.24-2.763-2.763-2.763h-4.614c-1.528 0-2.772 1.243-2.772 2.771v0.881c0 0.391-0.317 0.708-0.708 0.708s-0.708-0.317-0.708-0.708v-0.881c0-2.31 1.88-4.188 4.189-4.188h4.614c2.304 0 4.18 1.875 4.18 4.18v10.522c0 2.31-1.881 4.19-4.19 4.19z"></path>
</symbol>

<symbol id="icon-githubf" viewBox="0 0 32 32">
<path stroke-linejoin="miter" stroke-linecap="butt" stroke-miterlimit="4" stroke-width="0.8889" d="M7.111 0.444h17.778c3.682 0 6.667 2.985 6.667 6.667v17.778c0 3.682-2.985 6.667-6.667 6.667h-17.778c-3.682 0-6.667-2.985-6.667-6.667v-17.778c0-3.682 2.985-6.667 6.667-6.667z"></path>
<path stroke-linejoin="round" stroke-linecap="butt" stroke-miterlimit="4" stroke-width="0.8889" d="M18.826 21.418c0.377-0.077 0.734-0.18 1.101-0.338 0.611-0.262 1.224-0.662 2-1.292 0.024-0.019 0.046-0.041 0.065-0.065 0.414-0.509 0.693-0.946 0.887-1.423 0.193-0.474 0.292-0.965 0.374-1.564 0.003-0.020 0.004-0.040 0.004-0.060v-1.844c0-0.036-0.004-0.072-0.013-0.106-0.141-0.573-0.288-0.989-0.477-1.358-0.159-0.311-0.343-0.577-0.558-0.862 0.078-0.441 0.137-0.841 0.126-1.264-0.013-0.493-0.119-0.996-0.362-1.639-0.066-0.176-0.236-0.291-0.424-0.287-0.43 0.008-0.768 0.045-1.086 0.131s-0.597 0.215-0.908 0.383c-0.006 0.003-0.012 0.007-0.018 0.011l-0.924 0.554c-0.975-0.213-1.776-0.325-2.592-0.325-0.814-0.001-1.626 0.11-2.622 0.323l-0.83-0.543c-0.024-0.016-0.050-0.029-0.076-0.040-0.692-0.281-1.124-0.395-2.001-0.491-0.189-0.021-0.37 0.081-0.451 0.253-0.258 0.552-0.389 1.016-0.409 1.499-0.017 0.407 0.047 0.806 0.148 1.249-0.284 0.345-0.5 0.666-0.662 1.026-0.189 0.42-0.294 0.868-0.37 1.427-0.003 0.020-0.004 0.040-0.004 0.060v1.844c0 0.029 0.003 0.058 0.008 0.086 0.112 0.569 0.239 1.032 0.447 1.496 0.207 0.462 0.487 0.907 0.886 1.449 0.018 0.024 0.038 0.046 0.060 0.066 0.618 0.558 1.154 0.943 1.758 1.218 0.436 0.198 0.895 0.333 1.424 0.44-0.143 0.282-0.24 0.551-0.312 0.887-0.313 0.083-0.536 0.121-0.72 0.129-0.192 0.008-0.355-0.016-0.55-0.077-0.477-0.421-0.845-0.764-1.16-1.057-0.087-0.081-0.17-0.158-0.25-0.232-0.381-0.352-0.702-0.638-1.071-0.895-0.021-0.015-0.044-0.028-0.068-0.039-0.139-0.064-0.269-0.122-0.386-0.165-0.111-0.041-0.241-0.082-0.372-0.090-0.138-0.009-0.338 0.015-0.496 0.178-0.143 0.147-0.175 0.332-0.183 0.453-0.001 0.009-0.001 0.018-0.001 0.027-0.001 0.183 0.061 0.347 0.134 0.483s0.174 0.27 0.284 0.399c0.191 0.226 0.455 0.488 0.755 0.788 0.022 0.022 0.044 0.044 0.066 0.066 0.235 0.504 0.466 0.913 0.779 1.26 0.332 0.369 0.735 0.644 1.278 0.91 0.061 0.030 0.127 0.045 0.195 0.045h1.617v1.542c-0.018 0.089-0.030 0.142-0.043 0.18-0.011 0.001-0.025 0.001-0.042 0.001-0.083-0.001-0.212-0.018-0.411-0.067-3.849-1.506-6.593-5.343-6.593-9.847 0-5.828 4.588-10.53 10.222-10.53s10.222 4.703 10.222 10.53c0 4.405-2.625 8.172-6.341 9.745-0.228 0.070-0.396 0.11-0.522 0.128-0.104 0.014-0.159 0.010-0.182 0.006-0.010-0.021-0.026-0.064-0.043-0.145v-3.183c0.005-0.437-0.028-0.812-0.168-1.16-0.040-0.098-0.086-0.191-0.14-0.28z"></path>
</symbol>
<symbol id="icon-telegramf" viewBox="0 0 32 32">
<path stroke-linejoin="miter" stroke-linecap="butt" stroke-miterlimit="4" stroke-width="0.8889" d="M7.111 0.444h17.778c3.682 0 6.667 2.985 6.667 6.667v17.778c0 3.682-2.985 6.667-6.667 6.667h-17.778c-3.682 0-6.667-2.985-6.667-6.667v-17.778c0-3.682 2.985-6.667 6.667-6.667z"></path>
<path stroke-linejoin="round" stroke-linecap="round" stroke-miterlimit="4" stroke-width="0.8889" d="M23.333 9.333l-16 6.333 5.895 0.844M23.333 9.333l-2.105 12.667-8-5.489M23.333 9.333l-10.105 7.178M13.228 16.511v4.644l2.736-2.767"></path>
</symbol>
<symbol id="icon-facebookf" viewBox="0 0 32 32">
<path stroke-linejoin="miter" stroke-linecap="butt" stroke-miterlimit="4" stroke-width="0.8889" d="M7.111 0.444h17.778c3.682 0 6.667 2.985 6.667 6.667v17.778c0 3.682-2.985 6.667-6.667 6.667h-17.778c-3.682 0-6.667-2.985-6.667-6.667v-17.778c0-3.682 2.985-6.667 6.667-6.667z"></path>
<path stroke-linejoin="round" stroke-linecap="round" stroke-miterlimit="4" stroke-width="0.8889" d="M21.333 6.222h-3.152c-1.393 0-2.729 0.515-3.714 1.432s-1.538 2.16-1.538 3.457v2.933h-3.152v3.911h3.152v7.822h4.202v-7.822h3.152l1.050-3.911h-4.202v-2.933c0-0.259 0.111-0.508 0.308-0.691s0.464-0.286 0.743-0.286h3.152v-3.911z"></path>
</symbol>
<symbol id="icon-circlesf" viewBox="0 0 32 32">
<path stroke-linejoin="miter" stroke-linecap="butt" stroke-miterlimit="4" stroke-width="0.8889" d="M7.111 0.444h17.778c3.682 0 6.667 2.985 6.667 6.667v17.778c0 3.682-2.985 6.667-6.667 6.667h-17.778c-3.682 0-6.667-2.985-6.667-6.667v-17.778c0-3.682 2.985-6.667 6.667-6.667z"></path>
<path stroke-linejoin="miter" stroke-linecap="butt" stroke-miterlimit="4" stroke-width="0.8889" d="M26.222 7.111c0 0.736-0.597 1.333-1.333 1.333s-1.333-0.597-1.333-1.333c0-0.736 0.597-1.333 1.333-1.333s1.333 0.597 1.333 1.333z"></path>
<path stroke-linejoin="round" stroke-linecap="round" stroke-miterlimit="4" stroke-width="0.8889" d="M16 23.111c1.886 0 3.695-0.749 5.028-2.083s2.083-3.142 2.083-5.028-0.749-3.695-2.083-5.028c-1.334-1.334-3.142-2.083-5.028-2.083s-3.695 0.749-5.028 2.083c-1.334 1.334-2.083 3.142-2.083 5.028s0.749 3.695 2.083 5.028c1.334 1.334 3.142 2.083 5.028 2.083z"></path>
</symbol>
<symbol id="icon-crossf" viewBox="0 0 32 32">
<path fill="none" stroke="#2f2e30" style="stroke: var(--color1, #2f2e30)" stroke-linejoin="miter" stroke-linecap="butt" stroke-miterlimit="4" stroke-width="0.8889" d="M7.111 0.444h17.778c3.682 0 6.667 2.985 6.667 6.667v17.778c0 3.682-2.985 6.667-6.667 6.667h-17.778c-3.682 0-6.667-2.985-6.667-6.667v-17.778c0-3.682 2.985-6.667 6.667-6.667z"></path>
<path d="M21.721 7.236l1.622-0.124-6.184 7.731 7.73 10.047h-4.166l-5.496-6.792-5.677 6.792h-2.073l6.647-7.999-7.014-9.653 4.638-0.001 4.638 6.386 5.334-6.386zM20.723 23.097h1.576l-11.323-14.358h-1.546l11.293 14.358z"></path>
</symbol>
<symbol id="icon-apple" viewBox="0 0 96 32">
<path d="M21.023 15.27c-0.020-2.291 1.904-3.405 1.988-3.456-1.092-1.562-2.781-1.779-3.372-1.798-1.416-0.147-2.794 0.838-3.515 0.838-0.734 0-1.852-0.819-3.047-0.8-1.54 0.026-2.989 0.902-3.775 2.272-1.631 2.784-0.416 6.88 1.15 9.133 0.786 1.101 1.696 2.336 2.898 2.291 1.17-0.045 1.611-0.736 3.021-0.736 1.403 0 1.813 0.736 3.034 0.71 1.261-0.019 2.047-1.107 2.807-2.221 0.903-1.261 1.267-2.509 1.28-2.573-0.032-0.013-2.443-0.922-2.469-3.661z"></path>
<path d="M18.717 8.538c0.63-0.774 1.059-1.83 0.942-2.906-0.91 0.038-2.053 0.621-2.709 1.382-0.578 0.672-1.098 1.766-0.968 2.797 1.027 0.077 2.079-0.512 2.735-1.274z"></path>
<path d="M37.994 23.59h-1.637l-0.897-2.778h-3.119l-0.851 2.778h-1.592l3.086-9.453h1.91l3.099 9.453zM35.194 19.647l-0.812-2.464c-0.084-0.256-0.247-0.845-0.481-1.779h-0.032c-0.097 0.403-0.247 0.998-0.455 1.779l-0.799 2.464h2.579z"></path>
<path d="M45.927 20.102c0 1.158-0.318 2.074-0.962 2.746-0.572 0.602-1.286 0.896-2.131 0.896-0.916 0-1.572-0.32-1.975-0.966v3.578h-1.54v-7.341c0-0.73-0.019-1.472-0.058-2.24h1.351l0.084 1.082h0.026c0.513-0.813 1.293-1.222 2.333-1.222 0.819 0 1.494 0.32 2.040 0.954 0.559 0.64 0.832 1.472 0.832 2.515zM44.362 20.153c0-0.666-0.15-1.21-0.455-1.638-0.331-0.448-0.78-0.672-1.338-0.672-0.377 0-0.721 0.128-1.033 0.371-0.305 0.25-0.513 0.57-0.604 0.973-0.045 0.186-0.071 0.339-0.071 0.461v1.139c0 0.493 0.156 0.915 0.461 1.254s0.708 0.512 1.202 0.512c0.578 0 1.027-0.224 1.351-0.659 0.325-0.442 0.487-1.018 0.487-1.741z"></path>
<path d="M53.88 20.102c0 1.158-0.318 2.074-0.962 2.746-0.572 0.602-1.287 0.896-2.131 0.896-0.916 0-1.572-0.32-1.975-0.966v3.578h-1.54v-7.341c0-0.73-0.020-1.472-0.059-2.24h1.351l0.084 1.082h0.026c0.513-0.813 1.293-1.222 2.332-1.222 0.819 0 1.494 0.32 2.040 0.954 0.559 0.64 0.831 1.472 0.831 2.515zM52.314 20.153c0-0.666-0.149-1.21-0.455-1.638-0.331-0.448-0.78-0.672-1.338-0.672-0.377 0-0.721 0.128-1.033 0.371-0.305 0.25-0.507 0.57-0.604 0.973-0.045 0.186-0.071 0.339-0.071 0.461v1.139c0 0.493 0.156 0.915 0.461 1.254s0.708 0.512 1.202 0.512c0.578 0 1.033-0.224 1.351-0.659 0.331-0.442 0.487-1.018 0.487-1.741z"></path>
<path d="M62.781 20.941c0 0.806-0.286 1.459-0.851 1.965-0.624 0.55-1.494 0.826-2.612 0.826-1.033 0-1.859-0.198-2.482-0.589l0.358-1.261c0.676 0.39 1.417 0.589 2.222 0.589 0.578 0 1.033-0.128 1.351-0.384 0.325-0.256 0.488-0.602 0.488-1.030 0-0.384-0.137-0.704-0.397-0.966-0.266-0.262-0.708-0.506-1.325-0.73-1.696-0.621-2.534-1.523-2.534-2.707 0-0.774 0.299-1.408 0.89-1.907 0.591-0.493 1.378-0.742 2.358-0.742 0.871 0 1.598 0.147 2.176 0.448l-0.39 1.229c-0.546-0.288-1.157-0.435-1.845-0.435-0.539 0-0.968 0.134-1.273 0.39-0.253 0.237-0.383 0.518-0.383 0.858 0 0.371 0.149 0.685 0.442 0.922 0.253 0.224 0.721 0.467 1.397 0.73 0.825 0.326 1.429 0.71 1.819 1.152 0.396 0.442 0.591 0.992 0.591 1.645z"></path>
<path d="M67.875 17.914h-1.695v3.309c0 0.838 0.299 1.261 0.897 1.261 0.273 0 0.5-0.026 0.682-0.070l0.046 1.152c-0.306 0.109-0.702 0.166-1.196 0.166-0.611 0-1.078-0.186-1.423-0.55s-0.514-0.979-0.514-1.837v-3.437h-1.007v-1.133h1.007v-1.248l1.508-0.448v1.696h1.695v1.139z"></path>
<path d="M75.503 20.128c0 1.050-0.305 1.907-0.91 2.579-0.636 0.691-1.481 1.037-2.534 1.037-1.014 0-1.826-0.333-2.43-0.992s-0.903-1.498-0.903-2.509c0-1.056 0.312-1.92 0.929-2.592 0.624-0.672 1.462-1.011 2.514-1.011 1.014 0 1.832 0.333 2.45 0.998 0.591 0.64 0.883 1.472 0.883 2.49zM73.911 20.16c0-0.627-0.136-1.158-0.409-1.606-0.325-0.544-0.786-0.813-1.384-0.813-0.617 0-1.092 0.269-1.41 0.813-0.279 0.448-0.409 0.992-0.409 1.638 0 0.627 0.137 1.165 0.409 1.606 0.331 0.544 0.799 0.813 1.397 0.813 0.585 0 1.046-0.275 1.384-0.826 0.279-0.461 0.422-0.998 0.422-1.626z"></path>
<path d="M80.506 18.105c-0.149-0.026-0.312-0.038-0.488-0.038-0.539 0-0.962 0.198-1.254 0.602-0.253 0.352-0.383 0.806-0.383 1.344v3.578h-1.54v-4.672c0-0.787-0.013-1.504-0.045-2.144h1.338l0.058 1.306h0.046c0.162-0.448 0.415-0.813 0.766-1.082 0.344-0.243 0.715-0.365 1.111-0.365 0.143 0 0.273 0.013 0.383 0.026l0.007 1.446z"></path>
<path d="M87.38 19.859c0 0.269-0.020 0.499-0.059 0.685h-4.613c0.020 0.672 0.241 1.19 0.669 1.542 0.39 0.314 0.89 0.474 1.508 0.474 0.682 0 1.306-0.109 1.865-0.32l0.24 1.050c-0.656 0.282-1.429 0.422-2.319 0.422-1.072 0-1.917-0.314-2.528-0.934s-0.916-1.459-0.916-2.502c0-1.024 0.286-1.882 0.857-2.566 0.598-0.73 1.403-1.094 2.417-1.094 0.994 0 1.754 0.365 2.261 1.094 0.409 0.589 0.618 1.299 0.618 2.15zM85.912 19.468c0.013-0.448-0.091-0.838-0.299-1.165-0.266-0.422-0.676-0.634-1.222-0.634-0.5 0-0.909 0.205-1.221 0.614-0.253 0.326-0.409 0.723-0.455 1.178l3.197 0.006z"></path>
<path d="M34.453 10.758h-0.806l-0.442-1.363h-1.533l-0.422 1.363h-0.78l1.514-4.646h0.936l1.533 4.646zM33.069 8.819l-0.396-1.216c-0.039-0.122-0.117-0.416-0.24-0.877h-0.013c-0.052 0.198-0.117 0.486-0.227 0.877l-0.39 1.216h1.267z"></path>
<path d="M38.248 7.405l-1.286 3.354h-0.734l-1.248-3.354h0.812l0.578 1.773c0.097 0.294 0.182 0.576 0.247 0.845h0.020c0.058-0.243 0.143-0.525 0.247-0.845l0.572-1.773h0.793z"></path>
<path d="M40.989 10.758l-0.058-0.384h-0.020c-0.234 0.307-0.565 0.461-0.994 0.461-0.611 0-1.040-0.422-1.040-0.986 0-0.826 0.728-1.254 1.988-1.254v-0.064c0-0.442-0.24-0.659-0.708-0.659-0.338 0-0.63 0.083-0.89 0.25l-0.156-0.486c0.312-0.192 0.708-0.288 1.17-0.288 0.89 0 1.338 0.461 1.338 1.389v1.235c0 0.339 0.013 0.602 0.052 0.8l-0.682-0.013zM40.885 9.088c-0.838 0-1.26 0.198-1.26 0.678 0 0.352 0.214 0.525 0.52 0.525 0.383 0 0.741-0.288 0.741-0.685v-0.518z"></path>
<path d="M43.303 6.855c-0.253 0-0.448-0.192-0.448-0.448s0.201-0.442 0.461-0.442c0.26 0 0.468 0.186 0.461 0.442 0 0.269-0.195 0.448-0.474 0.448zM42.939 7.405h0.754v3.347h-0.754v-3.347z"></path>
<path d="M45.037 5.869h0.754v4.883h-0.754v-4.883z"></path>
<path d="M49 10.759l-0.058-0.384h-0.020c-0.234 0.307-0.565 0.461-0.994 0.461-0.611 0-1.040-0.422-1.040-0.986 0-0.826 0.728-1.254 1.988-1.254v-0.064c0-0.442-0.24-0.659-0.708-0.659-0.338 0-0.63 0.083-0.89 0.25l-0.156-0.493c0.312-0.192 0.708-0.288 1.17-0.288 0.89 0 1.338 0.461 1.338 1.389v1.235c0 0.339 0.013 0.602 0.045 0.8h-0.676v-0.006zM48.897 9.088c-0.838 0-1.261 0.198-1.261 0.678 0 0.352 0.214 0.525 0.52 0.525 0.383 0 0.741-0.288 0.741-0.685v-0.518z"></path>
<path d="M52.697 10.835c-0.481 0-0.838-0.198-1.072-0.595h-0.013l-0.046 0.518h-0.643c0.019-0.269 0.026-0.57 0.026-0.902v-3.987h0.76v2.029h0.013c0.228-0.371 0.585-0.557 1.085-0.557 0.819 0 1.391 0.691 1.391 1.696 0 1.037-0.637 1.798-1.501 1.798zM52.541 7.923c-0.435 0-0.831 0.371-0.831 0.89v0.589c0 0.461 0.357 0.838 0.818 0.838 0.565 0 0.903-0.454 0.903-1.178 0-0.678-0.35-1.139-0.89-1.139z"></path>
<path d="M55.316 5.869h0.754v4.883h-0.754v-4.883z"></path>
<path d="M60.182 9.261h-2.267c0.013 0.634 0.441 0.992 1.072 0.992 0.338 0 0.644-0.058 0.916-0.16l0.117 0.518c-0.318 0.141-0.695 0.205-1.137 0.205-1.065 0-1.696-0.659-1.696-1.69 0-1.024 0.643-1.798 1.611-1.798 0.864 0 1.417 0.634 1.417 1.594 0 0.134-0.007 0.25-0.032 0.339zM59.494 8.73c0-0.518-0.267-0.883-0.747-0.883-0.435 0-0.773 0.371-0.825 0.883h1.573z"></path>
<path d="M64.763 10.836c-0.994 0-1.638-0.73-1.638-1.722 0-1.037 0.656-1.773 1.696-1.773 0.981 0 1.637 0.698 1.637 1.715 0 1.043-0.676 1.779-1.695 1.779zM64.795 7.885c-0.546 0-0.897 0.506-0.897 1.203 0 0.691 0.357 1.19 0.89 1.19s0.89-0.538 0.89-1.21c-0.006-0.678-0.35-1.184-0.883-1.184z"></path>
<path d="M70.519 10.758h-0.754v-1.926c0-0.595-0.234-0.89-0.689-0.89-0.448 0-0.753 0.378-0.753 0.819v1.99h-0.754v-2.387c0-0.294-0.007-0.614-0.026-0.96h0.662l0.032 0.518h0.020c0.201-0.358 0.617-0.589 1.078-0.589 0.715 0 1.182 0.538 1.182 1.414v2.010z"></path>
<path d="M75.464 7.969h-0.832v1.626c0 0.416 0.149 0.621 0.442 0.621 0.13 0 0.247-0.013 0.338-0.032l0.020 0.563c-0.15 0.058-0.344 0.083-0.585 0.083-0.597 0-0.948-0.326-0.948-1.171v-1.69h-0.494v-0.557h0.494v-0.614l0.741-0.224v0.832h0.832v0.563z"></path>
<path d="M79.466 10.759h-0.754v-1.914c0-0.602-0.234-0.902-0.689-0.902-0.39 0-0.754 0.262-0.754 0.794v2.016h-0.753v-4.883h0.753v2.010h0.013c0.24-0.365 0.578-0.544 1.020-0.544 0.721 0 1.163 0.55 1.163 1.427v1.997z"></path>
<path d="M83.325 9.261h-2.267c0.013 0.634 0.442 0.992 1.072 0.992 0.338 0 0.643-0.058 0.916-0.16l0.117 0.518c-0.318 0.141-0.695 0.205-1.137 0.205-1.066 0-1.696-0.659-1.696-1.69 0-1.024 0.644-1.798 1.612-1.798 0.864 0 1.416 0.634 1.416 1.594 0 0.134-0.007 0.25-0.032 0.339zM82.637 8.73c0-0.518-0.266-0.883-0.747-0.883-0.435 0-0.78 0.371-0.825 0.883h1.572z"></path>
</symbol>

<symbol id="icon-googlef" viewBox="0 0 96 32">
<path fill="#2f2e30" style="fill: var(--color1, #2f2e30)" d="M46.434 14.592c-1.597 0-2.895 1.2-2.895 2.857 0 1.648 1.298 2.857 2.895 2.857s2.895-1.209 2.895-2.857-1.298-2.857-2.895-2.857zM46.434 19.182c-0.871 0-1.631-0.718-1.631-1.733 0-1.031 0.752-1.733 1.631-1.733s1.631 0.702 1.631 1.733c-0.009 1.014-0.76 1.733-1.631 1.733zM54.189 15.234h-0.043c-0.282-0.338-0.828-0.642-1.52-0.642-1.444 0-2.767 1.259-2.767 2.865 0 1.598 1.324 2.849 2.767 2.849 0.692 0 1.238-0.304 1.52-0.651h0.043v0.414c0 1.090-0.589 1.674-1.538 1.674-0.777 0-1.255-0.549-1.452-1.014l-1.102 0.456c0.316 0.761 1.162 1.691 2.562 1.691 1.486 0 2.742-0.862 2.742-2.975v-5.131h-1.204l-0.009 0.465zM52.738 19.182c-0.872 0-1.606-0.727-1.606-1.724 0-1.006 0.734-1.741 1.606-1.741 0.862 0 1.537 0.735 1.537 1.741s-0.675 1.724-1.537 1.724zM40.114 14.592c-1.597 0-2.895 1.2-2.895 2.857 0 1.648 1.298 2.857 2.895 2.857s2.895-1.209 2.895-2.857-1.298-2.857-2.895-2.857zM40.114 19.182c-0.871 0-1.631-0.718-1.631-1.733 0-1.031 0.752-1.733 1.631-1.733 0.871 0 1.631 0.702 1.631 1.733-0.009 1.014-0.76 1.733-1.631 1.733zM32.59 15.462v1.209h2.929c-0.085 0.685-0.316 1.183-0.666 1.53-0.427 0.423-1.093 0.888-2.263 0.888-1.802 0-3.211-1.437-3.211-3.22s1.409-3.22 3.211-3.22c0.974 0 1.682 0.38 2.212 0.862l0.863-0.854c-0.734-0.693-1.708-1.226-3.075-1.226-2.468 0-4.552 1.995-4.552 4.438s2.075 4.438 4.552 4.438c1.332 0 2.34-0.431 3.126-1.243 0.811-0.803 1.059-1.927 1.059-2.832 0-0.279-0.026-0.541-0.068-0.761l-4.117-0.008zM63.336 16.418c-0.239-0.642-0.974-1.817-2.468-1.817-1.486 0-2.725 1.158-2.725 2.857 0 1.598 1.221 2.857 2.861 2.857 1.324 0 2.092-0.803 2.408-1.268l-0.982-0.651c-0.325 0.473-0.777 0.786-1.418 0.786s-1.102-0.296-1.401-0.862l3.86-1.581-0.137-0.321zM59.407 17.364c-0.034-1.107 0.863-1.665 1.512-1.665 0.504 0 0.931 0.245 1.067 0.609l-2.579 1.057zM56.265 20.137h1.264v-8.393h-1.264v8.393zM69.281 11.743h-3.032v8.393h1.264v-3.178h1.768c1.4 0 2.784-1.006 2.784-2.612 0-1.598-1.384-2.603-2.784-2.603zM69.315 15.775h-1.802v-2.874h1.802c0.948 0 1.486 0.778 1.486 1.437s-0.538 1.437-1.486 1.437zM72.765 20.137h1.264v-8.393h-1.264v8.393zM77.138 14.575c-0.914 0-1.87 0.397-2.263 1.285l1.128 0.465c0.239-0.465 0.683-0.617 1.153-0.617 0.657 0 1.324 0.389 1.332 1.082v0.085c-0.231-0.127-0.718-0.321-1.324-0.321-1.212 0-2.443 0.659-2.443 1.893 0 1.124 0.991 1.843 2.11 1.843 0.854 0 1.324-0.38 1.614-0.82h0.043v0.651h1.221v-3.22c0.009-1.488-1.119-2.324-2.571-2.324zM76.984 19.182c-0.419 0-0.99-0.203-0.99-0.71 0-0.651 0.717-0.896 1.341-0.896 0.555 0 0.82 0.118 1.153 0.279-0.094 0.778-0.769 1.327-1.504 1.327zM84.167 14.761l-1.452 3.643h-0.043l-1.504-3.643h-1.366l2.255 5.088-1.29 2.84h1.324l3.484-7.92h-1.409v-0.008z"></path>
<path fill="#00A0FF" style="fill: var(--color2, #00A0FF)" d="M10.726 8.87c-0.171 0.178-0.273 0.456-0.273 0.811v12.789c0 0.355 0.102 0.634 0.273 0.811l0.043 0.042 7.242-7.168v-0.169l-7.242-7.168-0.043 0.051z"></path>
<path fill="#FFE000" style="fill: var(--color2, #FFE000)" d="M20.42 18.548l-2.408-2.392v-0.169l2.417-2.392 0.051 0.034 2.861 1.606c0.82 0.456 0.82 1.209 0 1.674l-2.921 1.64z"></path>
<path fill="#FF3A44" style="fill: var(--color2, #FF3A44)" d="M20.48 18.514l-2.468-2.443-7.285 7.21c0.265 0.279 0.717 0.321 1.213 0.034l8.541-4.801z"></path>
<path fill="#00A0FF" style="fill: var(--color2, #00A0FF)" d="M20.48 13.637l-8.541-4.801c-0.504-0.279-0.948-0.245-1.213 0.034l7.285 7.21 2.468-2.443z"></path>
<path fill="#2f2e30" style="fill: var(--color1, #2f2e30)" opacity="0.2" d="M20.42 18.463l-8.481 4.767c-0.478 0.27-0.897 0.254-1.17 0.008l-0.043 0.042 0.043 0.042c0.273 0.245 0.7 0.262 1.17-0.008l8.541-4.801-0.060-0.051z"></path>
<path fill="#2f2e30" style="fill: var(--color1, #2f2e30)" opacity="0.12" d="M10.726 23.197c-0.171-0.178-0.273-0.456-0.273-0.811v0.085c0 0.355 0.102 0.634 0.273 0.811l0.043-0.042-0.043-0.042zM23.332 16.824l-2.912 1.64 0.051 0.051 2.861-1.606c0.41-0.228 0.615-0.533 0.615-0.837-0.034 0.279-0.239 0.541-0.615 0.752z"></path>
</symbol>





<!-- Dark -->


<symbol id="icon-logo">
<path d="M1.98239 23.5467C0.660798 23.5467 0 22.8972 0 21.5983V2.37779C0 1.07881 0.683984 0.429324 2.05195 0.429324H14.468C15.8591 0.429324 16.5547 1.02377 16.5547 2.21267C16.5547 3.37955 15.8591 3.96298 14.468 3.96298H3.99956V9.97351H13.4246C14.0738 9.97351 14.5723 10.1276 14.9201 10.4359C15.2911 10.7441 15.4766 11.1844 15.4766 11.7569C15.4766 12.9457 14.7926 13.5402 13.4246 13.5402H3.99956V21.5983C3.99956 22.8972 3.32717 23.5467 1.98239 23.5467Z" fill="#FBF8FF"/>
<path d="M20.1163 23.5467C18.8179 23.5467 18.1687 22.8972 18.1687 21.5983V9.61024C18.1687 8.31126 18.8179 7.66177 20.1163 7.66177C21.4147 7.66177 22.0639 8.31126 22.0639 9.61024V21.5983C22.0639 22.8972 21.4147 23.5467 20.1163 23.5467Z" fill="#FBF8FF"/>
<path d="M28.7648 23.5467C27.4432 23.5467 26.7824 22.8972 26.7824 21.5983V1.94847C26.7824 0.649489 27.4432 0 28.7648 0C30.0632 0 30.7124 0.649489 30.7124 1.94847V21.5983C30.7124 22.8972 30.0632 23.5467 28.7648 23.5467Z" fill="#FBF8FF"/>
<path d="M36.8483 23.5467C35.5267 23.5467 34.8659 22.8972 34.8659 21.5983V9.61024C34.8659 8.31126 35.4571 7.66177 36.6396 7.66177C37.7989 7.66177 38.4133 7.94799 38.4829 8.52042L38.622 9.57721C38.9466 8.91672 39.4915 8.3663 40.2566 7.92597C41.0217 7.48564 41.9028 7.26547 42.8998 7.26547C43.9895 7.26547 44.9402 7.50765 45.7517 7.99202C46.5632 8.47638 47.1892 9.16991 47.6297 10.0726C48.0703 9.25797 48.7079 8.58647 49.5426 8.05807C50.4004 7.52967 51.3742 7.26547 52.464 7.26547C54.1102 7.26547 55.4318 7.81589 56.4288 8.91671C57.4489 9.99553 57.959 11.5257 57.959 13.5072V21.5983C57.959 22.8972 57.3098 23.5467 56.0114 23.5467C54.6666 23.5467 53.9942 22.8972 53.9942 21.5983V14.3658C53.9942 13.1989 53.774 12.2853 53.3334 11.6248C52.8929 10.9643 52.2785 10.634 51.4902 10.634C50.4932 10.634 49.7165 10.9753 49.16 11.6578C48.6267 12.3403 48.3601 13.309 48.3601 14.564V21.5983C48.3601 22.8972 47.7109 23.5467 46.4125 23.5467C45.0909 23.5467 44.4301 22.8972 44.4301 21.5983V14.3658C44.4301 13.1989 44.1982 12.2853 43.7345 11.6248C43.2708 10.9643 42.6448 10.634 41.8564 10.634C40.8826 10.634 40.1291 10.9863 39.5958 11.6908C39.0625 12.3733 38.7959 13.331 38.7959 14.564V21.5983C38.7959 22.8972 38.1467 23.5467 36.8483 23.5467Z" fill="#FBF8FF"/>
<path d="M23.2047 44C21.5585 44 20.2949 43.7138 19.4138 43.1413C18.5559 42.5689 18.127 41.424 18.127 39.7067V30.9551L2.20867 31.1533C0.840705 31.1533 0.156721 30.6139 0.156721 29.5351C0.156721 29.0287 0.295837 28.6434 0.574067 28.3792C0.875483 28.093 1.40876 27.9499 2.17389 27.9499L18.127 27.7517V11.4592C18.127 10.1602 18.7878 9.51074 20.1094 9.51074C21.3846 9.51074 22.0222 10.1602 22.0222 11.4592V27.7517H24.5959C25.9638 27.7517 26.6478 28.2801 26.6478 29.3369C26.6478 30.4157 25.9754 30.9551 24.6306 30.9551H22.0222V38.749C22.0222 39.4976 22.2077 40.004 22.5787 40.2682C22.9729 40.5324 23.5293 40.6645 24.2481 40.6645C24.99 40.6645 25.5697 40.7525 25.987 40.9287C26.4276 41.0828 26.6478 41.5011 26.6478 42.1836C26.6478 42.734 26.4739 43.1413 26.1261 43.4055C25.8015 43.6477 25.3726 43.8018 24.8393 43.8679C24.3292 43.9559 23.7844 44 23.2047 44Z" fill="#FBF8FF"/>
<path d="M35.2996 44C32.8651 44 30.8943 43.3064 29.3872 41.9194C27.8801 40.5103 27.1266 38.4298 27.1266 35.6777C27.1266 33.9604 27.4628 32.4853 28.1352 31.2524C28.8075 29.9974 29.7466 29.0397 30.9522 28.3792C32.1579 27.6967 33.5375 27.3554 35.0909 27.3554C36.6444 27.3554 37.966 27.6967 39.0557 28.3792C40.1454 29.0617 40.9801 29.9424 41.5598 31.0212C42.1394 32.1 42.4293 33.2229 42.4293 34.3897C42.4293 35.2043 42.2554 35.7438 41.9076 36.008C41.5598 36.2501 41.0497 36.3712 40.3773 36.3712H30.987C31.0798 37.9564 31.5203 39.0903 32.3086 39.7728C33.0969 40.4333 34.1171 40.7635 35.3692 40.7635C36.7835 40.7635 37.8848 40.3012 38.6731 39.3765C39.1369 38.9141 39.5658 38.6169 39.96 38.4848C40.3773 38.3307 40.8178 38.4078 41.2816 38.716C41.7453 39.0242 42.0119 39.4205 42.0815 39.9049C42.151 40.3893 41.9423 40.8956 41.4554 41.424C40.6671 42.3267 39.7629 42.9872 38.7427 43.4055C37.7225 43.8018 36.5748 44 35.2996 44ZM31.1609 33.4981H38.5688C38.3833 32.4633 37.9776 31.6707 37.3515 31.1203C36.7487 30.5478 35.972 30.2616 35.0214 30.2616C34.0012 30.2616 33.1549 30.5258 32.4825 31.0542C31.8333 31.5826 31.3928 32.3972 31.1609 33.4981Z" fill="#FBF8FF"/>
<path d="M46.3413 43.6367C45.0429 43.6367 44.3937 43.0312 44.3937 41.8203V21.9063C44.3937 20.6954 45.0429 20.09 46.3413 20.09H46.4109C47.6861 20.09 48.3237 20.6954 48.3237 21.9063V34.3237L53.1928 28.8085C53.5637 28.3682 53.9579 28.049 54.3752 27.8508C54.8158 27.6527 55.2215 27.5536 55.5925 27.5536C56.0562 27.5536 56.4388 27.6857 56.7402 27.9499C57.0648 28.1921 57.2271 28.5223 57.2271 28.9406C57.2503 29.3589 57.0416 29.8323 56.6011 30.3607L52.2885 34.9181L57.5401 41.424C58.0038 42.0405 58.0734 42.5909 57.7488 43.0753C57.4474 43.5596 56.9605 43.8018 56.2881 43.8018C55.6621 43.8018 55.1867 43.7248 54.8621 43.5706C54.5375 43.4165 54.2477 43.1854 53.9927 42.8771L48.3237 35.5786V41.8203C48.3237 43.0312 47.6861 43.6367 46.4109 43.6367H46.3413Z" fill="#FBF8FF"/>
<path d="M65.0977 43.8679C63.2892 43.9339 61.7937 43.5596 60.6112 42.745C59.4519 41.9304 58.8723 40.7525 58.8723 39.2114C58.8723 38.0885 59.2317 37.1308 59.9504 36.3382C60.6692 35.5456 61.5966 34.9291 62.7328 34.4888C63.8689 34.0265 65.0397 33.7843 66.2454 33.7623C66.8482 33.7182 67.4163 33.7623 67.9496 33.8944C68.4828 34.0265 68.9582 34.2136 69.3755 34.4558V33.0687C69.3755 32.034 69.1436 31.3625 68.6799 31.0542C68.2162 30.746 67.5322 30.5919 66.628 30.5919C65.9788 30.5919 65.2948 30.6689 64.576 30.823C63.8805 30.9772 63.1965 31.1863 62.5241 31.4505C61.9212 31.6927 61.3996 31.7808 60.959 31.7147C60.5417 31.6487 60.1939 31.3845 59.9157 30.9221C59.6374 30.4598 59.5679 30.0194 59.707 29.6011C59.8693 29.1608 60.2635 28.8195 60.8895 28.5774C61.7242 28.2031 62.6284 27.9058 63.6022 27.6857C64.5992 27.4655 65.6078 27.3554 66.628 27.3554C68.7843 27.3554 70.4073 27.7737 71.497 28.6104C72.5867 29.425 73.1316 30.9111 73.1316 33.0687V40.3672C73.1316 40.5874 73.1548 40.7635 73.2012 40.8956C73.2707 41.0277 73.3287 41.1268 73.3751 41.1929C73.5837 41.4791 73.804 41.6442 74.0359 41.6882C74.2909 41.7323 74.5112 41.7653 74.6967 41.7873C74.8821 41.7873 74.9749 41.8864 74.9749 42.0845C74.9749 42.4808 74.859 42.8221 74.6271 43.1083C74.4184 43.3945 74.0591 43.5927 73.549 43.7027C73.0157 43.8128 72.494 43.8679 71.9839 43.8679C71.2651 43.8679 70.7087 43.7578 70.3145 43.5376C69.9436 43.2954 69.6769 42.8991 69.5146 42.3487C68.935 42.8111 68.2626 43.1743 67.4974 43.4385C66.7323 43.6807 65.9324 43.8238 65.0977 43.8679ZM65.0281 40.6314C66.3266 40.5874 67.3931 40.3452 68.2278 39.9049C69.0857 39.4646 69.4914 38.8371 69.4451 38.0225C69.4219 37.4941 69.132 37.1308 68.5756 36.9326C68.0423 36.7345 67.3699 36.6574 66.5584 36.7015C65.4223 36.7235 64.4833 36.9987 63.7413 37.5271C62.9994 38.0335 62.64 38.6059 62.6632 39.2444C62.7096 40.2351 63.4979 40.6975 65.0281 40.6314Z" fill="#FBF8FF"/>
<path d="M78.9999 13.2265C78.9999 17.7254 75.1282 21.5468 70.1316 21.5468C65.1349 21.5468 61.2632 17.7254 61.2632 13.2265C61.2632 8.72762 65.1349 4.90625 70.1316 4.90625C75.1282 4.90625 78.9999 8.72762 78.9999 13.2265Z" stroke="#FBF8FF" stroke-width="4"/>
<path d="M67.9579 9.51074L74.0442 13.226L67.9579 16.9413V9.51074Z" fill="#9040F6" stroke="#9040F6" stroke-width="2"/>
<ellipse cx="20.1371" cy="2.90558" rx="2.60841" ry="2.47687" fill="#9040F6"/>
</symbol>

<symbol id="icon-apple-dark">
<rect x="0.5" y="0.5" width="199" height="66" rx="11.5" stroke="#FBF8FF"/>
<path d="M43.7986 31.9722C43.758 27.175 47.7646 24.8434 47.9406 24.7362C45.6665 21.4666 42.1472 21.011 40.9154 20.9708C37.9646 20.6626 35.0949 22.7262 33.5924 22.7262C32.0629 22.7262 29.7347 21.011 27.244 21.0512C24.036 21.1048 21.0175 22.9406 19.3796 25.8082C15.9821 31.6372 18.5133 40.2132 21.7755 44.93C23.4134 47.2348 25.3084 49.821 27.8126 49.7272C30.249 49.6334 31.1695 48.1862 34.1068 48.1862C37.0306 48.1862 37.8833 49.7272 40.4281 49.6736C43.0541 49.6334 44.6919 47.3554 46.2757 45.0238C48.1572 42.384 48.9152 39.771 48.9423 39.637C48.8746 39.6102 43.8527 37.7074 43.7986 31.9722Z" fill="#FBF8FF"/>
<path d="M38.9933 17.8756C40.3063 16.2542 41.1996 14.0432 40.956 11.792C39.061 11.8724 36.6786 13.0918 35.3115 14.6864C34.1068 16.0934 33.0239 18.3848 33.2946 20.5422C35.4333 20.703 37.6261 19.4702 38.9933 17.8756Z" fill="#FBF8FF"/>
<path d="M79.1546 49.3924H75.7435L73.8755 43.5768H67.3782L65.605 49.3924H62.2887L68.7183 29.6006H72.6979L79.1546 49.3924ZM73.3205 41.138L71.6285 35.979C71.4526 35.443 71.1142 34.2102 70.6269 32.2538H70.5592C70.3562 33.098 70.0448 34.3442 69.6117 35.979L67.9467 41.138H73.3205Z" fill="#FBF8FF"/>
<path d="M95.682 42.0899C95.682 44.5153 95.0187 46.4316 93.6787 47.8385C92.4875 49.0982 90.9985 49.7146 89.2389 49.7146C87.3303 49.7146 85.9632 49.0445 85.1239 47.6911V55.1818H81.9159V39.8119C81.9159 38.2843 81.8753 36.7299 81.7941 35.1219H84.6096L84.7855 37.3865H84.8397C85.909 35.6847 87.5333 34.8271 89.6991 34.8271C91.4046 34.8271 92.8124 35.4971 93.9494 36.8237C95.1135 38.1637 95.682 39.9057 95.682 42.0899ZM92.4198 42.1971C92.4198 40.8035 92.1085 39.6645 91.4723 38.7667C90.782 37.8287 89.848 37.3597 88.6839 37.3597C87.8988 37.3597 87.1814 37.6277 86.5317 38.1369C85.8955 38.6595 85.4623 39.3295 85.2728 40.1737C85.1781 40.5623 85.1239 40.8839 85.1239 41.1385V43.5237C85.1239 44.5555 85.4488 45.4399 86.085 46.1502C86.7212 46.8603 87.5604 47.2221 88.5891 47.2221C89.7938 47.2221 90.7278 46.7531 91.4046 45.8419C92.0814 44.9173 92.4198 43.7113 92.4198 42.1971Z" fill="#FBF8FF"/>
<path d="M112.25 42.0899C112.25 44.5153 111.587 46.4316 110.247 47.8385C109.056 49.0982 107.567 49.7146 105.807 49.7146C103.898 49.7146 102.531 49.0445 101.692 47.6911V55.1818H98.484V39.8119C98.484 38.2843 98.4434 36.7299 98.3622 35.1219H101.178L101.354 37.3865H101.408C102.477 35.6847 104.101 34.8271 106.267 34.8271C107.973 34.8271 109.38 35.4971 110.518 36.8237C111.682 38.1637 112.25 39.9057 112.25 42.0899ZM108.988 42.1971C108.988 40.8035 108.677 39.6645 108.04 38.7667C107.35 37.8287 106.416 37.3597 105.252 37.3597C104.467 37.3597 103.75 37.6277 103.1 38.1369C102.464 38.6595 102.044 39.3295 101.841 40.1737C101.746 40.5623 101.692 40.8839 101.692 41.1385V43.5237C101.692 44.5555 102.017 45.4399 102.653 46.1502C103.289 46.8603 104.129 47.2221 105.157 47.2221C106.362 47.2221 107.309 46.7531 107.973 45.8419C108.663 44.9173 108.988 43.7113 108.988 42.1971Z" fill="#FBF8FF"/>
<path d="M130.794 43.8449C130.794 45.5333 130.199 46.9001 129.021 47.9587C127.722 49.1111 125.908 49.6873 123.58 49.6873C121.427 49.6873 119.708 49.2719 118.409 48.4545L119.153 45.8147C120.561 46.6321 122.104 47.0475 123.783 47.0475C124.987 47.0475 125.935 46.7795 126.598 46.2435C127.275 45.7075 127.613 44.9839 127.613 44.0861C127.613 43.2821 127.329 42.6121 126.788 42.0627C126.233 41.5133 125.312 41.0041 124.026 40.5351C120.493 39.2353 118.747 37.3459 118.747 34.8669C118.747 33.2455 119.37 31.9189 120.602 30.8737C121.834 29.8419 123.471 29.3193 125.515 29.3193C127.329 29.3193 128.845 29.6275 130.05 30.2573L129.238 32.8301C128.101 32.2271 126.828 31.9189 125.394 31.9189C124.27 31.9189 123.377 32.2003 122.74 32.7363C122.213 33.2321 121.942 33.8217 121.942 34.5319C121.942 35.3091 122.253 35.9657 122.862 36.4615C123.39 36.9305 124.365 37.4397 125.773 37.9891C127.492 38.6725 128.75 39.4765 129.563 40.4011C130.388 41.3257 130.794 42.4781 130.794 43.8449Z" fill="#FBF8FF"/>
<path d="M141.407 37.5065H137.874V44.4343C137.874 46.1897 138.496 47.0741 139.742 47.0741C140.31 47.0741 140.784 47.0205 141.163 46.9267L141.258 49.3387C140.621 49.5665 139.796 49.6871 138.767 49.6871C137.495 49.6871 136.52 49.2985 135.803 48.5347C135.085 47.7709 134.733 46.4845 134.733 44.6889V37.4931H132.635V35.1213H134.733V32.5083L137.874 31.5703V35.1213H141.407V37.5065Z" fill="#FBF8FF"/>
<path d="M157.298 42.1428C157.298 44.3404 156.662 46.136 155.403 47.543C154.076 48.9902 152.317 49.7138 150.124 49.7138C148.012 49.7138 146.32 49.017 145.061 47.6368C143.802 46.2566 143.18 44.5012 143.18 42.384C143.18 40.173 143.83 38.364 145.115 36.957C146.415 35.55 148.161 34.8398 150.354 34.8398C152.466 34.8398 154.171 35.5366 155.457 36.9302C156.689 38.2702 157.298 40.0122 157.298 42.1428ZM153.982 42.2098C153.982 40.8966 153.697 39.7844 153.129 38.8464C152.452 37.7074 151.491 37.1446 150.246 37.1446C148.96 37.1446 147.972 37.7074 147.308 38.8464C146.726 39.7844 146.456 40.9234 146.456 42.2768C146.456 43.59 146.74 44.7156 147.308 45.6402C147.999 46.7792 148.973 47.342 150.219 47.342C151.437 47.342 152.398 46.7658 153.102 45.6134C153.684 44.6486 153.982 43.523 153.982 42.2098Z" fill="#FBF8FF"/>
<path d="M167.721 37.9091C167.409 37.8555 167.071 37.8287 166.705 37.8287C165.582 37.8287 164.702 38.2441 164.093 39.0883C163.565 39.8253 163.294 40.7767 163.294 41.9023V49.3929H160.086V39.6109C160.086 37.9627 160.059 36.4619 159.992 35.1219H162.78L162.902 37.8555H162.997C163.335 36.9175 163.863 36.1537 164.594 35.5909C165.311 35.0817 166.083 34.8271 166.908 34.8271C167.206 34.8271 167.477 34.8539 167.707 34.8807L167.721 37.9091Z" fill="#FBF8FF"/>
<path d="M182.042 41.5799C182.042 42.1427 182.001 42.6251 181.92 43.0137H172.309C172.35 44.4207 172.81 45.5061 173.704 46.2431C174.516 46.8997 175.558 47.2347 176.844 47.2347C178.265 47.2347 179.565 47.0069 180.729 46.5647L181.23 48.7623C179.862 49.3519 178.252 49.6467 176.397 49.6467C174.164 49.6467 172.404 48.9901 171.132 47.6903C169.859 46.3905 169.223 44.6351 169.223 42.4509C169.223 40.3069 169.819 38.5113 171.01 37.0775C172.255 35.5499 173.934 34.7861 176.045 34.7861C178.116 34.7861 179.7 35.5499 180.756 37.0775C181.609 38.3103 182.042 39.7977 182.042 41.5799ZM178.983 40.7625C179.01 39.8245 178.793 39.0071 178.36 38.3237C177.805 37.4393 176.952 36.9971 175.815 36.9971C174.773 36.9971 173.92 37.4259 173.27 38.2835C172.743 38.9669 172.418 39.7977 172.323 40.7491L178.983 40.7625Z" fill="#FBF8FF"/>
<path d="M71.7774 22.5253H70.099L69.1785 19.6711H65.984L65.1042 22.5253H63.4799L66.6337 12.7969H68.5829L71.7774 22.5253ZM68.8943 18.4651L68.0686 15.9191C67.9873 15.6645 67.8249 15.0481 67.5677 14.0833H67.5407C67.4324 14.4987 67.297 15.1017 67.0669 15.9191L66.2547 18.4651H68.8943Z" fill="#FBF8FF"/>
<path d="M79.6824 15.5039L77.0023 22.5255H75.4727L72.8738 15.5039H74.5658L75.7705 19.2157C75.9735 19.8321 76.1495 20.4217 76.2849 20.9845H76.3255C76.4473 20.4753 76.6233 19.8857 76.8398 19.2157L78.031 15.5039H79.6824Z" fill="#FBF8FF"/>
<path d="M85.3947 22.526L85.2729 21.722H85.2323C84.745 22.3652 84.0546 22.6868 83.1612 22.6868C81.8889 22.6868 80.9955 21.8024 80.9955 20.6232C80.9955 18.8946 82.5115 17.9968 85.1375 17.9968V17.8628C85.1375 16.9382 84.6367 16.4826 83.6621 16.4826C82.9582 16.4826 82.3491 16.6568 81.8076 17.0052L81.4828 15.9868C82.1325 15.5848 82.9582 15.3838 83.9193 15.3838C85.7737 15.3838 86.7077 16.3486 86.7077 18.2916V20.8778C86.7077 21.588 86.7347 22.1374 86.816 22.5528L85.3947 22.526ZM85.1781 19.0286C83.432 19.0286 82.5521 19.444 82.5521 20.449C82.5521 21.186 82.9988 21.5478 83.635 21.5478C84.4336 21.5478 85.1781 20.9448 85.1781 20.114V19.0286Z" fill="#FBF8FF"/>
<path d="M90.2134 14.3519C89.6855 14.3519 89.2794 13.9499 89.2794 13.4139C89.2794 12.8779 89.699 12.4893 90.2405 12.4893C90.7819 12.4893 91.2151 12.8779 91.2015 13.4139C91.2015 13.9767 90.7955 14.3519 90.2134 14.3519ZM89.4554 15.5043H91.0256V22.5125H89.4554V15.5043Z" fill="#FBF8FF"/>
<path d="M93.8275 12.2881H95.3977V22.5123H93.8275V12.2881Z" fill="#FBF8FF"/>
<path d="M102.085 22.5257L101.963 21.7217H101.922C101.435 22.3649 100.744 22.6865 99.8511 22.6865C98.5787 22.6865 97.6853 21.8021 97.6853 20.6229C97.6853 18.8943 99.2013 17.9965 101.827 17.9965V17.8625C101.827 16.9379 101.326 16.4823 100.352 16.4823C99.648 16.4823 99.0389 16.6565 98.4975 17.0049L98.1726 15.9731C98.8223 15.5711 99.648 15.3701 100.609 15.3701C102.464 15.3701 103.397 16.3349 103.397 18.2779V20.8641C103.397 21.5743 103.425 22.1237 103.492 22.5391H102.085V22.5257ZM101.868 19.0283C100.122 19.0283 99.2419 19.4437 99.2419 20.4487C99.2419 21.1857 99.6886 21.5475 100.325 21.5475C101.123 21.5475 101.868 20.9445 101.868 20.1137V19.0283Z" fill="#FBF8FF"/>
<path d="M109.787 22.6865C108.785 22.6865 108.04 22.2711 107.553 21.4403H107.526L107.431 22.5257H106.091C106.132 21.9629 106.145 21.3331 106.145 20.6363V12.2881H107.729V16.5359H107.756C108.23 15.7587 108.974 15.3701 110.017 15.3701C111.722 15.3701 112.913 16.8173 112.913 18.9211C112.913 21.0919 111.587 22.6865 109.787 22.6865ZM109.462 16.5895C108.555 16.5895 107.729 17.3667 107.729 18.4521V19.6849C107.729 20.6497 108.474 21.4403 109.435 21.4403C110.612 21.4403 111.316 20.4889 111.316 18.9747C111.316 17.5543 110.585 16.5895 109.462 16.5895Z" fill="#FBF8FF"/>
<path d="M115.242 12.2881H116.812V22.5123H115.242V12.2881Z" fill="#FBF8FF"/>
<path d="M125.38 19.3906H120.656C120.683 20.7172 121.576 21.4675 122.889 21.4675C123.593 21.4675 124.229 21.3469 124.798 21.1325L125.042 22.218C124.378 22.5128 123.593 22.6467 122.673 22.6467C120.453 22.6467 119.14 21.2666 119.14 19.1091C119.14 16.9651 120.48 15.3438 122.497 15.3438C124.297 15.3438 125.448 16.6704 125.448 18.6804C125.448 18.9618 125.434 19.203 125.38 19.3906ZM123.945 18.2784C123.945 17.193 123.39 16.4292 122.389 16.4292C121.482 16.4292 120.778 17.2064 120.669 18.2784H123.945Z" fill="#FBF8FF"/>
<path d="M134.923 22.6865C132.852 22.6865 131.512 21.1589 131.512 19.0819C131.512 16.9111 132.879 15.3701 135.045 15.3701C137.089 15.3701 138.456 16.8307 138.456 18.9613C138.456 21.1455 137.048 22.6865 134.923 22.6865ZM134.99 16.5091C133.853 16.5091 133.123 17.5677 133.123 19.0283C133.123 20.4755 133.867 21.5207 134.977 21.5207C136.087 21.5207 136.831 20.3951 136.831 18.9881C136.818 17.5677 136.1 16.5091 134.99 16.5091Z" fill="#FBF8FF"/>
<path d="M146.916 22.5254H145.346V18.492C145.346 17.2458 144.858 16.6294 143.911 16.6294C142.977 16.6294 142.341 17.42 142.341 18.3446V22.512H140.77V17.5138C140.77 16.8974 140.757 16.2274 140.716 15.5038H142.097L142.165 16.5892H142.205C142.625 15.8388 143.491 15.3564 144.452 15.3564C145.941 15.3564 146.916 16.482 146.916 18.3178V22.5254Z" fill="#FBF8FF"/>
<path d="M157.217 16.6829H155.484V20.0865C155.484 20.9575 155.795 21.3863 156.405 21.3863C156.675 21.3863 156.919 21.3595 157.108 21.3193L157.149 22.4985C156.838 22.6191 156.432 22.6727 155.931 22.6727C154.685 22.6727 153.955 21.9893 153.955 20.2205V16.6829H152.926V15.5171H153.955V14.2307L155.498 13.7617V15.5037H157.23V16.6829" fill="#FBF8FF"/>
<path d="M165.555 22.5257H163.985V18.5191C163.985 17.2595 163.497 16.6297 162.55 16.6297C161.738 16.6297 160.98 17.1791 160.98 18.2913V22.5123H159.409V12.2881H160.98V16.4957H161.007C161.508 15.7319 162.211 15.3567 163.132 15.3567C164.634 15.3567 165.555 16.5091 165.555 18.3449V22.5257Z" fill="#FBF8FF"/>
<path d="M173.595 19.3906H168.871C168.898 20.7172 169.792 21.4675 171.105 21.4675C171.808 21.4675 172.445 21.3469 173.013 21.1325L173.257 22.218C172.594 22.5128 171.808 22.6467 170.888 22.6467C168.668 22.6467 167.355 21.2666 167.355 19.1091C167.355 16.9651 168.695 15.3438 170.712 15.3438C172.512 15.3438 173.663 16.6704 173.663 18.6804C173.663 18.9618 173.649 19.203 173.595 19.3906ZM172.16 18.2784C172.16 17.193 171.605 16.4292 170.604 16.4292C169.697 16.4292 168.979 17.2064 168.885 18.2784H172.16Z" fill="#FBF8FF"/>

</symbol>


<symbol id="icon-googlef-dark">
<g clip-path="url(#clip0_1733_6500)">
<path d="M96.7381 30.5525C93.4108 30.5525 90.7063 33.0656 90.7063 36.5343C90.7063 39.9854 93.4108 42.5162 96.7381 42.5162C100.065 42.5162 102.77 39.9854 102.77 36.5343C102.77 33.0833 100.065 30.5525 96.7381 30.5525ZM96.7381 40.1624C94.9232 40.1624 93.3396 38.6581 93.3396 36.5343C93.3396 34.3752 94.9054 32.9063 96.7381 32.9063C98.5707 32.9063 100.137 34.3752 100.137 36.5343C100.119 38.6581 98.5529 40.1624 96.7381 40.1624ZM112.894 31.8976H112.805C112.218 31.1896 111.079 30.5525 109.638 30.5525C106.631 30.5525 103.873 33.1895 103.873 36.552C103.873 39.8969 106.631 42.5162 109.638 42.5162C111.079 42.5162 112.218 41.8791 112.805 41.1534H112.894V42.0206C112.894 44.3036 111.666 45.5248 109.691 45.5248C108.072 45.5248 107.076 44.3744 106.666 43.4011L104.371 44.3567C105.03 45.9495 106.791 47.8963 109.709 47.8963C112.805 47.8963 115.421 46.0911 115.421 41.6667V30.9242H112.912L112.894 31.8976ZM109.869 40.1624C108.054 40.1624 106.524 38.6404 106.524 36.552C106.524 34.446 108.054 32.9063 109.869 32.9063C111.666 32.9063 113.072 34.446 113.072 36.552C113.072 38.6581 111.666 40.1624 109.869 40.1624ZM83.5713 30.5525C80.2441 30.5525 77.5396 33.0656 77.5396 36.5343C77.5396 39.9854 80.2441 42.5162 83.5713 42.5162C86.8986 42.5162 89.6031 39.9854 89.6031 36.5343C89.6031 33.0833 86.8986 30.5525 83.5713 30.5525ZM83.5713 40.1624C81.7565 40.1624 80.1729 38.6581 80.1729 36.5343C80.1729 34.3752 81.7387 32.9063 83.5713 32.9063C85.3862 32.9063 86.9698 34.3752 86.9698 36.5343C86.952 38.6581 85.3862 40.1624 83.5713 40.1624ZM67.8958 32.3754V34.9062H73.9988C73.8209 36.3397 73.3404 37.3838 72.6109 38.1094C71.7213 38.9943 70.3335 39.9677 67.8958 39.9677C64.1415 39.9677 61.2057 36.9591 61.2057 33.2249C61.2057 29.4907 64.1415 26.4821 67.8958 26.4821C69.9242 26.4821 71.401 27.2785 72.5042 28.2872L74.3013 26.4998C72.7711 25.0485 70.7427 23.9336 67.8958 23.9336C62.7537 23.9336 58.4122 28.1102 58.4122 33.2249C58.4122 38.3395 62.7359 42.5162 67.8958 42.5162C70.6715 42.5162 72.7711 41.6136 74.408 39.9146C76.0983 38.2333 76.6143 35.8795 76.6143 33.9859C76.6143 33.4019 76.561 32.8532 76.472 32.3931L67.8958 32.3754ZM131.95 34.3752C131.452 33.0302 129.922 30.5702 126.808 30.5702C123.712 30.5702 121.132 32.9948 121.132 36.552C121.132 39.8969 123.676 42.5339 127.093 42.5339C129.851 42.5339 131.452 40.8526 132.11 39.8792L130.064 38.5165C129.388 39.5076 128.445 40.1624 127.11 40.1624C125.776 40.1624 124.815 39.543 124.192 38.3572L132.235 35.0477L131.95 34.3752ZM123.765 36.3574C123.694 34.039 125.563 32.8709 126.915 32.8709C127.965 32.8709 128.854 33.3842 129.139 34.1452L123.765 36.3574ZM117.218 42.1622H119.851V24.5884H117.218V42.1622ZM144.334 24.5884H138.018V42.1622H140.651V35.5079H144.334C147.252 35.5079 150.134 33.4019 150.134 30.0393C150.134 26.6944 147.252 24.5884 144.334 24.5884ZM144.405 33.0302H140.651V27.013H144.405C146.38 27.013 147.501 28.6412 147.501 30.0216C147.501 31.402 146.38 33.0302 144.405 33.0302ZM151.593 42.1622H154.227V24.5884H151.593V42.1622ZM160.703 30.5171C158.8 30.5171 156.807 31.3489 155.988 33.2072L158.337 34.1806C158.835 33.2072 159.76 32.8886 160.739 32.8886C162.109 32.8886 163.497 33.7027 163.515 35.1539V35.3309C163.034 35.0654 162.02 34.6584 160.757 34.6584C158.23 34.6584 155.668 36.0388 155.668 38.6227C155.668 40.9765 157.732 42.4808 160.063 42.4808C161.842 42.4808 162.821 41.6844 163.426 40.7641H163.515V42.1268H166.059V35.384C166.077 32.2692 163.728 30.5171 160.703 30.5171ZM160.383 40.1624C159.511 40.1624 158.319 39.7376 158.319 38.6758C158.319 37.313 159.814 36.7998 161.113 36.7998C162.269 36.7998 162.821 37.0476 163.515 37.3838C163.319 39.012 161.913 40.1624 160.383 40.1624ZM175.347 30.9065L172.322 38.5342H172.233L169.102 30.9065H166.255L170.952 41.5605L168.265 47.5069H171.023L178.283 30.9242H175.347V30.9065Z" fill="#FBF8FF"/>
<path d="M22.3462 18.571C21.9904 18.9427 21.7769 19.5267 21.7769 20.27V47.0466C21.7769 47.7899 21.9904 48.3739 22.3462 48.7456L22.4352 48.8341L37.5235 33.8264V33.4725L22.4352 18.4648L22.3462 18.571Z" fill="url(#paint0_linear_1733_6500)"/>
<path d="M42.541 38.8347L37.5234 33.8263V33.4723L42.5588 28.4639L42.6656 28.5347L48.6262 31.8972C50.3343 32.8529 50.3343 34.428 48.6262 35.4014L42.6656 38.7639L42.541 38.8347Z" fill="url(#paint1_linear_1733_6500)"/>
<path d="M42.6656 38.764L37.5235 33.6494L22.3462 48.7455C22.8978 49.3296 23.8408 49.418 24.8728 48.8163L42.6656 38.764Z" fill="url(#paint2_linear_1733_6500)"/>
<path d="M42.6656 28.5532L24.8728 18.5009C23.823 17.9169 22.8978 17.9877 22.3462 18.5717L37.5235 33.6678L42.6656 28.5532Z" fill="url(#paint3_linear_1733_6500)"/>
<path opacity="0.2" d="M42.5411 38.6582L24.8728 48.6397C23.8764 49.206 23.0045 49.1706 22.4352 48.6574L22.3462 48.7459L22.4352 48.8344C23.0045 49.3476 23.8942 49.383 24.8728 48.8167L42.6656 38.7644L42.5411 38.6582Z" fill="#FBF8FF"/>
<path opacity="0.12" d="M22.3462 48.5686C21.9904 48.1969 21.7769 47.6129 21.7769 46.8696V47.0466C21.7769 47.7899 21.9904 48.3739 22.3462 48.7455L22.4352 48.6571L22.3462 48.5686ZM48.6085 35.2245L42.5411 38.6579L42.6479 38.764L48.6085 35.4015C49.4626 34.9236 49.8896 34.2865 49.8896 33.6494C49.8184 34.2334 49.3914 34.7821 48.6085 35.2245Z" fill="#FBF8FF"/>
</g>
<rect x="0.5" y="0.5" width="199" height="66" rx="11.5" stroke="#FBF8FF"/>
<defs>
<linearGradient id="paint0_linear_1733_6500" x1="36.1706" y1="19.9787" x2="15.8474" y2="40.4112" gradientUnits="userSpaceOnUse">
<stop stop-color="#00A0FF"/>
<stop offset="0.007" stop-color="#00A1FF"/>
<stop offset="0.26" stop-color="#00BEFF"/>
<stop offset="0.512" stop-color="#00D2FF"/>
<stop offset="0.76" stop-color="#00DFFF"/>
<stop offset="1" stop-color="#00E3FF"/>
</linearGradient>
<linearGradient id="paint1_linear_1733_6500" x1="50.8286" y1="33.6581" x2="21.3688" y2="33.6581" gradientUnits="userSpaceOnUse">
<stop stop-color="#FFE000"/>
<stop offset="0.409" stop-color="#FFBD00"/>
<stop offset="0.775" stop-color="#FFA500"/>
<stop offset="1" stop-color="#FF9C00"/>
</linearGradient>
<linearGradient id="paint2_linear_1733_6500" x1="39.8666" y1="36.4423" x2="12.307" y2="64.1502" gradientUnits="userSpaceOnUse">
<stop stop-color="#FF3A44"/>
<stop offset="1" stop-color="#C31162"/>
</linearGradient>
<linearGradient id="paint3_linear_1733_6500" x1="18.5243" y1="9.64676" x2="30.8309" y2="22.0196" gradientUnits="userSpaceOnUse">
<stop stop-color="#32A071"/>
<stop offset="0.069" stop-color="#2DA771"/>
<stop offset="0.476" stop-color="#15CF74"/>
<stop offset="0.801" stop-color="#06E775"/>
<stop offset="1" stop-color="#00F076"/>
</linearGradient>
<clipPath id="clip0_1733_6500">
<rect width="200" height="67" rx="12" fill="white"/>
</clipPath>
</defs>

</symbol>
</defs>
</svg>