<svg aria-hidden="true" style="position: absolute; width: 0; height: 0; overflow: hidden;" version="1.1" xmlns="http://www.w3.org/2000/svg" xmlns:xlink="http://www.w3.org/1999/xlink">
<defs>
<symbol id="icon-star" viewBox="0 0 32 32">
<path fill="none" stroke="#9040f6" style="stroke: var(--color1, #9040f6)" stroke-linejoin="miter" stroke-linecap="butt" stroke-miterlimit="4" stroke-width="3" d="M6.399 26.842l0-0.002 1.142-6.579c0-0 0-0.001 0-0.001s0-0 0-0c0.13-0.75-0.131-1.494-0.659-2.003l-4.854-4.664c-0.479-0.459-0.646-1.124-0.445-1.749l0-0.001c0.204-0.636 0.737-1.089 1.414-1.185l0.002-0 6.706-0.966c0.731-0.103 1.387-0.555 1.726-1.239l2.997-5.99c0-0 0-0 0-0.001 0.297-0.592 0.89-0.962 1.571-0.962s1.275 0.37 1.572 0.962l2.998 5.987c0 0.001 0.001 0.002 0.001 0.003 0.337 0.676 0.985 1.134 1.723 1.239 0.001 0 0.002 0 0.003 0l6.705 0.966c0.678 0.097 1.21 0.55 1.414 1.185l0 0.001c0.201 0.624 0.034 1.29-0.447 1.749l-0.002 0.002-4.853 4.662c-0.532 0.513-0.787 1.259-0.657 2.004 0 0 0 0 0 0.001l1.143 6.579c0.112 0.649-0.144 1.284-0.68 1.675l-0.003 0.002c-0.547 0.401-1.249 0.456-1.857 0.139l-0.003-0.002-5.995-3.107c-0.667-0.345-1.462-0.345-2.129 0l-0.001 0.001-5.997 3.109c-0.265 0.138-0.544 0.203-0.819 0.203-0.36 0-0.723-0.112-1.041-0.344-0.536-0.394-0.791-1.029-0.678-1.673z"></path>
</symbol>
<symbol id="icon-category" viewBox="0 0 32 32">
<path fill="#61646b" style="fill: var(--color2, #61646b)" d="M8.333 4.667c-3.667 0-3.667 0.277-3.667 3.667v0.033c0 1.476 0 2.543 0.361 2.993 0.353 0.437 1.403 0.64 3.305 0.64s2.952-0.204 3.305-0.641c0.361-0.449 0.361-1.516 0.361-2.993 0-3.421 0-3.699-3.667-3.699zM8.333 14c-2.248 0-3.935-0.236-4.861-1.387-0.805-0.999-0.805-2.361-0.805-4.247l1-0.033h-1c0-3.827 0.241-5.667 5.667-5.667s5.667 1.84 5.667 5.667c0 1.917 0 3.281-0.805 4.28-0.927 1.151-2.613 1.387-4.861 1.387z"></path>
<path fill="#61646b" style="fill: var(--color2, #61646b)" d="M23 4.667c-3.667 0-3.667 0.277-3.667 3.667v0.033c0 1.476 0 2.543 0.361 2.993 0.353 0.437 1.403 0.64 3.305 0.64s2.952-0.204 3.305-0.641c0.361-0.449 0.361-1.516 0.361-2.993 0-3.421 0-3.699-3.667-3.699zM23 14c-2.248 0-3.935-0.236-4.861-1.387-0.805-0.999-0.805-2.361-0.805-4.247l1-0.033h-1c0-3.827 0.241-5.667 5.667-5.667s5.667 1.84 5.667 5.667c0 1.917 0 3.281-0.805 4.28-0.927 1.151-2.613 1.387-4.861 1.387z"></path>
<path fill="#61646b" style="fill: var(--color2, #61646b)" d="M8.333 19.333c-3.667 0-3.667 0.277-3.667 3.667v0.033c0 1.476 0 2.543 0.361 2.993 0.353 0.437 1.403 0.64 3.305 0.64s2.952-0.204 3.305-0.641c0.361-0.449 0.361-1.516 0.361-2.993 0-3.421 0-3.699-3.667-3.699zM8.333 28.667c-2.248 0-3.935-0.236-4.861-1.387-0.805-0.999-0.805-2.361-0.805-4.247l1-0.033h-1c0-3.827 0.241-5.667 5.667-5.667s5.667 1.84 5.667 5.667c0 1.917 0 3.281-0.805 4.28-0.927 1.151-2.613 1.387-4.861 1.387z"></path>
<path fill="#61646b" style="fill: var(--color2, #61646b)" d="M23 19.333c-3.667 0-3.667 0.277-3.667 3.667v0.033c0 1.476 0 2.543 0.361 2.993 0.353 0.437 1.403 0.64 3.305 0.64s2.952-0.204 3.305-0.641c0.361-0.449 0.361-1.516 0.361-2.993 0-3.421 0-3.699-3.667-3.699zM23 28.667c-2.248 0-3.935-0.236-4.861-1.387-0.805-0.999-0.805-2.361-0.805-4.247l1-0.033h-1c0-3.827 0.241-5.667 5.667-5.667s5.667 1.84 5.667 5.667c0 1.917 0 3.281-0.805 4.28-0.927 1.151-2.613 1.387-4.861 1.387z"></path>
</symbol>
<symbol id="icon-back-arrow" viewBox="0 0 32 32">
<path fill="#9040f6" style="fill: var(--color1, #9040f6)" d="M22.934 29.601c0.458-0.458 0.5-1.175 0.125-1.68l-0.125-0.145-11.13-11.131 11.13-11.131c0.458-0.458 0.5-1.175 0.125-1.68l-0.125-0.145c-0.458-0.458-1.175-0.5-1.68-0.125l-0.145 0.125-12.043 12.043c-0.458 0.458-0.5 1.175-0.125 1.68l0.125 0.145 12.043 12.043c0.504 0.504 1.321 0.504 1.825 0z"></path>
</symbol>
<symbol id="icon-setting" viewBox="0 0 32 32">
<path fill="#61646b" style="fill: var(--color2, #61646b)" d="M9.603 23.254c0.305 0 0.611 0.039 0.909 0.119 0.901 0.243 1.684 0.845 2.148 1.655 0.301 0.508 0.468 1.101 0.473 1.707 0 0.867 0.696 1.561 1.552 1.561h1.671c0.852 0 1.548-0.691 1.552-1.543-0.005-0.941 0.363-1.836 1.036-2.509 0.664-0.664 1.592-1.063 2.52-1.036 0.608 0.015 1.193 0.179 1.709 0.472 0.743 0.425 1.691 0.172 2.12-0.561l0.885-1.476c0.197-0.34 0.255-0.767 0.149-1.16-0.104-0.393-0.365-0.735-0.717-0.936-0.824-0.475-1.412-1.24-1.656-2.157-0.241-0.9-0.109-1.883 0.361-2.692 0.307-0.533 0.756-0.983 1.295-1.292 0.723-0.423 0.976-1.368 0.556-2.104-0.017-0.029-0.033-0.060-0.047-0.092l-0.781-1.355c-0.425-0.74-1.372-0.995-2.115-0.572-0.803 0.475-1.757 0.611-2.675 0.369-0.916-0.237-1.684-0.817-2.163-1.636-0.307-0.512-0.473-1.108-0.479-1.715 0.012-0.456-0.148-0.865-0.439-1.165-0.289-0.299-0.696-0.468-1.113-0.468h-1.671c-0.413 0-0.8 0.161-1.092 0.452-0.291 0.292-0.449 0.68-0.447 1.093-0.028 1.949-1.621 3.519-3.551 3.519-0.619-0.007-1.215-0.173-1.732-0.483-0.727-0.413-1.676-0.159-2.101 0.581l-0.903 1.484c-0.413 0.717-0.16 1.665 0.576 2.093 1.092 0.632 1.773 1.811 1.773 3.075s-0.681 2.441-1.776 3.075c-0.732 0.424-0.985 1.367-0.561 2.1l0.841 1.451c0.208 0.375 0.548 0.645 0.941 0.756 0.392 0.109 0.824 0.063 1.184-0.137 0.529-0.311 1.145-0.472 1.764-0.472zM16.356 30.295h-1.671c-1.959 0-3.552-1.592-3.552-3.551-0.003-0.241-0.072-0.492-0.201-0.709-0.209-0.365-0.548-0.627-0.939-0.731-0.388-0.104-0.813-0.047-1.163 0.156-0.837 0.467-1.823 0.58-2.724 0.327-0.9-0.255-1.677-0.873-2.133-1.693l-0.833-1.436c-0.975-1.691-0.395-3.857 1.293-4.833 0.479-0.276 0.776-0.791 0.776-1.343s-0.297-1.068-0.776-1.344c-1.689-0.981-2.268-3.153-1.295-4.844l0.904-1.484c0.961-1.672 3.135-2.261 4.829-1.288 0.231 0.137 0.481 0.207 0.736 0.209 0.831 0 1.525-0.685 1.539-1.528-0.005-0.929 0.361-1.821 1.029-2.495 0.671-0.672 1.561-1.041 2.509-1.041h1.671c0.955 0 1.883 0.392 2.548 1.073 0.664 0.685 1.031 1.625 1.003 2.579 0.003 0.215 0.073 0.463 0.201 0.68 0.212 0.36 0.547 0.613 0.944 0.717 0.397 0.099 0.813 0.045 1.167-0.164 1.707-0.975 3.879-0.391 4.853 1.303l0.831 1.439c0.021 0.039 0.040 0.076 0.056 0.115 0.883 1.668 0.293 3.768-1.347 4.727-0.239 0.137-0.432 0.329-0.565 0.561-0.207 0.359-0.264 0.785-0.16 1.177 0.107 0.4 0.361 0.732 0.72 0.937 0.809 0.465 1.413 1.249 1.655 2.155 0.241 0.904 0.109 1.885-0.361 2.695l-0.885 1.475c-0.975 1.675-3.147 2.255-4.836 1.279-0.225-0.129-0.485-0.2-0.744-0.207h-0.008c-0.385 0-0.781 0.164-1.069 0.451-0.292 0.292-0.452 0.681-0.449 1.095-0.009 1.959-1.603 3.543-3.552 3.543z"></path>
<path fill="#61646b" style="fill: var(--color2, #61646b)" d="M15.527 13.966c-1.387 0-2.515 1.129-2.515 2.516s1.128 2.513 2.515 2.513c1.387 0 2.515-1.127 2.515-2.513s-1.128-2.516-2.515-2.516zM15.527 20.995c-2.489 0-4.515-2.024-4.515-4.513s2.025-4.516 4.515-4.516c2.489 0 4.515 2.027 4.515 4.516s-2.025 4.513-4.515 4.513z"></path>
</symbol>
<symbol id="icon-trashcan" viewBox="0 0 32 32">
<path fill="#61646b" style="fill: var(--color2, #61646b)" d="M16.329 29.333c-1.807 0-3.568-0.020-5.311-0.056-2.229-0.044-3.772-1.489-4.024-3.772-0.42-3.787-1.139-12.712-1.145-12.801-0.045-0.551 0.365-1.033 0.916-1.077 0.543-0.015 1.033 0.367 1.077 0.916 0.007 0.091 0.724 8.985 1.14 12.743 0.143 1.297 0.843 1.967 2.077 1.992 3.333 0.071 6.735 0.075 10.401 0.008 1.312-0.025 2.021-0.681 2.168-2.009 0.413-3.725 1.133-12.643 1.141-12.733 0.044-0.549 0.531-0.933 1.076-0.916 0.551 0.045 0.961 0.527 0.917 1.077-0.008 0.091-0.731 9.039-1.147 12.792-0.259 2.329-1.797 3.747-4.12 3.789-1.777 0.031-3.492 0.048-5.168 0.048z"></path>
<path fill="#61646b" style="fill: var(--color2, #61646b)" d="M27.611 9.319h-22.611c-0.552 0-1-0.448-1-1s0.448-1 1-1h22.611c0.552 0 1 0.448 1 1s-0.448 1-1 1z"></path>
<path fill="#61646b" style="fill: var(--color2, #61646b)" d="M23.254 9.319c-1.517 0-2.835-1.081-3.133-2.569l-0.324-1.621c-0.068-0.247-0.349-0.461-0.669-0.461h-5.644c-0.32 0-0.601 0.215-0.683 0.523l-0.311 1.56c-0.297 1.488-1.616 2.569-3.133 2.569-0.552 0-1-0.448-1-1s0.448-1 1-1c0.568 0 1.061-0.405 1.173-0.963l0.324-1.621c0.329-1.243 1.405-2.068 2.629-2.068h5.644c1.224 0 2.3 0.825 2.616 2.008l0.339 1.681c0.111 0.557 0.604 0.963 1.172 0.963 0.552 0 1 0.448 1 1s-0.448 1-1 1z"></path>
</symbol>
<symbol id="icon-sun" viewBox="0 0 32 32">
<path fill="none" stroke="#9040f6" style="stroke: var(--color1, #9040f6)" stroke-linejoin="round" stroke-linecap="round" stroke-miterlimit="4" stroke-width="1.8462" d="M16 1.231v4.308M23.385 8.615l3.077-3.077M26.462 16h4.308M26.462 26.462l-3.077-3.077M16 26.462v4.308M8.615 23.385l-3.077 3.077M5.538 16h-4.308M8.615 8.615l-3.077-3.077M23.385 16c-0.163 4.075-3.306 7.385-7.385 7.385s-7.222-3.309-7.385-7.385c-0.17-4.248 3.133-8 7.385-8s7.555 3.752 7.385 8z"></path>
</symbol>
<symbol id="icon-moon" viewBox="0 0 32 32">
<path fill="none" stroke="#9040f6" style="stroke: var(--color1, #9040f6)" stroke-linejoin="round" stroke-linecap="butt" stroke-miterlimit="4" stroke-width="2" d="M14 2.667c-2.667 11.333 4.667 18 15.333 15.333-12 22.667-37.333-4.667-15.333-15.333z"></path>
</symbol>
<symbol id="icon-heart" viewBox="0 0 32 32">
<path fill="#9040f6" style="fill: var(--color1, #9040f6)" d="M5.098 16.164c1.869 5.816 9.255 10.519 11.217 11.683 1.969-1.176 9.408-5.931 11.217-11.677 1.188-3.715 0.085-8.42-4.296-9.832-2.123-0.681-4.599-0.267-6.308 1.056-0.357 0.275-0.853 0.28-1.213 0.008-1.811-1.361-4.176-1.76-6.332-1.064-4.375 1.411-5.473 6.116-4.285 9.827zM16.317 30.001c-0.165 0-0.329-0.040-0.479-0.121-0.417-0.228-10.248-5.647-12.644-13.105-0.001 0-0.001-0.001-0.001-0.001-1.504-4.696 0.171-10.597 5.577-12.34 2.539-0.821 5.305-0.46 7.543 0.952 2.168-1.371 5.048-1.749 7.536-0.952 5.412 1.745 7.092 7.645 5.589 12.34-2.319 7.373-12.221 12.873-12.641 13.104-0.149 0.083-0.315 0.124-0.48 0.124z"></path>
<path fill="#9040f6" style="fill: var(--color1, #9040f6)" d="M24.205 14.167c-0.516 0-0.953-0.396-0.996-0.919-0.088-1.096-0.821-2.021-1.865-2.359-0.527-0.171-0.815-0.735-0.645-1.259 0.172-0.525 0.731-0.811 1.259-0.645 1.817 0.588 3.091 2.197 3.247 4.1 0.044 0.551-0.365 1.033-0.916 1.077-0.028 0.003-0.055 0.004-0.083 0.004z"></path>
</symbol>
<symbol id="icon-cross-eye" viewBox="0 0 32 32">
<path fill="#9040f6" style="fill: var(--color1, #9040f6)" d="M13.015 20.823c-0.256 0-0.512-0.097-0.707-0.293-0.984-0.983-1.527-2.289-1.527-3.679 0-2.88 2.341-5.223 5.219-5.223 1.384 0 2.728 0.559 3.687 1.533 0.387 0.395 0.383 1.027-0.012 1.413-0.393 0.389-1.025 0.383-1.413-0.009-0.585-0.596-1.409-0.937-2.261-0.937-1.775 0-3.219 1.445-3.219 3.223 0 0.855 0.335 1.66 0.94 2.265 0.391 0.391 0.391 1.023 0.001 1.413-0.196 0.196-0.452 0.293-0.708 0.293z"></path>
<path fill="#9040f6" style="fill: var(--color1, #9040f6)" d="M16.757 21.988c-0.473 0-0.895-0.339-0.983-0.821-0.099-0.543 0.261-1.064 0.805-1.163 1.307-0.237 2.341-1.275 2.576-2.583 0.099-0.543 0.619-0.9 1.161-0.807 0.544 0.097 0.905 0.617 0.808 1.161-0.383 2.124-2.065 3.809-4.188 4.196-0.060 0.011-0.121 0.016-0.18 0.016z"></path>
<path fill="#9040f6" style="fill: var(--color1, #9040f6)" d="M8.873 24.963c-0.216 0-0.433-0.071-0.617-0.213-2.255-1.771-4.16-4.367-5.507-7.505-0.109-0.253-0.109-0.539 0-0.791 1.361-3.152 3.279-5.761 5.545-7.544 4.621-3.657 10.773-3.669 15.441 0.027 0.433 0.343 0.507 0.972 0.164 1.405-0.344 0.431-0.971 0.507-1.405 0.163-3.955-3.131-9.049-3.12-12.961-0.024-1.915 1.507-3.559 3.701-4.772 6.371 1.201 2.653 2.831 4.835 4.731 6.325 0.435 0.341 0.509 0.971 0.168 1.404-0.197 0.251-0.491 0.383-0.787 0.383z"></path>
<path fill="#9040f6" style="fill: var(--color1, #9040f6)" d="M16 27.586c-1.249 0-2.492-0.203-3.692-0.601-0.524-0.175-0.808-0.741-0.633-1.265 0.175-0.525 0.739-0.804 1.265-0.633 0.996 0.332 2.025 0.5 3.060 0.5 4.571 0 8.748-3.256 11.24-8.737-0.608-1.332-1.316-2.539-2.108-3.592-0.332-0.441-0.244-1.069 0.197-1.401 0.44-0.332 1.068-0.241 1.4 0.199 0.965 1.281 1.813 2.763 2.521 4.397 0.111 0.253 0.111 0.541 0 0.793-2.795 6.476-7.748 10.341-13.251 10.341z"></path>
<path fill="#9040f6" style="fill: var(--color1, #9040f6)" d="M5.485 28.365c-0.256 0-0.512-0.097-0.707-0.293-0.391-0.391-0.391-1.023 0-1.413l21.032-21.032c0.391-0.391 1.023-0.391 1.413 0s0.391 1.024 0 1.415l-21.032 21.031c-0.195 0.196-0.451 0.293-0.707 0.293z"></path>
</symbol>
<symbol id="icon-eye" viewBox="0 0 32 32">
<path fill="#9040f6" style="fill: var(--color1, #9040f6)" d="M15.999 12.855c-1.773 0-3.215 1.443-3.215 3.216 0 1.772 1.441 3.213 3.215 3.213s3.216-1.441 3.216-3.213c0-1.773-1.443-3.216-3.216-3.216zM15.999 21.285c-2.876 0-5.215-2.339-5.215-5.213 0-2.876 2.339-5.216 5.215-5.216s5.216 2.34 5.216 5.216c0 2.875-2.34 5.213-5.216 5.213z"></path>
<path fill="#9040f6" style="fill: var(--color1, #9040f6)" d="M4.76 16.070c2.48 5.479 6.657 8.736 11.24 8.737 4.583-0.001 8.76-3.259 11.24-8.737-2.48-5.477-6.657-8.735-11.24-8.736-4.581 0.001-8.76 3.259-11.24 8.736zM16.002 26.807h-0.007c-5.515-0.004-10.467-3.869-13.248-10.343-0.108-0.252-0.108-0.537 0-0.789 2.781-6.472 7.735-10.337 13.248-10.341 0.003-0.001 0.003-0.001 0.004 0 0.003-0.001 0.003-0.001 0.004 0 5.515 0.004 10.467 3.869 13.248 10.341 0.109 0.252 0.109 0.537 0 0.789-2.78 6.473-7.733 10.339-13.248 10.343h-0.001z"></path>
</symbol>
<symbol id="icon-down-arrow" viewBox="0 0 32 32">
<path fill="#9040f6" style="fill: var(--color1, #9040f6)" d="M3.045 9.711c0.458-0.458 1.175-0.5 1.68-0.125l0.145 0.125 11.131 11.13 11.131-11.13c0.458-0.458 1.175-0.5 1.68-0.125l0.145 0.125c0.458 0.458 0.5 1.175 0.125 1.68l-0.125 0.145-12.043 12.043c-0.458 0.458-1.175 0.5-1.68 0.125l-0.145-0.125-12.043-12.043c-0.504-0.504-0.504-1.321 0-1.825z"></path>
</symbol>
<symbol id="icon-image" viewBox="0 0 32 32">
<path fill="#9040f6" style="fill: var(--color1, #9040f6)" d="M10.215 4.67c-3.368 0-5.545 2.307-5.545 5.877v10.891c0 3.571 2.176 5.877 5.545 5.877h11.557c3.376 0 5.558-2.306 5.558-5.877v-10.891c0-3.57-2.182-5.877-5.558-5.877h-11.557zM21.772 29.32h-11.557c-4.516 0-7.549-3.168-7.549-7.881v-10.891c0-4.714 3.033-7.881 7.549-7.881h11.557c4.523 0 7.562 3.168 7.562 7.881v10.891c0 4.714-3.039 7.881-7.562 7.881z"></path>
<path fill="#9040f6" style="fill: var(--color1, #9040f6)" d="M7.050 22.948c-0.248 0-0.496-0.091-0.689-0.275-0.402-0.379-0.418-1.015-0.037-1.415l2.041-2.155c1.081-1.148 2.905-1.204 4.058-0.122l1.28 1.299c0.357 0.361 0.937 0.367 1.295 0.015 0.135-0.159 3.045-3.693 3.045-3.693 0.553-0.671 1.333-1.085 2.2-1.17 0.869-0.076 1.711 0.176 2.384 0.728 0.057 0.047 0.109 0.092 3.043 3.105 0.386 0.395 0.379 1.030-0.017 1.416-0.395 0.389-1.031 0.377-1.417-0.019 0 0-2.738-2.81-2.933-2.999-0.207-0.17-0.54-0.269-0.867-0.236-0.333 0.033-0.632 0.192-0.844 0.45-3.105 3.766-3.142 3.802-3.193 3.852-1.146 1.125-2.997 1.106-4.123-0.043 0 0-1.242-1.261-1.264-1.287-0.309-0.286-0.859-0.267-1.189 0.081l-2.044 2.155c-0.198 0.208-0.462 0.313-0.727 0.313z"></path>
<path fill="#9040f6" style="fill: var(--color1, #9040f6)" d="M11.428 10.855c-0.739 0-1.34 0.601-1.34 1.341s0.601 1.343 1.341 1.343c0.74 0 1.343-0.603 1.343-1.343 0-0.739-0.603-1.34-1.344-1.341zM11.429 15.543c-1.845 0-3.345-1.502-3.345-3.347s1.5-3.345 3.345-3.345c1.846 0.001 3.347 1.503 3.347 3.345 0 1.845-1.502 3.347-3.347 3.347z"></path>
</symbol>
<symbol id="icon-edit" viewBox="0 0 32 32">
<path fill="#9040f6" style="fill: var(--color1, #9040f6)" d="M32 16c0 8.837-7.163 16-16 16s-16-7.163-16-16c0-8.837 7.163-16 16-16s16 7.163 16 16z"></path>
<path fill="#2f2e30" style="fill: var(--color3, #2f2e30)" d="M5.333 22.472v3.602c0 0.332 0.261 0.593 0.593 0.593h3.602c0.154 0 0.308-0.059 0.415-0.178l12.941-12.929-4.444-4.444-12.929 12.929c-0.119 0.119-0.178 0.261-0.178 0.427zM26.32 8.453l-2.773-2.773c-0.11-0.11-0.24-0.197-0.383-0.256s-0.297-0.090-0.452-0.090-0.309 0.031-0.452 0.090c-0.143 0.059-0.274 0.147-0.383 0.256l-2.169 2.169 4.444 4.444 2.169-2.169c0.11-0.11 0.197-0.24 0.256-0.383s0.090-0.297 0.090-0.452c0-0.155-0.031-0.309-0.090-0.452s-0.147-0.274-0.256-0.383z"></path>
</symbol>
<symbol id="icon-profile" viewBox="0 0 32 32">
<path fill="#61646b" style="fill: var(--color2, #61646b)" d="M15.895 21.328c-5.681 0-8.561 0.976-8.561 2.903 0 1.944 2.88 2.929 8.561 2.929 5.68 0 8.559-0.976 8.559-2.903 0-1.944-2.879-2.929-8.559-2.929zM15.895 29.16c-2.612 0-10.561 0-10.561-4.929 0-4.395 6.028-4.903 10.561-4.903 2.612 0 10.559 0 10.559 4.929 0 4.395-6.027 4.903-10.559 4.903z"></path>
<path fill="#61646b" style="fill: var(--color2, #61646b)" d="M15.895 4.57c-2.855 0-5.177 2.321-5.177 5.176-0.009 2.845 2.296 5.165 5.139 5.176l0.039 0.952v-0.952c2.853 0 5.175-2.323 5.175-5.176 0-2.855-2.321-5.176-5.175-5.176zM15.895 16.825h-0.043c-3.896-0.012-7.052-3.189-7.039-7.083 0-3.9 3.176-7.076 7.081-7.076 3.904 0 7.079 3.176 7.079 7.080s-3.175 7.079-7.079 7.079z"></path>
</symbol>
<symbol id="icon-close-btn" viewBox="0 0 32 32">
<path fill="#9040f6" style="fill: var(--color1, #9040f6)" d="M13.267 20.656c-0.256 0-0.512-0.097-0.707-0.293-0.391-0.391-0.391-1.023 0-1.413l6.389-6.389c0.391-0.391 1.023-0.391 1.413 0s0.391 1.023 0 1.413l-6.389 6.389c-0.195 0.196-0.451 0.293-0.707 0.293z"></path>
<path fill="#9040f6" style="fill: var(--color1, #9040f6)" d="M19.661 20.662c-0.256 0-0.512-0.097-0.707-0.293l-6.395-6.396c-0.391-0.391-0.391-1.023 0-1.413 0.392-0.391 1.024-0.391 1.413 0l6.395 6.396c0.391 0.391 0.391 1.023 0 1.413-0.195 0.196-0.452 0.293-0.707 0.293z"></path>
<path fill="#9040f6" style="fill: var(--color1, #9040f6)" d="M10.22 4.667c-3.373 0-5.553 2.311-5.553 5.888v10.891c0 3.577 2.18 5.888 5.553 5.888h11.557c3.375 0 5.556-2.311 5.556-5.888v-10.891c0-3.577-2.181-5.888-5.555-5.888h-11.559zM21.777 29.333h-11.557c-4.519 0-7.553-3.171-7.553-7.888v-10.891c0-4.717 3.035-7.888 7.553-7.888h11.559c4.519 0 7.555 3.171 7.555 7.888v10.891c0 4.717-3.036 7.888-7.556 7.888z"></path>
</symbol>
<symbol id="icon-search" viewBox="0 0 32 32">
<path fill="#61646b" style="fill: var(--color2, #61646b)" d="M15.652 4.667c-6.057 0-10.985 4.927-10.985 10.984s4.928 10.985 10.985 10.985c6.056 0 10.984-4.928 10.984-10.985s-4.928-10.984-10.984-10.984zM15.652 28.636c-7.16 0-12.985-5.825-12.985-12.985s5.825-12.984 12.985-12.984c7.16 0 12.984 5.824 12.984 12.984s-5.824 12.985-12.984 12.985z"></path>
<path fill="#61646b" style="fill: var(--color2, #61646b)" d="M28.685 30.296c-0.255 0-0.511-0.097-0.707-0.292l-4.699-4.685c-0.391-0.391-0.392-1.024-0.001-1.415 0.389-0.393 1.023-0.391 1.415-0.003l4.699 4.687c0.391 0.391 0.392 1.023 0.001 1.413-0.195 0.197-0.452 0.295-0.708 0.295z"></path>
</symbol>
<symbol id="icon-github" viewBox="0 0 32 32">
<path stroke-linejoin="round" stroke-linecap="butt" stroke-miterlimit="4" stroke-width="1.3333" d="M20.239 24.127c0.566-0.115 1.101-0.271 1.651-0.507 0.916-0.393 1.836-0.993 3-1.937 0.036-0.029 0.068-0.061 0.097-0.097 0.621-0.764 1.040-1.419 1.331-2.134 0.289-0.712 0.438-1.448 0.56-2.346 0.004-0.030 0.006-0.060 0.006-0.090v-2.767c0-0.054-0.007-0.107-0.019-0.16-0.212-0.859-0.432-1.484-0.716-2.038-0.239-0.467-0.515-0.866-0.837-1.293 0.117-0.661 0.206-1.261 0.19-1.895-0.019-0.74-0.179-1.494-0.543-2.458-0.1-0.264-0.355-0.437-0.637-0.431-0.645 0.013-1.151 0.068-1.629 0.197s-0.895 0.323-1.363 0.574c-0.009 0.005-0.019 0.010-0.028 0.016l-1.385 0.832c-1.462-0.319-2.664-0.487-3.888-0.488-1.222-0.001-2.439 0.164-3.933 0.485l-1.245-0.815c-0.036-0.024-0.074-0.044-0.114-0.060-1.039-0.422-1.685-0.593-3.002-0.737-0.283-0.031-0.555 0.122-0.676 0.38-0.388 0.828-0.584 1.524-0.614 2.248-0.025 0.611 0.070 1.209 0.223 1.873-0.426 0.517-0.75 1-0.993 1.54-0.284 0.63-0.441 1.301-0.555 2.141-0.004 0.030-0.006 0.059-0.006 0.089v2.767c0 0.043 0.004 0.086 0.013 0.129 0.168 0.853 0.359 1.548 0.671 2.244 0.311 0.693 0.731 1.361 1.329 2.173 0.027 0.036 0.057 0.069 0.090 0.099 0.926 0.838 1.731 1.415 2.637 1.827 0.655 0.298 1.342 0.5 2.136 0.66-0.214 0.423-0.361 0.826-0.468 1.33-0.47 0.124-0.805 0.182-1.080 0.194-0.288 0.013-0.532-0.024-0.824-0.115-0.716-0.631-1.268-1.145-1.74-1.585-0.131-0.122-0.255-0.238-0.375-0.349-0.571-0.529-1.053-0.957-1.607-1.343-0.032-0.022-0.066-0.042-0.101-0.058-0.208-0.096-0.404-0.183-0.579-0.248-0.166-0.062-0.362-0.123-0.558-0.136-0.206-0.014-0.506 0.022-0.744 0.267-0.215 0.221-0.263 0.498-0.274 0.679-0.001 0.013-0.001 0.027-0.001 0.040-0.001 0.275 0.091 0.521 0.202 0.725s0.261 0.405 0.426 0.599c0.287 0.339 0.683 0.733 1.133 1.181 0.033 0.033 0.066 0.065 0.099 0.099 0.353 0.756 0.699 1.369 1.168 1.89 0.499 0.554 1.103 0.966 1.918 1.364 0.091 0.045 0.191 0.068 0.292 0.068h2.426v2.313c-0.026 0.133-0.045 0.213-0.065 0.27-0.016 0.001-0.037 0.002-0.063 0.002-0.124-0.001-0.318-0.027-0.616-0.101-5.773-2.259-9.889-8.014-9.889-14.771 0-8.742 6.883-15.795 15.333-15.795s15.333 7.054 15.333 15.795c0 6.608-3.937 12.259-9.512 14.617-0.341 0.105-0.595 0.166-0.783 0.192-0.156 0.022-0.238 0.015-0.273 0.009-0.015-0.031-0.040-0.095-0.064-0.217v-4.775c0.008-0.655-0.042-1.218-0.252-1.74-0.059-0.148-0.129-0.287-0.21-0.42z"></path>
</symbol>
<symbol id="icon-circles" viewBox="0 0 32 32">
<path stroke-linejoin="miter" stroke-linecap="butt" stroke-miterlimit="4" stroke-width="1.5238" d="M31.238 3.048c0 1.262-1.023 2.286-2.286 2.286s-2.286-1.023-2.286-2.286c0-1.262 1.023-2.286 2.286-2.286s2.286 1.023 2.286 2.286z"></path>
<path stroke-linejoin="round" stroke-linecap="round" stroke-miterlimit="4" stroke-width="1.5238" d="M13.714 30.476c3.233 0 6.334-1.284 8.62-3.57s3.57-5.387 3.57-8.62c0-3.233-1.284-6.334-3.57-8.62s-5.387-3.571-8.62-3.571c-3.233 0-6.334 1.284-8.62 3.571s-3.571 5.387-3.571 8.62c0 3.233 1.284 6.334 3.571 8.62s5.387 3.57 8.62 3.57z"></path>
</symbol>
<symbol id="icon-telegram" viewBox="0 0 40 32">
<path stroke-linejoin="round" stroke-linecap="round" stroke-miterlimit="4" stroke-width="2" d="M38.5 1l-36 14.25 13.263 1.9M38.5 1l-4.737 28.5-18-12.35M38.5 1l-22.737 16.15M15.763 17.15v10.45l6.156-6.226"></path>
</symbol>
<symbol id="icon-cross" viewBox="0 0 32 32">
<path d="M26.297 0.224l2.92-0.224-11.131 13.916 13.913 18.084h-7.499l-9.892-12.225-10.218 12.225h-3.731l11.965-14.399-12.625-17.376 8.348-0.001 8.348 11.495 9.601-11.495zM24.501 28.775h2.837l-20.381-25.845h-2.783l20.327 25.845z"></path>
</symbol>
</defs>
</svg>
