<svg aria-hidden="true" style="position: absolute; width: 0; height: 0; overflow: hidden;" version="1.1" xmlns="http://www.w3.org/2000/svg" xmlns:xlink="http://www.w3.org/1999/xlink">
<defs>
<symbol id="icon-star" viewBox="0 0 32 32">
<path fill="none" stroke="#9040f6" style="stroke: var(--color1, #9040f6)" stroke-linejoin="miter" stroke-linecap="butt" stroke-miterlimit="4" stroke-width="3" d="M6.399 26.842l0-0.002 1.142-6.579c0-0 0-0.001 0-0.001s0-0 0-0c0.13-0.75-0.131-1.494-0.659-2.003l-4.854-4.664c-0.479-0.459-0.646-1.124-0.445-1.749l0-0.001c0.204-0.636 0.737-1.089 1.414-1.185l0.002-0 6.706-0.966c0.731-0.103 1.387-0.555 1.726-1.239l2.997-5.99c0-0 0-0 0-0.001 0.297-0.592 0.89-0.962 1.571-0.962s1.275 0.37 1.572 0.962l2.998 5.987c0 0.001 0.001 0.002 0.001 0.003 0.337 0.676 0.985 1.134 1.723 1.239 0.001 0 0.002 0 0.003 0l6.705 0.966c0.678 0.097 1.21 0.55 1.414 1.185l0 0.001c0.201 0.624 0.034 1.29-0.447 1.749l-0.002 0.002-4.853 4.662c-0.532 0.513-0.787 1.259-0.657 2.004 0 0 0 0 0 0.001l1.143 6.579c0.112 0.649-0.144 1.284-0.68 1.675l-0.003 0.002c-0.547 0.401-1.249 0.456-1.857 0.139l-0.003-0.002-5.995-3.107c-0.667-0.345-1.462-0.345-2.129 0l-0.001 0.001-5.997 3.109c-0.265 0.138-0.544 0.203-0.819 0.203-0.36 0-0.723-0.112-1.041-0.344-0.536-0.394-0.791-1.029-0.678-1.673z"></path>
</symbol>
<symbol id="icon-category" viewBox="0 0 32 32">
<path fill="#61646b" style="fill: var(--color2, #61646b)" d="M8.333 4.667c-3.667 0-3.667 0.277-3.667 3.667v0.033c0 1.476 0 2.543 0.361 2.993 0.353 0.437 1.403 0.64 3.305 0.64s2.952-0.204 3.305-0.641c0.361-0.449 0.361-1.516 0.361-2.993 0-3.421 0-3.699-3.667-3.699zM8.333 14c-2.248 0-3.935-0.236-4.861-1.387-0.805-0.999-0.805-2.361-0.805-4.247l1-0.033h-1c0-3.827 0.241-5.667 5.667-5.667s5.667 1.84 5.667 5.667c0 1.917 0 3.281-0.805 4.28-0.927 1.151-2.613 1.387-4.861 1.387z"></path>
<path fill="#61646b" style="fill: var(--color2, #61646b)" d="M23 4.667c-3.667 0-3.667 0.277-3.667 3.667v0.033c0 1.476 0 2.543 0.361 2.993 0.353 0.437 1.403 0.64 3.305 0.64s2.952-0.204 3.305-0.641c0.361-0.449 0.361-1.516 0.361-2.993 0-3.421 0-3.699-3.667-3.699zM23 14c-2.248 0-3.935-0.236-4.861-1.387-0.805-0.999-0.805-2.361-0.805-4.247l1-0.033h-1c0-3.827 0.241-5.667 5.667-5.667s5.667 1.84 5.667 5.667c0 1.917 0 3.281-0.805 4.28-0.927 1.151-2.613 1.387-4.861 1.387z"></path>
<path fill="#61646b" style="fill: var(--color2, #61646b)" d="M8.333 19.333c-3.667 0-3.667 0.277-3.667 3.667v0.033c0 1.476 0 2.543 0.361 2.993 0.353 0.437 1.403 0.64 3.305 0.64s2.952-0.204 3.305-0.641c0.361-0.449 0.361-1.516 0.361-2.993 0-3.421 0-3.699-3.667-3.699zM8.333 28.667c-2.248 0-3.935-0.236-4.861-1.387-0.805-0.999-0.805-2.361-0.805-4.247l1-0.033h-1c0-3.827 0.241-5.667 5.667-5.667s5.667 1.84 5.667 5.667c0 1.917 0 3.281-0.805 4.28-0.927 1.151-2.613 1.387-4.861 1.387z"></path>
<path fill="#61646b" style="fill: var(--color2, #61646b)" d="M23 19.333c-3.667 0-3.667 0.277-3.667 3.667v0.033c0 1.476 0 2.543 0.361 2.993 0.353 0.437 1.403 0.64 3.305 0.64s2.952-0.204 3.305-0.641c0.361-0.449 0.361-1.516 0.361-2.993 0-3.421 0-3.699-3.667-3.699zM23 28.667c-2.248 0-3.935-0.236-4.861-1.387-0.805-0.999-0.805-2.361-0.805-4.247l1-0.033h-1c0-3.827 0.241-5.667 5.667-5.667s5.667 1.84 5.667 5.667c0 1.917 0 3.281-0.805 4.28-0.927 1.151-2.613 1.387-4.861 1.387z"></path>
</symbol>
<symbol id="icon-back-arrow" viewBox="0 0 32 32">
<path fill="#9040f6" style="fill: var(--color1, #9040f6)" d="M22.934 29.601c0.458-0.458 0.5-1.175 0.125-1.68l-0.125-0.145-11.13-11.131 11.13-11.131c0.458-0.458 0.5-1.175 0.125-1.68l-0.125-0.145c-0.458-0.458-1.175-0.5-1.68-0.125l-0.145 0.125-12.043 12.043c-0.458 0.458-0.5 1.175-0.125 1.68l0.125 0.145 12.043 12.043c0.504 0.504 1.321 0.504 1.825 0z"></path>
</symbol>
<symbol id="icon-setting" viewBox="0 0 32 32">
<path fill="#61646b" style="fill: var(--color2, #61646b)" d="M9.603 23.254c0.305 0 0.611 0.039 0.909 0.119 0.901 0.243 1.684 0.845 2.148 1.655 0.301 0.508 0.468 1.101 0.473 1.707 0 0.867 0.696 1.561 1.552 1.561h1.671c0.852 0 1.548-0.691 1.552-1.543-0.005-0.941 0.363-1.836 1.036-2.509 0.664-0.664 1.592-1.063 2.52-1.036 0.608 0.015 1.193 0.179 1.709 0.472 0.743 0.425 1.691 0.172 2.12-0.561l0.885-1.476c0.197-0.34 0.255-0.767 0.149-1.16-0.104-0.393-0.365-0.735-0.717-0.936-0.824-0.475-1.412-1.24-1.656-2.157-0.241-0.9-0.109-1.883 0.361-2.692 0.307-0.533 0.756-0.983 1.295-1.292 0.723-0.423 0.976-1.368 0.556-2.104-0.017-0.029-0.033-0.060-0.047-0.092l-0.781-1.355c-0.425-0.74-1.372-0.995-2.115-0.572-0.803 0.475-1.757 0.611-2.675 0.369-0.916-0.237-1.684-0.817-2.163-1.636-0.307-0.512-0.473-1.108-0.479-1.715 0.012-0.456-0.148-0.865-0.439-1.165-0.289-0.299-0.696-0.468-1.113-0.468h-1.671c-0.413 0-0.8 0.161-1.092 0.452-0.291 0.292-0.449 0.68-0.447 1.093-0.028 1.949-1.621 3.519-3.551 3.519-0.619-0.007-1.215-0.173-1.732-0.483-0.727-0.413-1.676-0.159-2.101 0.581l-0.903 1.484c-0.413 0.717-0.16 1.665 0.576 2.093 1.092 0.632 1.773 1.811 1.773 3.075s-0.681 2.441-1.776 3.075c-0.732 0.424-0.985 1.367-0.561 2.1l0.841 1.451c0.208 0.375 0.548 0.645 0.941 0.756 0.392 0.109 0.824 0.063 1.184-0.137 0.529-0.311 1.145-0.472 1.764-0.472zM16.356 30.295h-1.671c-1.959 0-3.552-1.592-3.552-3.551-0.003-0.241-0.072-0.492-0.201-0.709-0.209-0.365-0.548-0.627-0.939-0.731-0.388-0.104-0.813-0.047-1.163 0.156-0.837 0.467-1.823 0.58-2.724 0.327-0.9-0.255-1.677-0.873-2.133-1.693l-0.833-1.436c-0.975-1.691-0.395-3.857 1.293-4.833 0.479-0.276 0.776-0.791 0.776-1.343s-0.297-1.068-0.776-1.344c-1.689-0.981-2.268-3.153-1.295-4.844l0.904-1.484c0.961-1.672 3.135-2.261 4.829-1.288 0.231 0.137 0.481 0.207 0.736 0.209 0.831 0 1.525-0.685 1.539-1.528-0.005-0.929 0.361-1.821 1.029-2.495 0.671-0.672 1.561-1.041 2.509-1.041h1.671c0.955 0 1.883 0.392 2.548 1.073 0.664 0.685 1.031 1.625 1.003 2.579 0.003 0.215 0.073 0.463 0.201 0.68 0.212 0.36 0.547 0.613 0.944 0.717 0.397 0.099 0.813 0.045 1.167-0.164 1.707-0.975 3.879-0.391 4.853 1.303l0.831 1.439c0.021 0.039 0.040 0.076 0.056 0.115 0.883 1.668 0.293 3.768-1.347 4.727-0.239 0.137-0.432 0.329-0.565 0.561-0.207 0.359-0.264 0.785-0.16 1.177 0.107 0.4 0.361 0.732 0.72 0.937 0.809 0.465 1.413 1.249 1.655 2.155 0.241 0.904 0.109 1.885-0.361 2.695l-0.885 1.475c-0.975 1.675-3.147 2.255-4.836 1.279-0.225-0.129-0.485-0.2-0.744-0.207h-0.008c-0.385 0-0.781 0.164-1.069 0.451-0.292 0.292-0.452 0.681-0.449 1.095-0.009 1.959-1.603 3.543-3.552 3.543z"></path>
<path fill="#61646b" style="fill: var(--color2, #61646b)" d="M15.527 13.966c-1.387 0-2.515 1.129-2.515 2.516s1.128 2.513 2.515 2.513c1.387 0 2.515-1.127 2.515-2.513s-1.128-2.516-2.515-2.516zM15.527 20.995c-2.489 0-4.515-2.024-4.515-4.513s2.025-4.516 4.515-4.516c2.489 0 4.515 2.027 4.515 4.516s-2.025 4.513-4.515 4.513z"></path>
</symbol>
<symbol id="icon-trashcan" viewBox="0 0 32 32">
<path fill="#61646b" style="fill: var(--color2, #61646b)" d="M16.329 29.333c-1.807 0-3.568-0.020-5.311-0.056-2.229-0.044-3.772-1.489-4.024-3.772-0.42-3.787-1.139-12.712-1.145-12.801-0.045-0.551 0.365-1.033 0.916-1.077 0.543-0.015 1.033 0.367 1.077 0.916 0.007 0.091 0.724 8.985 1.14 12.743 0.143 1.297 0.843 1.967 2.077 1.992 3.333 0.071 6.735 0.075 10.401 0.008 1.312-0.025 2.021-0.681 2.168-2.009 0.413-3.725 1.133-12.643 1.141-12.733 0.044-0.549 0.531-0.933 1.076-0.916 0.551 0.045 0.961 0.527 0.917 1.077-0.008 0.091-0.731 9.039-1.147 12.792-0.259 2.329-1.797 3.747-4.12 3.789-1.777 0.031-3.492 0.048-5.168 0.048z"></path>
<path fill="#61646b" style="fill: var(--color2, #61646b)" d="M27.611 9.319h-22.611c-0.552 0-1-0.448-1-1s0.448-1 1-1h22.611c0.552 0 1 0.448 1 1s-0.448 1-1 1z"></path>
<path fill="#61646b" style="fill: var(--color2, #61646b)" d="M23.254 9.319c-1.517 0-2.835-1.081-3.133-2.569l-0.324-1.621c-0.068-0.247-0.349-0.461-0.669-0.461h-5.644c-0.32 0-0.601 0.215-0.683 0.523l-0.311 1.56c-0.297 1.488-1.616 2.569-3.133 2.569-0.552 0-1-0.448-1-1s0.448-1 1-1c0.568 0 1.061-0.405 1.173-0.963l0.324-1.621c0.329-1.243 1.405-2.068 2.629-2.068h5.644c1.224 0 2.3 0.825 2.616 2.008l0.339 1.681c0.111 0.557 0.604 0.963 1.172 0.963 0.552 0 1 0.448 1 1s-0.448 1-1 1z"></path>
</symbol>
<symbol id="icon-sun" viewBox="0 0 32 32">
<path fill="none" stroke="#9040f6" style="stroke: var(--color1, #9040f6)" stroke-linejoin="round" stroke-linecap="round" stroke-miterlimit="4" stroke-width="1.8462" d="M16 1.231v4.308M23.385 8.615l3.077-3.077M26.462 16h4.308M26.462 26.462l-3.077-3.077M16 26.462v4.308M8.615 23.385l-3.077 3.077M5.538 16h-4.308M8.615 8.615l-3.077-3.077M23.385 16c-0.163 4.075-3.306 7.385-7.385 7.385s-7.222-3.309-7.385-7.385c-0.17-4.248 3.133-8 7.385-8s7.555 3.752 7.385 8z"></path>
</symbol>
<symbol id="icon-moon" viewBox="0 0 32 32">
<path fill="none" stroke="#9040f6" style="stroke: var(--color1, #9040f6)" stroke-linejoin="round" stroke-linecap="butt" stroke-miterlimit="4" stroke-width="2" d="M14 2.667c-2.667 11.333 4.667 18 15.333 15.333-12 22.667-37.333-4.667-15.333-15.333z"></path>
</symbol>
<symbol id="icon-heart" viewBox="0 0 32 32">
<path fill="#9040f6" style="fill: var(--color1, #9040f6)" d="M5.098 16.164c1.869 5.816 9.255 10.519 11.217 11.683 1.969-1.176 9.408-5.931 11.217-11.677 1.188-3.715 0.085-8.42-4.296-9.832-2.123-0.681-4.599-0.267-6.308 1.056-0.357 0.275-0.853 0.28-1.213 0.008-1.811-1.361-4.176-1.76-6.332-1.064-4.375 1.411-5.473 6.116-4.285 9.827zM16.317 30.001c-0.165 0-0.329-0.040-0.479-0.121-0.417-0.228-10.248-5.647-12.644-13.105-0.001 0-0.001-0.001-0.001-0.001-1.504-4.696 0.171-10.597 5.577-12.34 2.539-0.821 5.305-0.46 7.543 0.952 2.168-1.371 5.048-1.749 7.536-0.952 5.412 1.745 7.092 7.645 5.589 12.34-2.319 7.373-12.221 12.873-12.641 13.104-0.149 0.083-0.315 0.124-0.48 0.124z"></path>
<path fill="#9040f6" style="fill: var(--color1, #9040f6)" d="M24.205 14.167c-0.516 0-0.953-0.396-0.996-0.919-0.088-1.096-0.821-2.021-1.865-2.359-0.527-0.171-0.815-0.735-0.645-1.259 0.172-0.525 0.731-0.811 1.259-0.645 1.817 0.588 3.091 2.197 3.247 4.1 0.044 0.551-0.365 1.033-0.916 1.077-0.028 0.003-0.055 0.004-0.083 0.004z"></path>
</symbol>
<symbol id="icon-cross-eye" viewBox="0 0 32 32">
<path fill="#9040f6" style="fill: var(--color1, #9040f6)" d="M13.015 20.823c-0.256 0-0.512-0.097-0.707-0.293-0.984-0.983-1.527-2.289-1.527-3.679 0-2.88 2.341-5.223 5.219-5.223 1.384 0 2.728 0.559 3.687 1.533 0.387 0.395 0.383 1.027-0.012 1.413-0.393 0.389-1.025 0.383-1.413-0.009-0.585-0.596-1.409-0.937-2.261-0.937-1.775 0-3.219 1.445-3.219 3.223 0 0.855 0.335 1.66 0.94 2.265 0.391 0.391 0.391 1.023 0.001 1.413-0.196 0.196-0.452 0.293-0.708 0.293z"></path>
<path fill="#9040f6" style="fill: var(--color1, #9040f6)" d="M16.757 21.988c-0.473 0-0.895-0.339-0.983-0.821-0.099-0.543 0.261-1.064 0.805-1.163 1.307-0.237 2.341-1.275 2.576-2.583 0.099-0.543 0.619-0.9 1.161-0.807 0.544 0.097 0.905 0.617 0.808 1.161-0.383 2.124-2.065 3.809-4.188 4.196-0.060 0.011-0.121 0.016-0.18 0.016z"></path>
<path fill="#9040f6" style="fill: var(--color1, #9040f6)" d="M8.873 24.963c-0.216 0-0.433-0.071-0.617-0.213-2.255-1.771-4.16-4.367-5.507-7.505-0.109-0.253-0.109-0.539 0-0.791 1.361-3.152 3.279-5.761 5.545-7.544 4.621-3.657 10.773-3.669 15.441 0.027 0.433 0.343 0.507 0.972 0.164 1.405-0.344 0.431-0.971 0.507-1.405 0.163-3.955-3.131-9.049-3.12-12.961-0.024-1.915 1.507-3.559 3.701-4.772 6.371 1.201 2.653 2.831 4.835 4.731 6.325 0.435 0.341 0.509 0.971 0.168 1.404-0.197 0.251-0.491 0.383-0.787 0.383z"></path>
<path fill="#9040f6" style="fill: var(--color1, #9040f6)" d="M16 27.586c-1.249 0-2.492-0.203-3.692-0.601-0.524-0.175-0.808-0.741-0.633-1.265 0.175-0.525 0.739-0.804 1.265-0.633 0.996 0.332 2.025 0.5 3.060 0.5 4.571 0 8.748-3.256 11.24-8.737-0.608-1.332-1.316-2.539-2.108-3.592-0.332-0.441-0.244-1.069 0.197-1.401 0.44-0.332 1.068-0.241 1.4 0.199 0.965 1.281 1.813 2.763 2.521 4.397 0.111 0.253 0.111 0.541 0 0.793-2.795 6.476-7.748 10.341-13.251 10.341z"></path>
<path fill="#9040f6" style="fill: var(--color1, #9040f6)" d="M5.485 28.365c-0.256 0-0.512-0.097-0.707-0.293-0.391-0.391-0.391-1.023 0-1.413l21.032-21.032c0.391-0.391 1.023-0.391 1.413 0s0.391 1.024 0 1.415l-21.032 21.031c-0.195 0.196-0.451 0.293-0.707 0.293z"></path>
</symbol>
<symbol id="icon-eye" viewBox="0 0 32 32">
<path fill="#9040f6" style="fill: var(--color1, #9040f6)" d="M15.999 12.855c-1.773 0-3.215 1.443-3.215 3.216 0 1.772 1.441 3.213 3.215 3.213s3.216-1.441 3.216-3.213c0-1.773-1.443-3.216-3.216-3.216zM15.999 21.285c-2.876 0-5.215-2.339-5.215-5.213 0-2.876 2.339-5.216 5.215-5.216s5.216 2.34 5.216 5.216c0 2.875-2.34 5.213-5.216 5.213z"></path>
<path fill="#9040f6" style="fill: var(--color1, #9040f6)" d="M4.76 16.070c2.48 5.479 6.657 8.736 11.24 8.737 4.583-0.001 8.76-3.259 11.24-8.737-2.48-5.477-6.657-8.735-11.24-8.736-4.581 0.001-8.76 3.259-11.24 8.736zM16.002 26.807h-0.007c-5.515-0.004-10.467-3.869-13.248-10.343-0.108-0.252-0.108-0.537 0-0.789 2.781-6.472 7.735-10.337 13.248-10.341 0.003-0.001 0.003-0.001 0.004 0 0.003-0.001 0.003-0.001 0.004 0 5.515 0.004 10.467 3.869 13.248 10.341 0.109 0.252 0.109 0.537 0 0.789-2.78 6.473-7.733 10.339-13.248 10.343h-0.001z"></path>
</symbol>
<symbol id="icon-down-arrow" viewBox="0 0 32 32">
<path fill="#9040f6" style="fill: var(--color1, #9040f6)" d="M3.045 9.711c0.458-0.458 1.175-0.5 1.68-0.125l0.145 0.125 11.131 11.13 11.131-11.13c0.458-0.458 1.175-0.5 1.68-0.125l0.145 0.125c0.458 0.458 0.5 1.175 0.125 1.68l-0.125 0.145-12.043 12.043c-0.458 0.458-1.175 0.5-1.68 0.125l-0.145-0.125-12.043-12.043c-0.504-0.504-0.504-1.321 0-1.825z"></path>
</symbol>
<symbol id="icon-image" viewBox="0 0 32 32">
<path fill="#9040f6" style="fill: var(--color1, #9040f6)" d="M10.215 4.67c-3.368 0-5.545 2.307-5.545 5.877v10.891c0 3.571 2.176 5.877 5.545 5.877h11.557c3.376 0 5.558-2.306 5.558-5.877v-10.891c0-3.57-2.182-5.877-5.558-5.877h-11.557zM21.772 29.32h-11.557c-4.516 0-7.549-3.168-7.549-7.881v-10.891c0-4.714 3.033-7.881 7.549-7.881h11.557c4.523 0 7.562 3.168 7.562 7.881v10.891c0 4.714-3.039 7.881-7.562 7.881z"></path>
<path fill="#9040f6" style="fill: var(--color1, #9040f6)" d="M7.050 22.948c-0.248 0-0.496-0.091-0.689-0.275-0.402-0.379-0.418-1.015-0.037-1.415l2.041-2.155c1.081-1.148 2.905-1.204 4.058-0.122l1.28 1.299c0.357 0.361 0.937 0.367 1.295 0.015 0.135-0.159 3.045-3.693 3.045-3.693 0.553-0.671 1.333-1.085 2.2-1.17 0.869-0.076 1.711 0.176 2.384 0.728 0.057 0.047 0.109 0.092 3.043 3.105 0.386 0.395 0.379 1.030-0.017 1.416-0.395 0.389-1.031 0.377-1.417-0.019 0 0-2.738-2.81-2.933-2.999-0.207-0.17-0.54-0.269-0.867-0.236-0.333 0.033-0.632 0.192-0.844 0.45-3.105 3.766-3.142 3.802-3.193 3.852-1.146 1.125-2.997 1.106-4.123-0.043 0 0-1.242-1.261-1.264-1.287-0.309-0.286-0.859-0.267-1.189 0.081l-2.044 2.155c-0.198 0.208-0.462 0.313-0.727 0.313z"></path>
<path fill="#9040f6" style="fill: var(--color1, #9040f6)" d="M11.428 10.855c-0.739 0-1.34 0.601-1.34 1.341s0.601 1.343 1.341 1.343c0.74 0 1.343-0.603 1.343-1.343 0-0.739-0.603-1.34-1.344-1.341zM11.429 15.543c-1.845 0-3.345-1.502-3.345-3.347s1.5-3.345 3.345-3.345c1.846 0.001 3.347 1.503 3.347 3.345 0 1.845-1.502 3.347-3.347 3.347z"></path>
</symbol>
<symbol id="icon-edit" viewBox="0 0 32 32">
<path fill="#9040f6" style="fill: var(--color1, #9040f6)" d="M32 16c0 8.837-7.163 16-16 16s-16-7.163-16-16c0-8.837 7.163-16 16-16s16 7.163 16 16z"></path>
<path fill="#2f2e30" style="fill: var(--color3, #2f2e30)" d="M5.333 22.472v3.602c0 0.332 0.261 0.593 0.593 0.593h3.602c0.154 0 0.308-0.059 0.415-0.178l12.941-12.929-4.444-4.444-12.929 12.929c-0.119 0.119-0.178 0.261-0.178 0.427zM26.32 8.453l-2.773-2.773c-0.11-0.11-0.24-0.197-0.383-0.256s-0.297-0.090-0.452-0.090-0.309 0.031-0.452 0.090c-0.143 0.059-0.274 0.147-0.383 0.256l-2.169 2.169 4.444 4.444 2.169-2.169c0.11-0.11 0.197-0.24 0.256-0.383s0.090-0.297 0.090-0.452c0-0.155-0.031-0.309-0.090-0.452s-0.147-0.274-0.256-0.383z"></path>
</symbol>
<symbol id="icon-profile" viewBox="0 0 32 32">
<path fill="#61646b" style="fill: var(--color2, #61646b)" d="M15.895 21.328c-5.681 0-8.561 0.976-8.561 2.903 0 1.944 2.88 2.929 8.561 2.929 5.68 0 8.559-0.976 8.559-2.903 0-1.944-2.879-2.929-8.559-2.929zM15.895 29.16c-2.612 0-10.561 0-10.561-4.929 0-4.395 6.028-4.903 10.561-4.903 2.612 0 10.559 0 10.559 4.929 0 4.395-6.027 4.903-10.559 4.903z"></path>
<path fill="#61646b" style="fill: var(--color2, #61646b)" d="M15.895 4.57c-2.855 0-5.177 2.321-5.177 5.176-0.009 2.845 2.296 5.165 5.139 5.176l0.039 0.952v-0.952c2.853 0 5.175-2.323 5.175-5.176 0-2.855-2.321-5.176-5.175-5.176zM15.895 16.825h-0.043c-3.896-0.012-7.052-3.189-7.039-7.083 0-3.9 3.176-7.076 7.081-7.076 3.904 0 7.079 3.176 7.079 7.080s-3.175 7.079-7.079 7.079z"></path>
</symbol>
<symbol id="icon-close-btn" viewBox="0 0 32 32">
<path fill="#9040f6" style="fill: var(--color1, #9040f6)" d="M13.267 20.656c-0.256 0-0.512-0.097-0.707-0.293-0.391-0.391-0.391-1.023 0-1.413l6.389-6.389c0.391-0.391 1.023-0.391 1.413 0s0.391 1.023 0 1.413l-6.389 6.389c-0.195 0.196-0.451 0.293-0.707 0.293z"></path>
<path fill="#9040f6" style="fill: var(--color1, #9040f6)" d="M19.661 20.662c-0.256 0-0.512-0.097-0.707-0.293l-6.395-6.396c-0.391-0.391-0.391-1.023 0-1.413 0.392-0.391 1.024-0.391 1.413 0l6.395 6.396c0.391 0.391 0.391 1.023 0 1.413-0.195 0.196-0.452 0.293-0.707 0.293z"></path>
<path fill="#9040f6" style="fill: var(--color1, #9040f6)" d="M10.22 4.667c-3.373 0-5.553 2.311-5.553 5.888v10.891c0 3.577 2.18 5.888 5.553 5.888h11.557c3.375 0 5.556-2.311 5.556-5.888v-10.891c0-3.577-2.181-5.888-5.555-5.888h-11.559zM21.777 29.333h-11.557c-4.519 0-7.553-3.171-7.553-7.888v-10.891c0-4.717 3.035-7.888 7.553-7.888h11.559c4.519 0 7.555 3.171 7.555 7.888v10.891c0 4.717-3.036 7.888-7.556 7.888z"></path>
</symbol>
<symbol id="icon-search" viewBox="0 0 32 32">
<path fill="#61646b" style="fill: var(--color2, #61646b)" d="M15.652 4.667c-6.057 0-10.985 4.927-10.985 10.984s4.928 10.985 10.985 10.985c6.056 0 10.984-4.928 10.984-10.985s-4.928-10.984-10.984-10.984zM15.652 28.636c-7.16 0-12.985-5.825-12.985-12.985s5.825-12.984 12.985-12.984c7.16 0 12.984 5.824 12.984 12.984s-5.824 12.985-12.984 12.985z"></path>
<path fill="#61646b" style="fill: var(--color2, #61646b)" d="M28.685 30.296c-0.255 0-0.511-0.097-0.707-0.292l-4.699-4.685c-0.391-0.391-0.392-1.024-0.001-1.415 0.389-0.393 1.023-0.391 1.415-0.003l4.699 4.687c0.391 0.391 0.392 1.023 0.001 1.413-0.195 0.197-0.452 0.295-0.708 0.295z"></path>
</symbol>
<symbol id="icon-github" viewBox="0 0 32 32">
<path stroke-linejoin="round" stroke-linecap="butt" stroke-miterlimit="4" stroke-width="1.3333" d="M20.239 24.127c0.566-0.115 1.101-0.271 1.651-0.507 0.916-0.393 1.836-0.993 3-1.937 0.036-0.029 0.068-0.061 0.097-0.097 0.621-0.764 1.040-1.419 1.331-2.134 0.289-0.712 0.438-1.448 0.56-2.346 0.004-0.030 0.006-0.060 0.006-0.090v-2.767c0-0.054-0.007-0.107-0.019-0.16-0.212-0.859-0.432-1.484-0.716-2.038-0.239-0.467-0.515-0.866-0.837-1.293 0.117-0.661 0.206-1.261 0.19-1.895-0.019-0.74-0.179-1.494-0.543-2.458-0.1-0.264-0.355-0.437-0.637-0.431-0.645 0.013-1.151 0.068-1.629 0.197s-0.895 0.323-1.363 0.574c-0.009 0.005-0.019 0.010-0.028 0.016l-1.385 0.832c-1.462-0.319-2.664-0.487-3.888-0.488-1.222-0.001-2.439 0.164-3.933 0.485l-1.245-0.815c-0.036-0.024-0.074-0.044-0.114-0.060-1.039-0.422-1.685-0.593-3.002-0.737-0.283-0.031-0.555 0.122-0.676 0.38-0.388 0.828-0.584 1.524-0.614 2.248-0.025 0.611 0.070 1.209 0.223 1.873-0.426 0.517-0.75 1-0.993 1.54-0.284 0.63-0.441 1.301-0.555 2.141-0.004 0.030-0.006 0.059-0.006 0.089v2.767c0 0.043 0.004 0.086 0.013 0.129 0.168 0.853 0.359 1.548 0.671 2.244 0.311 0.693 0.731 1.361 1.329 2.173 0.027 0.036 0.057 0.069 0.090 0.099 0.926 0.838 1.731 1.415 2.637 1.827 0.655 0.298 1.342 0.5 2.136 0.66-0.214 0.423-0.361 0.826-0.468 1.33-0.47 0.124-0.805 0.182-1.080 0.194-0.288 0.013-0.532-0.024-0.824-0.115-0.716-0.631-1.268-1.145-1.74-1.585-0.131-0.122-0.255-0.238-0.375-0.349-0.571-0.529-1.053-0.957-1.607-1.343-0.032-0.022-0.066-0.042-0.101-0.058-0.208-0.096-0.404-0.183-0.579-0.248-0.166-0.062-0.362-0.123-0.558-0.136-0.206-0.014-0.506 0.022-0.744 0.267-0.215 0.221-0.263 0.498-0.274 0.679-0.001 0.013-0.001 0.027-0.001 0.040-0.001 0.275 0.091 0.521 0.202 0.725s0.261 0.405 0.426 0.599c0.287 0.339 0.683 0.733 1.133 1.181 0.033 0.033 0.066 0.065 0.099 0.099 0.353 0.756 0.699 1.369 1.168 1.89 0.499 0.554 1.103 0.966 1.918 1.364 0.091 0.045 0.191 0.068 0.292 0.068h2.426v2.313c-0.026 0.133-0.045 0.213-0.065 0.27-0.016 0.001-0.037 0.002-0.063 0.002-0.124-0.001-0.318-0.027-0.616-0.101-5.773-2.259-9.889-8.014-9.889-14.771 0-8.742 6.883-15.795 15.333-15.795s15.333 7.054 15.333 15.795c0 6.608-3.937 12.259-9.512 14.617-0.341 0.105-0.595 0.166-0.783 0.192-0.156 0.022-0.238 0.015-0.273 0.009-0.015-0.031-0.040-0.095-0.064-0.217v-4.775c0.008-0.655-0.042-1.218-0.252-1.74-0.059-0.148-0.129-0.287-0.21-0.42z"></path>
</symbol>
<symbol id="icon-circles" viewBox="0 0 32 32">
<path stroke-linejoin="miter" stroke-linecap="butt" stroke-miterlimit="4" stroke-width="1.5238" d="M31.238 3.048c0 1.262-1.023 2.286-2.286 2.286s-2.286-1.023-2.286-2.286c0-1.262 1.023-2.286 2.286-2.286s2.286 1.023 2.286 2.286z"></path>
<path stroke-linejoin="round" stroke-linecap="round" stroke-miterlimit="4" stroke-width="1.5238" d="M13.714 30.476c3.233 0 6.334-1.284 8.62-3.57s3.57-5.387 3.57-8.62c0-3.233-1.284-6.334-3.57-8.62s-5.387-3.571-8.62-3.571c-3.233 0-6.334 1.284-8.62 3.571s-3.571 5.387-3.571 8.62c0 3.233 1.284 6.334 3.571 8.62s5.387 3.57 8.62 3.57z"></path>
</symbol>
<symbol id="icon-telegram" viewBox="0 0 40 32">
<path stroke-linejoin="round" stroke-linecap="round" stroke-miterlimit="4" stroke-width="2" d="M38.5 1l-36 14.25 13.263 1.9M38.5 1l-4.737 28.5-18-12.35M38.5 1l-22.737 16.15M15.763 17.15v10.45l6.156-6.226"></path>
</symbol>
<symbol id="icon-cross" viewBox="0 0 32 32">
<path d="M26.297 0.224l2.92-0.224-11.131 13.916 13.913 18.084h-7.499l-9.892-12.225-10.218 12.225h-3.731l11.965-14.399-12.625-17.376 8.348-0.001 8.348 11.495 9.601-11.495zM24.501 28.775h2.837l-20.381-25.845h-2.783l20.327 25.845z"></path>
</symbol>
<symbol id="icon-facebook" viewBox="0 0 20 32">
<path stroke-linejoin="round" stroke-linecap="round" stroke-miterlimit="4" stroke-width="1.3333" d="M18.667 1.333h-4.727c-2.090 0-4.094 0.773-5.571 2.148s-2.308 3.241-2.308 5.185v4.4h-4.727v5.867h4.727v11.733h6.303v-11.733h4.727l1.576-5.867h-6.303v-4.4c0-0.389 0.166-0.762 0.462-1.037s0.696-0.43 1.114-0.43h4.727v-5.867z"></path>
</symbol>
<symbol id="icon-instagram" viewBox="0 0 32 32">
<path d="M16 2.881c4.275 0 4.781 0.019 6.462 0.094 1.563 0.069 2.406 0.331 2.969 0.55 0.744 0.288 1.281 0.638 1.837 1.194 0.563 0.563 0.906 1.094 1.2 1.838 0.219 0.563 0.481 1.412 0.55 2.969 0.075 1.688 0.094 2.194 0.094 6.463s-0.019 4.781-0.094 6.463c-0.069 1.563-0.331 2.406-0.55 2.969-0.288 0.744-0.637 1.281-1.194 1.837-0.563 0.563-1.094 0.906-1.837 1.2-0.563 0.219-1.413 0.481-2.969 0.55-1.688 0.075-2.194 0.094-6.463 0.094s-4.781-0.019-6.463-0.094c-1.563-0.069-2.406-0.331-2.969-0.55-0.744-0.288-1.281-0.637-1.838-1.194-0.563-0.563-0.906-1.094-1.2-1.837-0.219-0.563-0.481-1.413-0.55-2.969-0.075-1.688-0.094-2.194-0.094-6.463s0.019-4.781 0.094-6.463c0.069-1.563 0.331-2.406 0.55-2.969 0.288-0.744 0.638-1.281 1.194-1.838 0.563-0.563 1.094-0.906 1.838-1.2 0.563-0.219 1.412-0.481 2.969-0.55 1.681-0.075 2.188-0.094 6.463-0.094zM16 0c-4.344 0-4.887 0.019-6.594 0.094-1.7 0.075-2.869 0.35-3.881 0.744-1.056 0.412-1.95 0.956-2.837 1.85-0.894 0.888-1.438 1.781-1.85 2.831-0.394 1.019-0.669 2.181-0.744 3.881-0.075 1.713-0.094 2.256-0.094 6.6s0.019 4.887 0.094 6.594c0.075 1.7 0.35 2.869 0.744 3.881 0.413 1.056 0.956 1.95 1.85 2.837 0.887 0.887 1.781 1.438 2.831 1.844 1.019 0.394 2.181 0.669 3.881 0.744 1.706 0.075 2.25 0.094 6.594 0.094s4.888-0.019 6.594-0.094c1.7-0.075 2.869-0.35 3.881-0.744 1.050-0.406 1.944-0.956 2.831-1.844s1.438-1.781 1.844-2.831c0.394-1.019 0.669-2.181 0.744-3.881 0.075-1.706 0.094-2.25 0.094-6.594s-0.019-4.887-0.094-6.594c-0.075-1.7-0.35-2.869-0.744-3.881-0.394-1.063-0.938-1.956-1.831-2.844-0.887-0.887-1.781-1.438-2.831-1.844-1.019-0.394-2.181-0.669-3.881-0.744-1.712-0.081-2.256-0.1-6.6-0.1v0z"></path>
<path d="M16 7.781c-4.537 0-8.219 3.681-8.219 8.219s3.681 8.219 8.219 8.219 8.219-3.681 8.219-8.219c0-4.537-3.681-8.219-8.219-8.219zM16 21.331c-2.944 0-5.331-2.387-5.331-5.331s2.387-5.331 5.331-5.331c2.944 0 5.331 2.387 5.331 5.331s-2.387 5.331-5.331 5.331z"></path>
<path d="M26.462 7.456c0 1.060-0.859 1.919-1.919 1.919s-1.919-0.859-1.919-1.919c0-1.060 0.859-1.919 1.919-1.919s1.919 0.859 1.919 1.919z"></path>
</symbol>
<symbol id="icon-youtube" viewBox="0 0 32 32">
<path d="M31.681 9.6c0 0-0.313-2.206-1.275-3.175-1.219-1.275-2.581-1.281-3.206-1.356-4.475-0.325-11.194-0.325-11.194-0.325h-0.012c0 0-6.719 0-11.194 0.325-0.625 0.075-1.987 0.081-3.206 1.356-0.963 0.969-1.269 3.175-1.269 3.175s-0.319 2.588-0.319 5.181v2.425c0 2.587 0.319 5.181 0.319 5.181s0.313 2.206 1.269 3.175c1.219 1.275 2.819 1.231 3.531 1.369 2.563 0.244 10.881 0.319 10.881 0.319s6.725-0.012 11.2-0.331c0.625-0.075 1.988-0.081 3.206-1.356 0.962-0.969 1.275-3.175 1.275-3.175s0.319-2.587 0.319-5.181v-2.425c-0.006-2.588-0.325-5.181-0.325-5.181zM12.694 20.15v-8.994l8.644 4.513-8.644 4.481z"></path>
</symbol>
<symbol id="icon-settings-mob-modal" viewBox="0 0 32 32">
<path fill="none" stroke="#61646b" style="stroke: var(--color1, #61646b)" stroke-linejoin="miter" stroke-linecap="butt" stroke-miterlimit="4" stroke-width="0.7273" d="M8.727 0.364h14.545c4.619 0 8.364 3.745 8.364 8.364v14.545c0 4.619-3.745 8.364-8.364 8.364h-14.545c-4.619 0-8.364-3.745-8.364-8.364v-14.545c0-4.619 3.745-8.364 8.364-8.364z"></path>
<path fill="#61646b" style="fill: var(--color1, #61646b)" d="M11.818 9.818c-2 0-2 0.151-2 2v0.018c0 0.805 0 1.387 0.197 1.633 0.193 0.239 0.765 0.349 1.803 0.349s1.61-0.111 1.803-0.35c0.197-0.245 0.197-0.827 0.197-1.633 0-1.866 0-2.017-2-2.017zM11.818 14.909c-1.226 0-2.146-0.129-2.652-0.756-0.439-0.545-0.439-1.288-0.439-2.316l0.545-0.018h-0.545c0-2.087 0.132-3.091 3.091-3.091s3.091 1.004 3.091 3.091c0 1.046 0 1.79-0.439 2.335-0.505 0.628-1.425 0.756-2.652 0.756z"></path>
<path fill="#61646b" style="fill: var(--color1, #61646b)" d="M19.818 9.818c-2 0-2 0.151-2 2v0.018c0 0.805 0 1.387 0.197 1.633 0.193 0.239 0.765 0.349 1.803 0.349s1.61-0.111 1.803-0.35c0.197-0.245 0.197-0.827 0.197-1.633 0-1.866 0-2.017-2-2.017zM19.818 14.909c-1.226 0-2.146-0.129-2.652-0.756-0.439-0.545-0.439-1.288-0.439-2.316l0.545-0.018h-0.545c0-2.087 0.132-3.091 3.091-3.091s3.091 1.004 3.091 3.091c0 1.046 0 1.79-0.439 2.335-0.505 0.628-1.425 0.756-2.652 0.756z"></path>
<path fill="#61646b" style="fill: var(--color1, #61646b)" d="M11.818 17.818c-2 0-2 0.151-2 2v0.018c0 0.805 0 1.387 0.197 1.633 0.193 0.239 0.765 0.349 1.803 0.349s1.61-0.111 1.803-0.35c0.197-0.245 0.197-0.827 0.197-1.633 0-1.866 0-2.017-2-2.017zM11.818 22.909c-1.226 0-2.146-0.129-2.652-0.756-0.439-0.545-0.439-1.288-0.439-2.316l0.545-0.018h-0.545c0-2.087 0.132-3.091 3.091-3.091s3.091 1.004 3.091 3.091c0 1.046 0 1.79-0.439 2.335-0.505 0.628-1.425 0.756-2.652 0.756z"></path>
<path fill="#61646b" style="fill: var(--color1, #61646b)" d="M19.818 17.818c-2 0-2 0.151-2 2v0.018c0 0.805 0 1.387 0.197 1.633 0.193 0.239 0.765 0.349 1.803 0.349s1.61-0.111 1.803-0.35c0.197-0.245 0.197-0.827 0.197-1.633 0-1.866 0-2.017-2-2.017zM19.818 22.909c-1.226 0-2.146-0.129-2.652-0.756-0.439-0.545-0.439-1.288-0.439-2.316l0.545-0.018h-0.545c0-2.087 0.132-3.091 3.091-3.091s3.091 1.004 3.091 3.091c0 1.046 0 1.79-0.439 2.335-0.505 0.628-1.425 0.756-2.652 0.756z"></path>
</symbol>
<symbol id="icon-google" viewBox="0 0 32 32">
<path fill="#e33629" style="fill: var(--color1, #e33629)" d="M11.148 1.053c3.457-1.187 7.216-1.154 10.652 0.092 1.887 0.706 3.616 1.779 5.087 3.155-0.5 0.535-1.027 1.035-1.537 1.555-0.97 0.969-1.939 1.934-2.908 2.895-0.966-0.923-2.133-1.608-3.41-2-1.634-0.494-3.372-0.527-5.024-0.098s-3.154 1.306-4.341 2.533c-1.036 1.054-1.82 2.328-2.295 3.728l-5.182-4.013c1.855-3.678 5.067-6.492 8.958-7.847z"></path>
<path fill="#f8bd00" style="fill: var(--color2, #f8bd00)" d="M0.815 12.875c0.279-1.381 0.741-2.718 1.375-3.975l5.182 4.023c-0.678 1.996-0.678 4.161 0 6.157-1.727 1.333-3.454 2.674-5.182 4.020-1.587-3.159-2.071-6.758-1.375-10.225z"></path>
<path fill="#587dbd" style="fill: var(--color3, #587dbd)" d="M16.318 13.038h14.88c0.509 2.792 0.371 5.664-0.402 8.395-0.712 2.511-2.094 4.781-4 6.565-1.673-1.305-3.352-2.6-5.025-3.906 0.829-0.559 1.536-1.28 2.081-2.119s0.913-1.78 1.084-2.766h-8.617c-0.003-2.055 0-4.113 0-6.17z"></path>
<path fill="#319f43" style="fill: var(--color4, #319f43)" d="M2.188 23.1c1.728-1.333 3.456-2.674 5.182-4.020 0.668 1.96 1.939 3.66 3.63 4.855 1.055 0.746 2.254 1.264 3.52 1.52 1.247 0.232 2.527 0.232 3.775 0 1.244-0.21 2.43-0.678 3.482-1.375 1.673 1.305 3.353 2.6 5.025 3.905-1.831 1.664-4.062 2.825-6.475 3.368-2.664 0.626-5.44 0.596-8.090-0.088-2.096-0.559-4.053-1.546-5.75-2.897-1.796-1.426-3.262-3.223-4.3-5.268z"></path>
</symbol>
<symbol id="icon-auth-github" viewBox="0 0 32 32">
<path fill="#fbf8ff" style="fill: var(--color5, #fbf8ff)" d="M32 16c0 8.837-7.163 16-16 16s-16-7.163-16-16c0-8.837 7.163-16 16-16s16 7.163 16 16z"></path>
<path fill="#2f2e30" style="fill: var(--color6, #2f2e30)" d="M0 16c0-8.837 7.163-16 16-16s16 7.163 16 16c0 6.695-4.113 12.43-9.95 14.816-1.487 0.451-1.865 0.266-2.016-0.564v-4.706c0.016-1.217-0.2-1.787-1.076-2.555 2.049-0.25 3.232-0.621 5.513-2.42 1.19-1.423 1.508-2.326 1.748-4.034v-2.689c-0.408-1.609-0.82-2.223-1.614-3.227 0.286-1.529 0.421-2.392-0.269-4.168-1.227 0.023-1.792 0.204-2.689 0.673l-1.613 0.941c-3.113-0.683-4.874-0.689-8.068 0l-1.479-0.941c-0.979-0.387-1.566-0.539-2.824-0.673-0.725 1.505-0.658 2.362-0.269 3.899-1.031 1.158-1.396 1.929-1.614 3.496v2.689c0.325 1.604 0.715 2.492 1.883 4.034 1.792 1.576 2.99 2.062 5.378 2.42-0.555 0.861-0.79 1.357-0.941 2.286-1.402 0.399-2.007 0.411-2.824 0.134-1.952-1.665-2.738-2.531-3.765-3.227-0.82-0.368-1.179-0.469-1.21 0-0.002 0.484 0.671 1.106 1.747 2.151 0.725 1.532 1.291 2.231 2.824 2.958h3.092v2.958c-0.137 0.695-0.243 1.060-1.613 0.723-6.050-2.283-10.353-8.126-10.353-14.975z"></path>
</symbol>
<symbol id="icon-auth-facebook" viewBox="0 0 32 32">
<path fill="#1877f2" style="fill: var(--color7, #1877f2)" d="M32 16c0-8.837-7.163-16-16-16s-16 7.163-16 16c0 7.986 5.851 14.605 13.5 15.805v-11.18h-4.063v-4.625h4.063v-3.525c0-4.010 2.389-6.225 6.044-6.225 1.751 0 3.581 0.313 3.581 0.313v3.938h-2.018c-1.988 0-2.607 1.233-2.607 2.499v3.001h4.437l-0.71 4.625h-3.728v11.18c7.649-1.2 13.5-7.819 13.5-15.805z"></path>
</symbol>

<symbol id="icon-Logo" viewBox="0 0 58 32">
<path fill="#2f2e30" style="fill: var(--color1, #2f2e30)" d="M1.424 17.125c-0.949 0-1.424-0.472-1.424-1.417v-13.979c0-0.945 0.491-1.417 1.474-1.417h8.918c0.999 0 1.499 0.432 1.499 1.297 0 0.849-0.5 1.273-1.499 1.273h-7.519v4.371h6.77c0.466 0 0.824 0.112 1.074 0.336 0.266 0.224 0.4 0.544 0.4 0.961 0 0.865-0.491 1.297-1.474 1.297h-6.77v5.86c0 0.945-0.483 1.417-1.449 1.417z"></path>
<path fill="#2f2e30" style="fill: var(--color1, #2f2e30)" d="M14.449 17.125c-0.933 0-1.399-0.472-1.399-1.417v-8.719c0-0.945 0.466-1.417 1.399-1.417s1.399 0.472 1.399 1.417v8.719c0 0.945-0.466 1.417-1.399 1.417z"></path>
<path fill="#2f2e30" style="fill: var(--color1, #2f2e30)" d="M20.662 17.125c-0.949 0-1.424-0.472-1.424-1.417v-14.291c0-0.945 0.475-1.417 1.424-1.417 0.933 0 1.399 0.472 1.399 1.417v14.291c0 0.945-0.466 1.417-1.399 1.417z"></path>
<path fill="#2f2e30" style="fill: var(--color1, #2f2e30)" d="M26.468 17.125c-0.949 0-1.424-0.472-1.424-1.417v-8.719c0-0.945 0.425-1.417 1.274-1.417 0.833 0 1.274 0.208 1.324 0.624l0.1 0.769c0.233-0.48 0.625-0.881 1.174-1.201s1.182-0.48 1.899-0.48c0.783 0 1.466 0.176 2.048 0.528s1.033 0.857 1.349 1.513c0.316-0.592 0.774-1.081 1.374-1.465 0.616-0.384 1.316-0.576 2.098-0.576 1.182 0 2.132 0.4 2.848 1.201 0.733 0.785 1.099 1.897 1.099 3.339v5.884c0 0.945-0.466 1.417-1.399 1.417-0.966 0-1.449-0.472-1.449-1.417v-5.26c0-0.849-0.158-1.513-0.475-1.993s-0.758-0.721-1.324-0.721c-0.716 0-1.274 0.248-1.674 0.745-0.383 0.496-0.575 1.201-0.575 2.114v5.116c0 0.945-0.466 1.417-1.399 1.417-0.949 0-1.424-0.472-1.424-1.417v-5.26c0-0.849-0.167-1.513-0.5-1.993s-0.783-0.721-1.349-0.721c-0.7 0-1.241 0.256-1.624 0.769-0.383 0.496-0.575 1.193-0.575 2.090v5.116c0 0.945-0.466 1.417-1.399 1.417z"></path>
<path fill="#2f2e30" style="fill: var(--color1, #2f2e30)" d="M16.667 32c-1.182 0-2.090-0.208-2.723-0.625-0.616-0.416-0.924-1.249-0.924-2.498v-6.365l-11.434 0.144c-0.983 0-1.474-0.392-1.474-1.177 0-0.368 0.1-0.648 0.3-0.841 0.217-0.208 0.6-0.312 1.149-0.312l11.459-0.144v-11.849c0-0.945 0.475-1.417 1.424-1.417 0.916 0 1.374 0.472 1.374 1.417v11.849h1.849c0.983 0 1.474 0.384 1.474 1.153 0 0.785-0.483 1.177-1.449 1.177h-1.874v5.668c0 0.544 0.133 0.913 0.4 1.105 0.283 0.192 0.683 0.288 1.199 0.288 0.533 0 0.949 0.064 1.249 0.192 0.316 0.112 0.475 0.416 0.475 0.913 0 0.4-0.125 0.697-0.375 0.889-0.233 0.176-0.541 0.288-0.924 0.336-0.366 0.064-0.758 0.096-1.174 0.096z"></path>
<path fill="#2f2e30" style="fill: var(--color1, #2f2e30)" d="M25.355 32c-1.749 0-3.164-0.504-4.247-1.513-1.083-1.025-1.624-2.538-1.624-4.539 0-1.249 0.241-2.322 0.724-3.218 0.483-0.913 1.157-1.609 2.023-2.090 0.866-0.496 1.857-0.745 2.973-0.745s2.065 0.248 2.848 0.745c0.783 0.496 1.382 1.137 1.799 1.921s0.625 1.601 0.625 2.45c0 0.592-0.125 0.985-0.375 1.177-0.25 0.176-0.616 0.264-1.099 0.264h-6.745c0.067 1.153 0.383 1.978 0.949 2.474 0.566 0.48 1.299 0.721 2.198 0.721 1.016 0 1.807-0.336 2.373-1.009 0.333-0.336 0.641-0.552 0.924-0.648 0.3-0.112 0.616-0.056 0.949 0.168s0.525 0.512 0.575 0.865c0.050 0.352-0.1 0.721-0.45 1.105-0.566 0.657-1.216 1.137-1.948 1.441-0.733 0.288-1.557 0.432-2.473 0.432zM22.382 24.362h5.321c-0.133-0.753-0.425-1.329-0.874-1.729-0.433-0.416-0.991-0.625-1.674-0.625-0.733 0-1.341 0.192-1.824 0.576-0.466 0.384-0.783 0.977-0.949 1.777z"></path>
<path fill="#2f2e30" style="fill: var(--color1, #2f2e30)" d="M33.286 31.736c-0.933 0-1.399-0.44-1.399-1.321v-14.483c0-0.881 0.466-1.321 1.399-1.321h0.050c0.916 0 1.374 0.44 1.374 1.321v9.031l3.497-4.011c0.266-0.32 0.55-0.552 0.849-0.697 0.316-0.144 0.608-0.216 0.874-0.216 0.333 0 0.608 0.096 0.824 0.288 0.233 0.176 0.35 0.416 0.35 0.721 0.017 0.304-0.133 0.648-0.45 1.033l-3.098 3.314 3.772 4.732c0.333 0.448 0.383 0.849 0.15 1.201-0.217 0.352-0.566 0.528-1.049 0.528-0.45 0-0.791-0.056-1.024-0.168s-0.441-0.28-0.624-0.504l-4.072-5.308v4.539c0 0.881-0.458 1.321-1.374 1.321h-0.050z"></path>
<path fill="#2f2e30" style="fill: var(--color1, #2f2e30)" d="M46.759 31.904c-1.299 0.048-2.373-0.224-3.223-0.817-0.833-0.592-1.249-1.449-1.249-2.57 0-0.817 0.258-1.513 0.774-2.090s1.182-1.025 1.999-1.345c0.816-0.336 1.657-0.512 2.523-0.528 0.433-0.032 0.841 0 1.224 0.096s0.724 0.232 1.024 0.408v-1.009c0-0.753-0.167-1.241-0.5-1.465s-0.824-0.336-1.474-0.336c-0.466 0-0.958 0.056-1.474 0.168-0.5 0.112-0.991 0.264-1.474 0.456-0.433 0.176-0.808 0.24-1.124 0.192-0.3-0.048-0.55-0.24-0.749-0.576s-0.25-0.657-0.15-0.961c0.117-0.32 0.4-0.568 0.849-0.744 0.6-0.272 1.249-0.488 1.949-0.648 0.716-0.16 1.441-0.24 2.173-0.24 1.549 0 2.715 0.304 3.497 0.913 0.783 0.592 1.174 1.673 1.174 3.242v5.308c0 0.16 0.017 0.288 0.050 0.384 0.050 0.096 0.092 0.168 0.125 0.216 0.15 0.208 0.308 0.328 0.475 0.36 0.183 0.032 0.341 0.056 0.475 0.072 0.133 0 0.2 0.072 0.2 0.216 0 0.288-0.083 0.536-0.25 0.745-0.15 0.208-0.408 0.352-0.774 0.432-0.383 0.080-0.758 0.12-1.124 0.12-0.516 0-0.916-0.080-1.199-0.24-0.266-0.176-0.458-0.464-0.575-0.865-0.416 0.336-0.899 0.6-1.449 0.793-0.55 0.176-1.124 0.28-1.724 0.312zM46.709 29.55c0.933-0.032 1.699-0.208 2.298-0.528 0.616-0.32 0.908-0.777 0.874-1.369-0.017-0.384-0.225-0.648-0.624-0.793-0.383-0.144-0.866-0.2-1.449-0.168-0.816 0.016-1.491 0.216-2.023 0.6-0.533 0.368-0.791 0.785-0.774 1.249 0.033 0.721 0.6 1.057 1.699 1.009z"></path>
<path fill="none" stroke="#2f2e30" style="stroke: var(--color1, #2f2e30)" stroke-linejoin="miter" stroke-linecap="butt" stroke-miterlimit="4" stroke-width="2.9091" d="M56.727 9.619c0 3.289-2.79 6.051-6.352 6.051s-6.352-2.763-6.352-6.051c0-3.289 2.79-6.051 6.352-6.051s6.352 2.763 6.352 6.051z"></path>
<path fill="#9040f6" style="fill: var(--color2, #9040f6); stroke: var(--color2, #9040f6)" stroke="#9040f6" stroke-linejoin="miter" stroke-linecap="butt" stroke-miterlimit="4" stroke-width="1.4545" d="M48.814 6.917l4.372 2.702-4.372 2.702v-5.404z"></path>
<path fill="#9040f6" style="fill: var(--color2, #9040f6)" d="M16.338 2.113c0 0.995-0.839 1.801-1.874 1.801s-1.874-0.806-1.874-1.801c0-0.995 0.839-1.801 1.874-1.801s1.874 0.806 1.874 1.801z"></path>
</symbol>

</defs>
</svg>
