<svg aria-hidden="true" style="position: absolute; width: 0; height: 0; overflow: hidden;" version="1.1" xmlns="http://www.w3.org/2000/svg" xmlns:xlink="http://www.w3.org/1999/xlink">
<defs>
<symbol id="google" viewBox="0 0 32 32">
<path fill="#e33629" style="fill: var(--color1, #e33629)" d="M11.148 1.053c3.457-1.187 7.216-1.154 10.652 0.092 1.887 0.706 3.616 1.779 5.087 3.155-0.5 0.535-1.027 1.035-1.537 1.555-0.97 0.969-1.939 1.934-2.908 2.895-0.966-0.923-2.133-1.608-3.41-2-1.634-0.494-3.372-0.527-5.024-0.098s-3.154 1.306-4.341 2.533c-1.036 1.054-1.82 2.328-2.295 3.728l-5.182-4.013c1.855-3.678 5.067-6.492 8.958-7.847z"></path>
<path fill="#f8bd00" style="fill: var(--color2, #f8bd00)" d="M0.815 12.875c0.279-1.381 0.741-2.718 1.375-3.975l5.182 4.023c-0.678 1.996-0.678 4.161 0 6.157-1.727 1.333-3.454 2.674-5.182 4.020-1.587-3.159-2.071-6.758-1.375-10.225z"></path>
<path fill="#587dbd" style="fill: var(--color3, #587dbd)" d="M16.318 13.038h14.88c0.509 2.792 0.371 5.664-0.402 8.395-0.712 2.511-2.094 4.781-4 6.565-1.673-1.305-3.352-2.6-5.025-3.906 0.829-0.559 1.536-1.28 2.081-2.119s0.913-1.78 1.084-2.766h-8.617c-0.003-2.055 0-4.113 0-6.17z"></path>
<path fill="#319f43" style="fill: var(--color4, #319f43)" d="M2.188 23.1c1.728-1.333 3.456-2.674 5.182-4.020 0.668 1.96 1.939 3.66 3.63 4.855 1.055 0.746 2.254 1.264 3.52 1.52 1.247 0.232 2.527 0.232 3.775 0 1.244-0.21 2.43-0.678 3.482-1.375 1.673 1.305 3.353 2.6 5.025 3.905-1.831 1.664-4.062 2.825-6.475 3.368-2.664 0.626-5.44 0.596-8.090-0.088-2.096-0.559-4.053-1.546-5.75-2.897-1.796-1.426-3.262-3.223-4.3-5.268z"></path>
</symbol>
<symbol id="github" viewBox="0 0 32 32">
<path fill="#fbf8ff" style="fill: var(--color5, #fbf8ff)" d="M32 16c0 8.837-7.163 16-16 16s-16-7.163-16-16c0-8.837 7.163-16 16-16s16 7.163 16 16z"></path>
<path fill="#2f2e30" style="fill: var(--color6, #2f2e30)" d="M0 16c0-8.837 7.163-16 16-16s16 7.163 16 16c0 6.695-4.113 12.43-9.95 14.816-1.487 0.451-1.865 0.266-2.016-0.564v-4.706c0.016-1.217-0.2-1.787-1.076-2.555 2.049-0.25 3.232-0.621 5.513-2.42 1.19-1.423 1.508-2.326 1.748-4.034v-2.689c-0.408-1.609-0.82-2.223-1.614-3.227 0.286-1.529 0.421-2.392-0.269-4.168-1.227 0.023-1.792 0.204-2.689 0.673l-1.613 0.941c-3.113-0.683-4.874-0.689-8.068 0l-1.479-0.941c-0.979-0.387-1.566-0.539-2.824-0.673-0.725 1.505-0.658 2.362-0.269 3.899-1.031 1.158-1.396 1.929-1.614 3.496v2.689c0.325 1.604 0.715 2.492 1.883 4.034 1.792 1.576 2.99 2.062 5.378 2.42-0.555 0.861-0.79 1.357-0.941 2.286-1.402 0.399-2.007 0.411-2.824 0.134-1.952-1.665-2.738-2.531-3.765-3.227-0.82-0.368-1.179-0.469-1.21 0-0.002 0.484 0.671 1.106 1.747 2.151 0.725 1.532 1.291 2.231 2.824 2.958h3.092v2.958c-0.137 0.695-0.243 1.060-1.613 0.723-6.050-2.283-10.353-8.126-10.353-14.975z"></path>
</symbol>
<symbol id="facebook" viewBox="0 0 32 32">
<path fill="#1877f2" style="fill: var(--color7, #1877f2)" d="M32 16c0-8.837-7.163-16-16-16s-16 7.163-16 16c0 7.986 5.851 14.605 13.5 15.805v-11.18h-4.063v-4.625h4.063v-3.525c0-4.010 2.389-6.225 6.044-6.225 1.751 0 3.581 0.313 3.581 0.313v3.938h-2.018c-1.988 0-2.607 1.233-2.607 2.499v3.001h4.437l-0.71 4.625h-3.728v11.18c7.649-1.2 13.5-7.819 13.5-15.805z"></path>
</symbol>
</defs>
</svg>